<svg xmlns="http://www.w3.org/2000/svg" width="24" height="25" fill="none"><g clip-path="url(#a)"><path fill="#000" d="M11.25 8.227a2.625 2.625 0 0 1-2.515-1.875H3.75a.75.75 0 1 1 0-1.5h4.985a2.625 2.625 0 0 1 5.03 0h6.485a.75.75 0 1 1 0 1.5h-6.485a2.625 2.625 0 0 1-2.515 1.875Zm7.015 4.875h1.985a.75.75 0 0 0 0-1.5h-1.985a2.625 2.625 0 0 0-5.03 0H3.75a.75.75 0 1 0 0 1.5h9.485a2.625 2.625 0 0 0 5.03 0Zm-7.5 6.75h9.485a.75.75 0 0 0 0-1.5h-9.485a2.624 2.624 0 0 0-5.03 0H3.75a.75.75 0 1 0 0 1.5h1.985a2.625 2.625 0 0 0 5.03 0Z"/></g><defs><clipPath id="a"><path fill="#fff" d="M24 .352v24H0v-24z"/></clipPath></defs></svg>