<svg xmlns="http://www.w3.org/2000/svg" width="18" height="18" fill="none"><path fill="#0C57A8" d="M17.571 9.351A8.57 8.57 0 0 0 9 .78 8.57 8.57 0 0 0 .428 9.351 8.573 8.573 0 0 0 6.93 17.67v-5.698h-1.77V9.35h1.77V8.223c0-2.917 1.32-4.268 4.183-4.268.542 0 1.481.106 1.862.212V6.54c-.203-.02-.552-.03-.991-.03-1.406 0-1.948.53-1.948 1.916v.925h2.801l-.48 2.62H10.04v5.89c4.244-.514 7.532-4.128 7.532-8.51Z"/><path fill="#fff" d="m12.357 11.97.48-2.62h-2.802v-.925c0-1.385.542-1.916 1.948-1.916.435 0 .788.01.99.03V4.165c-.383-.107-1.32-.213-1.861-.213-2.863 0-4.183 1.35-4.183 4.269v1.13H5.16v2.62h1.77v5.699a8.584 8.584 0 0 0 3.11.192v-5.89h2.318Z"/></svg>