<svg xmlns="http://www.w3.org/2000/svg" width="16" height="17" fill="none"><path fill="#000" d="M1.778 2.665h7.11v1.778h1.779V2.665c0-.981-.796-1.777-1.778-1.777H1.778C.796.888 0 1.684 0 2.665v7.112c0 .981.796 1.777 1.778 1.777h1.778V9.777H1.778V2.665Z"/><path fill="#000" fill-rule="evenodd" d="M14.222 7.999h-7.11v7.11h7.11V8ZM7.112 6.22c-.983 0-1.779.796-1.779 1.778v7.11c0 .983.796 1.779 1.778 1.779h7.111c.982 0 1.778-.796 1.778-1.778V7.999c0-.982-.796-1.778-1.778-1.778h-7.11Z" clip-rule="evenodd"/></svg>