<svg xmlns="http://www.w3.org/2000/svg" viewBox="0 0 77 64"><g fill="none" fill-rule="evenodd" transform="translate(.573 -.004)"><circle cx="34.927" cy="33.004" r="31" fill="#71D1B3" fill-rule="nonzero"/><path fill="#000" fill-rule="nonzero" d="M59.73 49.653v.23c0 .146-.036 5.677-.728 12.688-.048.474-.097.947-.145 1.432h.825c.752-6.878.849-12.664.86-13.89m-4.512-9.498c-.34.255-.655.546-.946.862a8.973 8.973 0 0 0-1.698 2.729l-1.177 3.712a11.585 11.585 0 0 0-1.116-.704c-4.245-2.34-8.83-1.237-9.765-.97l-6.647.048a1.738 1.738 0 0 0-1.092-.885c-.655-2.171-1.092-4.003-1.152-6.32 2.123.23 3.554.243 5.592-.752a5.622 5.622 0 0 0 2.875-3.494 3.933 3.933 0 0 0-.158-2.608c.4-.242.728-.594.934-1.019.255-.485.34-1.043.255-1.589 1.492-1.164 1.492-3.36 1.286-5.094a6.971 6.971 0 0 0 2.753-1.966l.413-.497-.57-.303c-1.456-.777-2.803-1.59-3.3-2.875a5.795 5.795 0 0 1-.303-1.262 4.05 4.05 0 0 0-.06-.376 12.931 12.931 0 0 0-3.01-6.186 6.529 6.529 0 0 0-1.09-.995 14.097 14.097 0 0 0-4.671-3.906c-.243-.121-.485-.23-.728-.34a3.702 3.702 0 0 0 .267-2.547c-.473-1.929-2.547-3.506-4.258-3.25-2.28.339-6.672.982-12.094 5.41-.194-.17-.412-.34-.619-.51-1.346-1.08-3.02-2.22-3.881-1.359-.667.667-.23 1.88 1.407 3.943.11.145.23.279.34.424-.316.316-.643.63-.947.922-2.268 2.196-4.61 4.464-4.912 8.055-.23 2.838.157 4.67 1.176 5.483.376.303.85.46 1.335.448h.085a51.41 51.41 0 0 0-.377 5.29c-.181 8.054-1.091 14.095-2.79 18.486-1.08 2.875-2.547 5.083-4.44 6.696-.363.121-1.48.534-2.947 1.189.024.17.06.364.097.558 0 .036.012.073.024.109.025.133.061.279.097.412l.146-.06.085.133c.121.182 3.105 4.452 8.079 5.01.364.036.715.06 1.067.06 1.953 0 3.93-.606 5.883-1.807l5.338 5.083h1.516l-5.956-5.665a21.202 21.202 0 0 0 2.147-1.759 20.403 20.403 0 0 0 4.743-6.587 1.754 1.754 0 0 0 2.814.134 1.766 1.766 0 0 0 2.342.849 1.78 1.78 0 0 0 .934-1.092c.703.655 1.82.619 2.474-.085.291-.303.449-.716.473-1.14a1.766 1.766 0 0 0 2.378-.74c.097-.182.158-.364.182-.558l5.507-.036-.024.048-10.384 16.63h1.25l10.456-16.775c.886-.243 5.131-1.214 8.94.897a9.6 9.6 0 0 1 1.274.837l-4.78 15.042h.874l4.61-14.472.17-.533.169-.534 1.031-4.258c.364-.898 1.468-2.341 2.11-3.069m-15.32-10.42c-.133.255-.34.473-.594.619-1.88-.716-2.754-2.038-3.166-3.106.776.425 2.013.946 3.881 1.468.085.34.049.704-.12 1.019Zm.582-1.977c-1.807-.498-2.984-.995-3.724-1.371.874.036 1.747 0 2.608-.133.813-.11 1.517-.243 1.99-.352-.122.849-.4 1.455-.874 1.856ZM12.846 4.31c.121-.013.752.023 2.657 1.564.097.085.194.158.29.243.134.109.268.23.401.34.134.108.267.242.4.351.304.279.57.522.765.716L16.12 8.907c-.218-.23-.51-.546-.837-.91-.109-.121-.23-.255-.34-.388-.12-.134-.218-.267-.327-.4l-.133-.158c-1.614-1.965-1.65-2.62-1.638-2.742ZM9.801 21.558c-.4-.328-1.043-1.347-.776-4.574.28-3.202 2.378-5.228 4.598-7.387.303-.291.594-.582.897-.873.534.606.983 1.067 1.152 1.237l.073.073.085.085.219.218.085.085.86-.958 1.202-1.335.327-.364.267-.29-.352-.34a37.74 37.74 0 0 0-1.055-1.007c5.143-4.149 9.292-4.755 11.451-5.07.085-.013.158-.013.243-.013 1.225 0 2.56 1.298 2.838 2.475a2.672 2.672 0 0 1-.255 1.928 3.677 3.677 0 0 1-.29.461c-.11.146-.231.292-.365.437-.812.861-2.122 1.638-3.881 2.268-4.938 1.784-8.019 5.083-10.457 7.946-.218.267-.437.521-.655.776l-.133.158c-.255.303-.498.594-.752.873-.328.388-.655.752-.983 1.092-.158.17-.315.328-.473.485a8.483 8.483 0 0 1-.485.449c-.413.376-.85.692-1.335.958-.194.11-.388.194-.582.267l-.109.037a3.029 3.029 0 0 1-.449.109c-.364.048-.667-.012-.91-.206Zm13.526 25.97c-.667 1.893-2.33 5.18-3.955 6.94-1.407 1.528-4.512 4.245-7.084 5.021-2.123.643-4.27.34-5.58-.072-3.663-1.153-5.616-4.331-5.616-4.331s1.48-.667 1.844-.85c.655-.314 1.504-1.103 1.977-1.649 1.213-1.37 2.923-4.622 3.578-6.356.983-2.62 2.002-8.188 2.293-10.966.17-1.626.218-4.658.34-6.514.085-1.237.448-5.871.448-5.871l3.858-3.118c.17-.206.34-.424.485-.643.789-1.188 2.742-3.384 3.663-4.451.777-.898 2.924-2.609 3.919-3.24 1.261-.812 3.614-1.661 5.094-2.292a6.69 6.69 0 0 0 .498-.218 8.587 8.587 0 0 0 2.305-1.504l.921-.57s1.88.921 2.475 1.358c.425.291 1.601 1.456 1.601 1.456s-3.445.242-4.573.497c-.376.085-.958.255-1.601.473-1.59.522-3.53 1.262-3.53 1.262s.497 2.668.437 4.379c-.012.23-.025.46-.073.691-.182.995-.425 2.196-1.237 3.748-.922 1.772-2.608 3.057-3.19 3.47a4.923 4.923 0 0 0-6.078 2.51l-.049-.036c0 .025.012.049.037.049-1.165 2.45-.121 5.386 2.329 6.562a4.923 4.923 0 0 0 5.3-.691c.061.534.522 4.561.438 6.126-.122 2.098-.11 5.531-1.274 8.83Zm1.237-19.663c.049.17.085.352.097.534.012.073.012.134.024.206v.012c0 .073.013.146.013.219v.097c0 .048 0 .109-.013.158v.012c0 .048 0 .097-.012.157v.025c-.012.048-.012.097-.024.133l-.012.049c-.012.036-.012.085-.024.12 0 .013-.012.037-.012.05-.037.17-.085.327-.146.485v.012a1.472 1.472 0 0 1-.085.206l-.012.036c-.037.073-.073.146-.11.207 0 0 0 .012-.011.012-.025.048-.049.097-.085.145l-.012.012c-.025.049-.061.097-.085.134v.012c-.037.049-.061.097-.097.133-.037.049-.073.097-.11.134-.048.048-.084.109-.133.158l-.024.024-.134.133c-.109.097-.218.194-.34.28a3.69 3.69 0 0 1-5.18-.765 3.69 3.69 0 0 1 .765-5.18 3.705 3.705 0 0 1 2.208-.727c.303 0 .618.036.91.109.06.012.109.024.17.048.084.025.157.049.242.085l.012.012c.06.025.134.049.194.085.061.024.11.049.17.085l.012.012c.06.037.134.073.194.11l.049.036c.073.048.133.085.194.133.133.097.267.206.388.316.121.12.23.242.34.376l.109.145a1 1 0 0 1 .097.146l.012.012c.037.048.06.097.097.145l.012.013c.025.048.061.097.085.145l.012.012c.025.049.049.11.073.158v.012c.024.049.049.11.073.158v.012c.024.06.036.11.06.17v.012c.025.06.037.121.05.182h-.025l.024.048Zm.17 21.956a.813.813 0 1 1 0-1.625.813.813 0 0 1 0 1.625Zm2.948.352a.813.813 0 1 1 0-1.625.813.813 0 0 1 0 1.625Zm2.875-.776a.813.813 0 1 1 0-1.626.813.813 0 0 1 0 1.626Zm.812-2.366a1.766 1.766 0 0 0-2.377.74c-.049.097-.097.194-.122.304a1.747 1.747 0 0 0-2.474.097c-.024.024-.049.06-.073.097a1.762 1.762 0 0 0-1.59-.995c-.145 0-.29.024-.436.06.23-.727.425-1.491.595-2.268.788-3.712.86-7.92.206-12.53a17.952 17.952 0 0 0-.121-.801c.157-.218.303-.449.424-.691 1.007 1.528 2.79 3.287 5.896 4.476l.375-.983c-3.396-1.298-5.046-3.311-5.834-4.804.012-.097.036-.194.048-.29v-.037a2.56 2.56 0 0 0 .025-.303c0-.073 0-.158.012-.23v-.025a7.53 7.53 0 0 0-.024-.534l-.037-.255c-.012-.084-.024-.17-.048-.242v-.037a1.622 1.622 0 0 0-.061-.23c0-.012-.012-.024-.012-.024-.024-.073-.037-.146-.06-.219l-.013-.036c-.024-.073-.049-.133-.073-.206 0-.012-.012-.024-.012-.037-.024-.06-.048-.133-.085-.194 0-.012-.012-.024-.024-.048-.024-.06-.06-.122-.085-.182-.012-.012-.012-.024-.024-.049a.772.772 0 0 0-.097-.17l-.025-.048c-.036-.06-.072-.11-.097-.17l-.024-.048c-.036-.049-.073-.11-.11-.158l-.023-.049c-.037-.048-.073-.109-.122-.157l-.036-.037a1.529 1.529 0 0 0-.133-.157c-.013-.012-.025-.025-.025-.037-.048-.048-.097-.109-.145-.157l-.024-.025-.17-.17a4.221 4.221 0 0 0-.583-.46 12.877 12.877 0 0 0 4.33-10.166 10.935 10.935 0 0 0-.254-1.892 17.49 17.49 0 0 1 1.735-.825 18.4 18.4 0 0 1 5.92-1.322c.194-.012.376-.024.545-.012.182 0 .352.012.522.036.145.024.291.06.425.11.424.145.788.448 1.103.776a11.774 11.774 0 0 1 3.045 5.98c.024.121.036.242.06.364.061.497.183.994.352 1.468.559 1.419 1.784 2.292 3.179 3.08a5.844 5.844 0 0 1-2.232 1.31l-.425.134.06.437c.074.522.122 1.043.134 1.565-1.37.327-4.488.873-5.931.254l-.74-.315v.8c0 .037.06 4.064 3.954 5.69l.036.048c.546.813.473 1.699.316 2.293a4.624 4.624 0 0 1-2.33 2.826c-1.964.97-3.202.874-5.604.595l-.582-.073v.594c0 2.645.425 4.622 1.128 6.951-.655.291-1.104.91-1.128 1.613Zm1.76.874a.813.813 0 1 1 0-1.626.813.813 0 0 1 0 1.626Z"/><path fill="#000" fill-rule="nonzero" d="m35.943 17.338-.134-.012a4.12 4.12 0 0 0-.546.037 2.925 2.925 0 0 0-.558.157 2.755 2.755 0 0 0-1.734 2.341l1.043.085c.024-.364.182-.715.424-.994a1.63 1.63 0 0 1 .62-.45 1.714 1.714 0 0 1 2.389 1.723l1.043.085a2.777 2.777 0 0 0-2.523-2.984c-.012.012-.024.012-.024.012ZM35.567 15.762l.533.012 1.723.037.024-1.044-1.552-.024-.534-.012-.534-.012-2.462-.061-.025 1.043 2.293.049zM46.788 7.246l-.51.91 2.984 1.673.51-.91zM50.655 2.796l-.769.704 2.563 2.801.77-.704zM57.899.387 56.872.57l.587 3.296 1.027-.183zM64.482.876l-.904 3.161 1.003.287.904-3.161zM70.597 3.12l-2.704 3.066.782.69L71.38 3.81zM74.641 8.624l-3.876 1.442.364.978 3.876-1.442zM4.602 9.146l-.538.893 3.075 1.854.538-.894zM6.174 15.301H2.656v1.043h3.518zM6.225 19.461 2.88 21.043l.446.943 3.345-1.582zM66.186 48.545l-1.029.176.54 3.156 1.028-.175zM69.508 47.042l-.874.569 1.892 2.908.875-.569zM72.572 44.863l-.523.903 3.117 1.806.523-.903z"/><path stroke="#000" stroke-width=".97" d="M53.386 44.207s2.207-5.325 8.564-4.44c4.78.668 6.296 1.42 9.462.51 3.166-.91 3.238-2.596 4.282-1.468 1.043 1.128-1.444 4.792-5.144 6.053-3.7 1.262-9.898 1.65-9.995 5.265"/><path fill="#1A1718" fill-rule="nonzero" d="M65.674 13.214c-1.674.764-3.651 1.383-4.585 3.105-1.056-1.407-2.414-2.584-3.979-3.384-1.37-.74-3.069-.85-4.488-.182-1.043.534-2.196.982-2.85 2.014-1.129 1.54-2.403 3.214-2.415 5.216-.036 3.13 1.31 6.174 3.239 8.588 2.184 2.462 4.537 4.828 7.17 6.817 1.067.728 2.243 1.699 3.626 1.456 1.54-.388 3.008-1.201 4.088-2.378 1.128-1.37 2.22-2.765 3.081-4.33 2.208-3.603 4.816-7.29 5.143-11.645.243-2.317-.934-4.804-3.105-5.774-1.601-.765-3.409-.182-4.925.497Zm-3.057 2.608c.546-.522 1.201-.886 1.832-1.286-.922 1.213-1.698 2.523-2.183 3.979-.158-.34-.304-.667-.45-1.007.195-.582.316-1.25.801-1.686Zm-1.71 19.53c-1.59-.352-2.887-1.444-4.149-2.414-1.783-1.407-3.42-2.984-5.046-4.561-2.184-2.208-3.797-5.24-3.603-8.406.06-1.262.8-2.33 1.383-3.397-.57 4.173 1.104 8.503 4.112 11.415 1.917 1.82 3.967 3.542 6.369 4.706 1.298.825 2.887.862 4.33 1.262-1.006.68-2.135 1.407-3.396 1.395Zm11.718-19.07c.46 1.7.048 3.482-.558 5.083-.898 2.232-2.184 4.283-3.518 6.284-1.055 1.577-1.892 3.3-2.996 4.84-.194.243-.413.558-.752.534-1.504-.267-3.057-.51-4.416-1.274-2.207-1.116-4.04-2.826-5.762-4.573-1.831-1.844-3.202-4.173-3.724-6.72-.242-1.286-.436-2.645-.036-3.918.485-1.699 2.135-2.96 3.894-3.009 1.237.025 2.377.619 3.372 1.31 1.662 1.153 2.863 2.9 3.53 4.804.206.619.497 1.213.91 1.71.594-1.164.594-2.51 1.164-3.675.874-1.868 2.414-3.579 4.428-4.185 1.94-.485 3.966.934 4.464 2.79Z"/></g></svg>