<svg xmlns="http://www.w3.org/2000/svg" viewBox="0 0 80 62"><g fill="none" fill-rule="evenodd" transform="translate(.5)"><circle cx="39" cy="31" r="31" fill="#C0E6FF" fill-rule="nonzero"/><path fill="#000" fill-rule="nonzero" d="m72.32 49.154-.991-.941-1.122 1.221 1.337 1.238 1.634.347 1.138.808.958-1.337-1.403-1.023zM66.18 54.947l-.842-1.123-1.32.99 1.072 1.436 1.486.726.957 1.024 1.221-1.123-1.172-1.254zM75.752 42.453l-1.039-.875-1.057 1.271 1.42 1.188 1.683.198 1.172.743.874-1.403-1.485-.924zM7.129 12.154l.892 1.056 1.254-1.089-1.172-1.354-1.551-.594-1.04-.941-1.106 1.205 1.255 1.172zM13.979 7.218l.676 1.205 1.453-.809-.875-1.551-1.386-.924L13.021 4l-1.336.957.99 1.403zM3.812 19.349l1.172-1.156L3.73 16.89l-1.617-.463-1.073-.874L0 16.84l1.337 1.089 1.518.429z"/><path fill="#1C1E29" d="M54.693 7.202c-.313.115-.66.346-.858.61-.215.264-.413.66-.413.842 0 .066-.033.149-.066.165-.082.05-1.502.215-1.568.182-.032-.017-.099-.182-.148-.347-.116-.396-.446-.743-.792-.842-.314-.082-.908-.033-1.188.116-.413.214-.875.825-.958 1.287-.033.198-.066.198-.825.297-.677.083-.677.083-.743-.297-.033-.23-.313-.643-.577-.825-.231-.165-.726-.165-1.073.016-.38.198-.891.941-.891 1.32 0 .199-.1.248-.66.314-.28.033-.726.1-.974.132-.495.066-.561.05-.561-.148 0-.231-.165-.627-.33-.809-.347-.363-.842-.511-1.271-.363-.512.165-1.221.94-1.37 1.469a1.025 1.025 0 0 1-.099.247c-.033.033-1.27.199-2.31.314l-.347.033-.099-.396c-.38-1.502-1.485-1.848-2.36-.76-.347.43-.512.776-.594 1.222-.033.198-.083.38-.083.38-.033.033-1.27.23-1.617.247l-.346.017-.083-.413c-.1-.495-.264-.809-.545-1.04-.264-.214-.511-.264-.94-.198-.446.066-.727.215-1.007.528-.33.364-.495.743-.528 1.205-.017.215-.05.396-.066.413-.033.033-1.32.247-1.601.28-.149.017-.182 0-.215-.148-.148-.627-.198-.76-.346-.957-.28-.38-.594-.578-.94-.578-.843 0-1.503.76-1.52 1.733 0 .297-.032.445-.082.478-.066.033-2.376.446-2.525.446-.033 0-.082-.099-.099-.215-.198-1.105-.742-1.749-1.436-1.666-.38.05-.66.198-.973.528-.38.38-.578.825-.578 1.303 0 .215.017.446.033.512.033.1.017.132-.082.149-1.8.363-1.667.363-1.849-.1-.181-.445-.314-.594-.71-.857-.71-.463-1.534-.397-2.013.148-.38.43-.545 1.188-.33 1.436.115.115.115.115-.578.247-.28.05-.627.116-.759.149a8.321 8.321 0 0 1-.61.115c-.628.116-.99.446-.99.941 0 .1.065.446.115.743.066.297.148.66.165.776.016.132.082.429.132.66.214 1.056.28 1.485.313 2.178l.05.743.23.214c.298.264.595.33 1.272.231.247-.033.627-.066.841-.082.347-.017.38 0 .364.099 0 .066-.034.396-.083.759a8.901 8.901 0 0 1-.116.875c-.033.132-.066.429-.082.66-.017.23-.05.495-.066.577-.017.083-.083.628-.132 1.222-.066.594-.149 1.403-.198 1.799a266.53 266.53 0 0 0-.297 2.69 114.295 114.295 0 0 1-.38 3.565c-.033.23-.082.693-.115 1.023-.033.313-.116 1.056-.165 1.65-.066.594-.132 1.32-.149 1.617-.016.298-.082.776-.115 1.073-.033.28-.1.726-.116.99a31.44 31.44 0 0 1-.115 1.222c-.05.412-.116 1.188-.182 1.733-.05.544-.116 1.188-.149 1.452-.066.561-.214 2.046-.264 2.608-.033.363-.198 1.997-.396 4.093-.05.462-.132 1.171-.181 1.584-.165 1.436-.116 1.848.264 1.93.363.083 1.023.1 1.436.034.577-.083 1.171-.149 2.855-.33.742-.083 1.535-.165 1.733-.198.214-.033.511-.066.66-.083.165-.016.429-.033.577-.066.166-.016.793-.082 1.387-.148.61-.066 1.485-.149 1.947-.199.462-.049 1.387-.148 2.063-.23a80.428 80.428 0 0 1 1.832-.199c.33-.033.924-.099 1.304-.148.38-.05 1.32-.149 2.096-.231.759-.083 1.815-.198 2.343-.264s1.255-.132 1.618-.182c.363-.033.841-.082 1.04-.115.214-.033.858-.1 1.452-.165 2.74-.28 3.862-.413 3.977-.43.116-.016.908-.115 2.806-.313.528-.066 1.733-.198 2.574-.297.231-.033 1.14-.132 2.03-.231.892-.1 1.915-.215 2.261-.264.347-.05 1.023-.116 1.486-.182.462-.05.924-.099 1.023-.115.099-.017.429-.066.759-.083a103.86 103.86 0 0 0 1.535-.181c.528-.066 1.42-.182 1.997-.231 1.667-.182 2.525-.28 2.954-.347.231-.033.677-.082 1.023-.115.33-.034.99-.116 1.453-.182.462-.066 1.089-.132 1.386-.165 1.023-.099 3.218-.347 3.333-.38.067-.016.33-.033.578-.066.61-.05.858-.115 1.073-.297.148-.132.181-.181.181-.412 0-.363-.165-1.007-.61-2.476a37.182 37.182 0 0 0-.297-.99c-.083-.248-.248-.825-.38-1.254-.132-.43-.28-.958-.346-1.156-.066-.214-.182-.61-.265-.89-.082-.298-.214-.71-.264-.925a35.714 35.714 0 0 0-.38-1.221c-.131-.446-.296-.941-.33-1.106-.115-.43-.33-1.139-.758-2.525-.396-1.254-.446-1.42-.66-2.212-.067-.23-.149-.462-.182-.495-.033-.033-.05-.099-.05-.148 0-.066-.05-.28-.115-.462a29.21 29.21 0 0 1-.297-.974c-.1-.33-.297-1.007-.446-1.485a35.107 35.107 0 0 1-.396-1.337c-.198-.677-.594-2.014-.776-2.608-.082-.297-.23-.775-.313-1.073-.165-.577-.396-1.37-.792-2.64-.132-.413-.264-.875-.314-1.023-.148-.545-1.205-3.763-1.403-4.291-.099-.297-.181-.561-.148-.594.016-.017.264-.1.528-.165.825-.198 1.37-.446 1.6-.71.33-.38.33-.61 0-2.426-.082-.462-.18-1.007-.214-1.205-.033-.198-.082-.478-.099-.61a9.317 9.317 0 0 1-.115-.677c-.264-1.717-.462-1.948-1.585-1.832-.297.033-.71.05-.94.066h-.413l-.115-.347c-.133-.412-.48-.825-.81-.973-.23-.066-.725-.083-1.039.033Zm.76 1.122c.065.099.115.198.115.231s-.149.082-.33.099c-.182.017-.446.05-.578.066-.214.016-.247.016-.231-.066.017-.05.132-.182.264-.297.33-.248.594-.264.76-.033ZM50.5 8.62c.149.066.347.396.28.479-.049.05-.758.148-1.006.165-.148 0-.148 0-.082-.182.082-.214.412-.511.56-.511.05 0 .166.016.248.049Zm-4.44.594c.1.116.15.43.083.462-.115.066-.759.132-.759.083 0-.116.198-.363.363-.495.198-.149.215-.149.314-.05Zm12.477.71c.05.28.133.792.199 1.139.131.808.214 1.27.429 2.178.264 1.106.28 1.287.148 1.353-.165.083-1.386.396-1.964.495-.28.05-.776.132-1.072.199-.298.066-1.156.214-1.882.346-.726.132-1.469.264-1.617.297-.611.116-1.783.297-1.931.297-.1 0-.198.033-.215.066-.016.033-.066.05-.082.033-.033-.033-.462.033-1.98.248-1.14.181-2.41.33-4.87.577-.296.033-.726.083-.957.116-.214.033-.66.082-.99.115-1.27.133-2.013.232-3.07.38-.61.082-1.303.182-1.567.198-.248.033-1.189.132-2.096.231-.892.1-1.816.198-2.063.231-.231.033-.627.066-.875.083-.231.016-.743.066-1.106.115-.841.1-2.162.248-2.69.297-.214.017-.71.083-1.072.116-.364.05-.925.115-1.255.132l-1.42.148a308.12 308.12 0 0 1-3.976.38c-.974.082-1.931.165-3.268.314-.43.049-.908.082-1.073.082-.165 0-.512.017-.76.066-.379.05-2.54.248-3.234.314l-.165.016-.198-1.023c-.115-.561-.214-1.155-.248-1.337-.033-.181-.082-.429-.115-.577-.099-.512-.231-1.304-.231-1.387 0-.148.132-.181 2.723-.742 1.386-.298 1.337-.298 1.337-.165 0 .197-.116.56-.314.957-.33.676-.33.924.05.924.148 0 .23-.05.396-.231.247-.297.726-1.238.776-1.535.066-.396 0-.363 1.089-.545.759-.132 1.766-.297 2.046-.346.479-.083.495-.083.446.115-.017.1-.132.446-.28.776-.265.66-.265.842-.017 1.007.313.198.544-.033 1.122-1.139.149-.297.297-.644.33-.776.033-.148.083-.247.165-.28.116-.05 2.806-.512 3.714-.644.197-.016.396-.05.429-.066.247-.033.016.792-.545 1.997-.231.512-.248.644-.1.792.183.182.348.149.645-.181.511-.545 1.122-1.8 1.237-2.575a.663.663 0 0 1 .066-.248c.017-.016.495-.098 1.09-.197.577-.1 1.204-.199 1.353-.232.528-.099 1.37-.181 1.42-.132.016.017-.034.397-.116.826-.264 1.237-.264 1.254-.083 1.37.149.098.165.098.314-.017.165-.132.38-.627.742-1.733.132-.446.232-.66.314-.677.05-.016.347-.066.644-.099.297-.033.56-.082.577-.082.017-.017.347-.066.726-.116.38-.05.727-.099.776-.099.083-.016.495-.082.858-.132.165-.016.182 0 .182.116 0 .132-.413 1.452-.627 1.997-.149.396-.149.511.016.676.231.231.462.198.76-.099.197-.198.296-.412.56-1.122.182-.479.38-1.056.446-1.287.066-.231.132-.43.132-.446.017-.016.248-.05.528-.082.61-.083.512-.066 2.46-.314.89-.115 1.567-.181 1.584-.148.066.066-.165.775-.462 1.419-.231.511-.231.693 0 .858.148.116.165.116.313.017.182-.116.66-1.024.94-1.8.1-.28.215-.544.248-.594.066-.082.611-.181 2.014-.346.396-.05.891-.116 1.105-.149.512-.082.694-.082.694.017 0 .149-.347 1.122-.528 1.469-.281.544-.199.891.181.891s.974-1.04 1.386-2.443c.033-.132.083-.148.529-.214 1.617-.231 2.97-.363 3.036-.314.05.05-.132.727-.478 1.634-.231.644-.215.842.066.94.28.1.429-.032.775-.775.413-.874.528-1.172.627-1.6l.083-.347.314-.033c.313-.033.973-.1 2.277-.215.347-.033.743-.066.891-.082.215-.033.248-.017.248.082 0 .165-.28.908-.693 1.8-.198.428-.347.84-.347.907 0 .066.066.181.149.247.396.314.693.05 1.27-1.122.231-.479.512-1.122.611-1.42.099-.296.198-.56.198-.577.05-.05.809-.115 1.27-.099h.463l.115.545ZM41.21 9.694c.115.132.247.544.181.61-.033.033-.28.066-.544.1l-.496.032.033-.165c.033-.181.512-.66.644-.66.066 0 .132.033.182.083Zm-5.81.808c.116.248.149.528.066.578-.066.033-1.006.165-1.04.132-.115-.116.66-1.073.793-.99.033.016.115.148.181.28Zm-5.05.545c.05.066.116.198.132.314.017.115.05.247.066.297.017.066-.016.115-.115.165-.182.066-1.139.198-1.172.148-.05-.05.099-.445.231-.643.116-.165.512-.38.677-.38.066 0 .148.05.181.099Zm-5 .974c.05.099.082.28.082.396v.23l-.38.067c-.214.033-.429.082-.511.082h-.132l.148-.313c.182-.363.479-.693.611-.66.066.016.132.099.182.198Zm-5.595.792c.132.247.198.743.115.792-.082.066-1.089.231-1.138.198-.017-.016.066-.214.198-.446.148-.28.297-.478.429-.577.115-.083.23-.149.247-.149.05 0 .1.083.149.182Zm-4.968.957c.248.116.479.43.479.627 0 .149 0 .149-.446.149-.247 0-.56.033-.71.066-.131.033-.263.033-.28.016-.05-.05.347-.841.446-.89.132-.083.28-.083.511.032Zm42.365 2.674c.05.33.396 1.469 1.188 4.027.165.528.396 1.254.512 1.617.116.363.248.776.28.924.083.231.842 2.839 1.8 6.123.197.71.445 1.502.528 1.766.33 1.09.445 1.485.627 2.112.066.198.181.578.264.875.082.28.214.71.28.924.066.215.33 1.106.594 1.964.496 1.65.842 2.79.925 3.07.066.231.594 2.03.841 2.839.1.346.215.693.215.759.016.066.115.38.198.693.099.313.264.858.363 1.188.1.33.198.677.231.76.248.709.413 1.353.363 1.386-.05.033-.462.099-1.502.198-.132.016-.412.05-.643.082-.363.05-1.354.165-4.027.43-1.238.131-1.832.197-2.261.263-.215.033-.76.1-1.255.149a81.452 81.452 0 0 0-1.88.214c-.05 0-.512.05-1.04.116-.529.066-1.189.132-1.486.165-.28.017-1.09.115-1.766.198-.676.082-1.617.182-2.096.231-1.007.1-1.75.198-2.26.264-.215.033-.859.116-1.453.182-.594.066-1.287.148-1.568.181-.28.033-.528.066-.578.066-.05 0-.247.017-.429.05-.858.115-2.937.363-3.07.346-.065 0-.247.017-.412.05-.148.033-.43.066-.61.082-.182.017-.628.066-.99.116-.364.033-.974.115-1.37.148-.38.033-.826.083-.99.116-.314.066-1.602.215-2.229.264-.214.017-.528.066-.726.083-.198.032-.627.082-.974.115-.346.033-.775.083-.957.116-.181.033-.71.099-1.172.148-.462.05-1.105.132-1.419.182-.314.033-.858.115-1.221.148-.347.033-.925.1-1.271.149-.347.05-1.122.132-1.716.198-.595.066-1.667.198-2.41.297-.726.099-1.6.198-1.914.23-.314.034-.76.083-.99.116-.529.083-2.146.264-3.285.38-.495.05-1.27.149-1.716.198-.446.066-.957.132-1.155.149l-.33.032.032-.313c.017-.182.05-.33.067-.33.016-.017.61-.116 1.336-.215.726-.099 1.717-.247 2.195-.346.479-.083 1.024-.182 1.221-.215.974-.148 1.255-.214 1.32-.313.067-.083.067-.132.017-.231-.082-.165-.165-.198-.412-.198-.28 0-2.146.264-2.905.412-1.287.248-2.707.479-2.74.446-.016-.017-.016-.132.017-.248.033-.198.05-.214.182-.181.181.033 1.98-.264 2.194-.363.232-.116.265-.364.05-.495-.115-.066-.214-.083-.43-.066-.148.016-.395.049-.527.066-.149.016-.512.082-.809.148-.297.066-.561.099-.577.082-.017-.016.082-1.006.214-2.211.132-1.205.28-2.541.33-2.97.033-.43.1-.892.116-1.04.016-.149.05-.529.082-.842.033-.314.1-.908.132-1.304.05-.396.116-.99.149-1.304.033-.313.099-.957.148-1.402l.182-1.65c.05-.446.132-1.321.198-1.932.297-2.772.528-5.083.545-5.363.016-.182.066-.677.115-1.106.05-.43.132-1.188.181-1.683.05-.496.133-1.271.182-1.717.05-.446.116-1.139.149-1.535.033-.396.082-.875.099-1.073.016-.198.082-.957.148-1.683l.132-1.337 1.188-.132c2.261-.23 2.988-.313 3.631-.396.347-.05.825-.099 1.04-.115.875-.083 1.023-.1 1.881-.182.495-.05 1.271-.132 1.717-.181.445-.05 1.32-.132 1.947-.198.627-.067 1.32-.149 1.535-.182.396-.05 1.27-.148 2.954-.33.446-.05 1.205-.116 1.684-.182 2.195-.23 4.423-.478 4.588-.511.066-.017.693-.1 1.386-.182.71-.082 1.881-.23 2.608-.313.742-.1 1.501-.198 1.716-.198.214-.017.544-.05.759-.083.215-.033 1.122-.132 2.03-.23a95.955 95.955 0 0 0 3.053-.348c.198-.032.76-.098 1.271-.165.512-.066.974-.132 1.023-.148.05-.017.248-.033.43-.066.197-.017.643-.083 1.023-.149.363-.066.924-.148 1.22-.198.298-.05.66-.115.81-.132.148-.033.726-.132 1.303-.23a26.68 26.68 0 0 0 1.255-.232c.462-.082.544-.066.577.116Z"/><path fill="#1C1E29" d="M28.667 17.385c-.594.066-1.287.132-1.535.165s-.94.115-1.502.181c-1.204.149-1.42.215-1.42.43 0 .247.15.28 1.206.28.528 0 1.04-.017 1.139-.033.099-.017.627-.05 1.155-.083 1.056-.066 2.294-.198 2.657-.297.33-.082.462-.445.23-.643-.148-.149-.494-.149-1.93 0ZM21.67 18.078c-.446.033-.611.116-.611.33 0 .248.23.33.792.297.643-.033.875-.115.924-.313.017-.116 0-.182-.099-.248-.116-.132-.231-.132-1.007-.066ZM18.913 18.276c-.016.016-.528.05-1.155.082-.627.033-1.65.132-2.294.215-.643.082-1.337.148-1.568.181-.643.066-.841.132-.841.281 0 .264.132.297 1.04.297.907 0 2.393-.099 3.779-.231.462-.05.99-.099 1.155-.115.446-.05.677-.133.76-.248.164-.297 0-.462-.496-.462-.181-.017-.363-.017-.38 0ZM56.443 17.814c-.115.148.017.825.545 2.69.61 2.146.759 2.492 1.072 2.492.149 0 .297-.181.297-.363 0-.412-.726-2.74-1.353-4.324-.214-.545-.396-.693-.561-.495ZM53.983 20.7c-.214.034-.71.1-1.072.15-.363.049-.958.131-1.304.165-.347.049-1.056.131-1.568.197-.512.067-2.178.248-3.713.413-1.535.165-2.987.314-3.252.347-.264.033-.742.082-1.072.115-.33.033-1.04.116-1.568.182-.528.066-1.716.198-2.64.297-.925.099-2.097.23-2.608.297-.512.066-1.387.165-1.948.23a43.4 43.4 0 0 0-1.386.183c-.215.032-.825.115-1.37.181-.544.066-1.6.198-2.343.297-.743.1-1.898.231-2.558.314-.66.082-1.37.165-1.601.198-.33.05-1.502.181-3.714.445-.775.1-1.617.215-1.7.231-.148.05-.296.198-.264.264.017.033-.016.116-.099.198-.132.149-.181.33-.412 1.931-.165 1.189-.149 1.123-.248 1.882-.082.66-.198 1.42-.313 2.211-.033.198-.066.462-.083.61-.016.15-.066.463-.115.727-.05.248-.116.743-.165 1.106-.05.346-.132.891-.182 1.221-.148.94-.61 4.126-.71 4.753-.049.314-.115.726-.132.891-.033.182-.082.545-.115.809-.033.28-.1.825-.165 1.221-.066.396-.215 1.453-.347 2.327a60.74 60.74 0 0 1-.264 1.684c-.016.05-.066.412-.115.808-.05.396-.116.974-.182 1.271-.115.776-.115 1.073.033 1.221.1.1.165.116.33.083.149-.033.215-.017.28.066.083.116.199.116 1.387-.017.446-.05 1.304-.132 1.915-.198 1.072-.099 1.947-.198 5.594-.577.941-.1 2.344-.248 3.103-.33.76-.083 1.7-.182 2.096-.231a70.54 70.54 0 0 1 1.551-.182c.462-.05.941-.099 1.04-.115.215-.033 1.832-.199 3.185-.347.957-.099 2.13-.231 2.839-.314.511-.066 1.551-.181 2.904-.313 1.453-.149 2.344-.248 3.367-.38.561-.066 1.37-.148 1.8-.198 1.039-.115 3.25-.363 3.68-.429.197-.033.61-.066.924-.082.313-.017.627-.05.66-.066.05-.017.594-.083 1.221-.149.627-.066 1.452-.148 1.849-.198.396-.05.957-.116 1.254-.132.297-.033.94-.116 1.452-.182.512-.066 1.403-.165 1.997-.23.594-.067 1.27-.15 1.502-.182.23-.033.561-.066.726-.066.43 0 .743-.165.858-.446.083-.214.083-.264-.099-.957a22.231 22.231 0 0 0-.61-1.997c-.1-.28-.628-1.997-.76-2.442-.066-.232-.214-.727-.313-1.106-.116-.38-.264-.875-.33-1.106-.066-.231-.182-.61-.248-.842-.082-.23-.346-1.171-.61-2.063-.264-.89-.529-1.815-.611-2.062-.198-.66-.28-.925-.61-2.063-.166-.578-.38-1.288-.463-1.601-.181-.628-.544-1.898-.676-2.377-.05-.181-.133-.479-.199-.66a23.166 23.166 0 0 1-.23-.776 9.097 9.097 0 0 0-.182-.577c-.017-.083-.1-.314-.149-.528a33.817 33.817 0 0 0-.478-1.568c-.017-.05-.033-.132-.05-.182-.016-.181-.23-.841-.297-.99a.8.8 0 0 0-.148-.215c-.1-.082-.694-.115-1.156-.05Zm.71.81c.033.082.149.445.264.825.116.38.33 1.105.479 1.6.346 1.156.495 1.668.495 1.75 0 .066-.182.099-.743.116-1.073.066-1.37.082-2.046.148-.33.033-.892.083-1.238.116-.347.033-.693.066-.76.082-.115.033-.131 0-.197-.214a5.447 5.447 0 0 0-.182-.562 10.938 10.938 0 0 1-.23-.759 65.363 65.363 0 0 0-.76-2.376 2.136 2.136 0 0 1-.099-.33c.017 0 .94-.116 2.046-.231 1.123-.116 2.179-.231 2.344-.248.544-.05.578-.05.627.083Zm-5.496.66c0 .115.165.775.347 1.336.033.1.099.347.181.578.066.215.231.776.364 1.221.132.446.247.859.247.892 0 .082-.743.198-2.69.412-.28.033-.809.1-1.188.132-.38.05-.76.1-.858.1-.182 0-.166.032-.281-.644-.083-.495-.149-.81-.314-1.684-.198-.99-.33-1.914-.313-1.947.033-.033 1.073-.182 2.277-.33a39.149 39.149 0 0 0 1.568-.198c.594-.066.66-.05.66.132Zm-5.132.726c.016.132.066.363.082.511.033.149.083.397.116.545.033.149.082.446.115.644s.149.742.231 1.238c.198 1.04.215 1.105.083 1.105-.066 0-.28.033-.512.066-.214.033-.974.116-1.65.198-.677.083-1.403.165-1.601.198-.413.066-.891.083-.891.017-.017-.182-.314-2.773-.43-3.63-.049-.413-.065-.579-.016-.595a26.526 26.526 0 0 1 1.568-.215c.71-.082 2.327-.28 2.377-.297.033-.016.148-.016.28-.016.198 0 .198 0 .248.23Zm-5.116.891c.016.248.115 1.188.214 2.063.1.875.182 1.617.182 1.667 0 .082-.396.148-2.096.33-.727.082-1.618.181-1.997.231-.38.033-.825.1-.958.1l-.28.016-.033-.232c-.017-.131-.033-.66-.033-1.188 0-.528-.017-.974-.033-.99-.017-.017-.033-.446-.033-.957l-.017-.924.198-.033c.215-.05.364-.066 1.271-.149.594-.066.842-.099 2.179-.264.742-.099 1.04-.132 1.254-.116.132-.016.132 0 .182.446Zm-5.694 1.37c0 .677.016 1.667.016 2.178.017.825 0 .941-.082.974-.1.033-.776.116-3.251.413-.644.082-1.205.132-1.238.115-.017-.016-.033-.066-.017-.099.017-.033.083-1.006.149-2.145.066-1.156.132-2.113.148-2.13.05-.049.462-.098 1.997-.263.71-.066 2.08-.231 2.228-.248.017-.016.033.545.05 1.205Zm-5.034-.083a39.034 39.034 0 0 0-.132 1.667c-.033.61-.066 1.337-.082 1.618-.017.297-.05.544-.083.577-.033.033-.495.1-1.023.165-.545.066-1.304.149-1.7.198-1.205.149-1.485.182-1.518.149-.017-.017.016-.512.066-1.073.115-1.172.181-1.848.23-2.789l.034-.644.957-.099c1.964-.198 2.872-.297 2.888-.313.017-.017.116-.017.231-.017h.215l-.083.561Zm-4.918.413c-.016.248-.066.76-.099 1.155-.099 1.172-.231 2.591-.264 2.773-.033.181-.082.198-.891.28-.33.033-.644.083-.693.083-.05.016-.479.066-.958.115-.478.05-1.188.133-1.567.182-.38.033-.71.082-.71.066-.017-.016.116-.858.231-1.7.116-.693.247-1.6.33-2.294.033-.28.083-.511.116-.544.016-.034.148-.067.264-.083 2.195-.248 2.871-.33 3.35-.396.314-.05.66-.083.743-.083h.165l-.017.446Zm32.727.974c.148.033.181.082.28.363.066.181.149.462.198.643.066.182.297.941.529 1.717.23.759.462 1.568.528 1.799.066.214.181.61.247.841.083.231.149.496.165.561.033.116 0 .116-.825.182-.479.033-1.188.099-1.617.149-1.667.198-2.426.264-2.476.23a2.993 2.993 0 0 1-.198-.527c-.082-.281-.23-.76-.33-1.09-.099-.313-.248-.825-.346-1.139-.545-1.798-.875-2.888-.875-2.97 0-.05.033-.1.082-.1.215-.016 2.707-.346 2.822-.379.05-.016.364-.066.71-.115.33-.05.66-.116.726-.149.149-.066.149-.066.38-.016Zm-5.034 1.947c.413 1.37.495 1.617.61 2.03.05.165.1.33.116.363.017.033.1.28.182.528.066.248.214.743.313 1.073.1.33.166.61.149.627-.017.017-.495.083-1.056.132-.561.066-1.568.165-2.228.231-2.839.297-2.558.28-2.608.149a8.136 8.136 0 0 1-.099-.644 39.643 39.643 0 0 0-.181-1.304c-.066-.429-.149-.94-.182-1.138-.033-.198-.082-.545-.115-.776a47.63 47.63 0 0 0-.182-1.139c-.066-.396-.116-.726-.099-.742.017-.033 1.716-.232 2.608-.33 1.485-.15 1.782-.182 1.848-.199.05-.016.198-.016.347-.016l.247.016.33 1.14Zm-6.073-.545c.05.017.099.1.099.182 0 .082.066.545.148 1.056.363 2.228.43 2.674.463 2.97.016.183.066.546.115.81.05.264.083.56.083.676v.182l-.562.066c-.313.033-.99.115-1.518.181-1.7.198-3.202.363-3.218.33-.017-.016-.05-.462-.116-1.749-.082-1.436-.148-2.541-.198-2.921-.082-.627-.082-1.205-.016-1.238.033-.016.578-.099 1.205-.148 1.089-.116 3.4-.38 3.416-.397.016-.032.05-.032.099 0Zm-5.463.941c.017.182.05.594.066.924.017.33.066.99.1 1.453.032.462.065 1.106.082 1.419.016.314.05.842.082 1.155.033.314.05.594.033.61-.016.017-.181.067-.363.083-.99.116-1.42.166-3.086.347-1.007.115-1.914.215-2.014.231-.099.017-.197.017-.214-.016-.033-.033-.115-4.209-.132-5.463v-.495l.495-.066c.28-.033.76-.1 1.073-.132 2.74-.314 3.499-.396 3.647-.396.182.033.198.05.231.346Zm-6.14.776c.05.99.05 5.545 0 5.578-.032.017-.791.116-1.7.215-.907.099-1.93.214-2.277.264-.346.05-.726.099-.841.099-.297.016-.297.148-.066-2.97l.148-1.932c.05-.627.083-1.155.1-1.172.016-.016.527-.082 1.154-.148 1.964-.215 2.228-.231 2.575-.28.198-.034.462-.05.627-.067h.264l.017.413Zm-5.412.578c0 .23-.017.693-.066 1.04-.033.33-.083 1.122-.116 1.732-.116 2.212-.165 2.822-.231 2.872-.017.016-.842.115-1.799.23-.974.116-2.013.232-2.294.281-.297.033-.544.05-.578.033-.016-.016.05-.61.149-1.303.182-1.271.33-2.443.396-3.037.017-.182.083-.66.132-1.073l.1-.759.461-.05a51.417 51.417 0 0 0 1.882-.214c.775-.083 1.535-.165 1.7-.165h.28v.412h-.016Zm-5.067.28c-.017.1-.082.594-.116 1.09-.115 1.171-.115 1.204-.23 1.947-.05.346-.15 1.139-.232 1.733-.082.61-.148 1.138-.165 1.171-.016.033-.132.083-.247.1-.363.065-3.202.428-3.78.511a18.32 18.32 0 0 0-.742.099c-.1.017-.198.017-.198-.017 0-.016.033-.297.082-.594.1-.66.28-1.848.462-3.25.083-.562.182-1.288.215-1.618.05-.33.099-.644.099-.71 0-.082.132-.099.677-.165.363-.033.89-.099 1.171-.132l1.255-.148c.412-.05.89-.116 1.04-.132.164-.034.395-.05.51-.067.216 0 .232 0 .199.182Zm35.532 3.3c.1.298.215.71.28.925.067.215.183.61.265.891.528 1.766.94 3.169.974 3.35 0 .033-.083.066-.198.083-.231.017-1.684.198-3.252.396-1.452.182-1.402.198-1.485-.083-.033-.115-.148-.495-.247-.825-.1-.33-.215-.71-.248-.841-.099-.297-.396-1.304-.528-1.733-.05-.198-.165-.578-.264-.875-.297-.924-.363-1.188-.33-1.221.05-.033.23-.066.94-.132 1.832-.182 3.73-.413 3.796-.495.066-.083.149.066.297.56Zm-5.512.843c.198.627.43 1.37.66 2.112.033.149.248.825.462 1.502.215.676.38 1.287.38 1.337 0 .132-.148.148-3.053.462-1.205.132-2.294.264-2.41.297-.115.033-.478.066-.808.066l-.611.016-.066-.528c-.033-.297-.116-.792-.165-1.139-.05-.33-.149-.94-.215-1.336-.066-.396-.165-1.057-.23-1.453a17.782 17.782 0 0 1-.133-1.04l-.016-.313 1.04-.132c2.59-.33 4.786-.578 4.868-.561.05.016.182.33.297.71Zm-6.832.214c.016.082.082.495.148.94.066.446.215 1.42.33 2.18.33 2.26.363 2.524.314 2.574-.017.016-.627.115-1.353.198-.71.082-1.684.198-2.146.247-1.188.149-2.31.264-2.36.231-.05-.066-.132-1.155-.347-4.538-.033-.726-.066-1.353-.05-1.353.034-.033.413-.083 1.734-.215.478-.05 1.073-.115 1.304-.132.23-.033.742-.083 1.138-.116.38-.032.727-.082.76-.082.032-.017.148-.017.28-.017.182-.049.215-.016.248.083Zm-6.09.776c.016.148.066.742.099 1.287.082 1.403.115 1.848.181 2.525.033.314.083.875.1 1.238l.032.66-.198.033c-.214.033-2.475.297-2.888.346-.148.017-.693.083-1.221.133-.528.066-1.139.132-1.37.165l-.413.033-.033-.793c-.016-.445-.049-1.815-.049-3.036v-2.228l.61-.066c.941-.116 1.733-.198 2.03-.215.545-.033 1.519-.148 1.981-.198.264-.033.578-.066.71-.082.132-.017.28-.017.33-.033.033-.033.066.033.099.23Zm-6.585.676c.016 1.156.066 3.879.082 4.72.017.727.017 1.057-.033 1.09-.066.033-2.954.396-3.762.462-.232.016-.727.082-1.073.115-.347.05-.644.066-.677.033-.05-.05.017-1.7.198-4.77.05-.742.1-1.37.1-1.37.016-.016.412-.065.89-.115.479-.05 1.073-.115 1.337-.148.248-.033.875-.1 1.37-.149.495-.05.974-.099 1.073-.115.511-.017.495-.017.495.247Zm-5.859.66c0 .248-.066 1.403-.149 2.344-.016.182-.049.858-.082 1.502-.033.66-.082 1.37-.099 1.6-.033.413-.033.413-.215.446-.247.033-.643.1-.973.116-.264.016-1.98.214-2.872.313-.247.033-.66.083-.891.1l-.43.032.034-.247c.016-.132.05-.297.066-.347.016-.05.033-.214.05-.346.28-2.146.725-5.282.742-5.298.033-.033 4.142-.462 4.522-.479h.28v.264h.017Zm-5.677 1.255a77.29 77.29 0 0 1-.182 1.27c-.148.974-.412 2.757-.495 3.285-.115.809-.082.759-.511.809-1.14.115-3.334.379-3.4.412-.033.017-.314.05-.594.066l-.528.033.032-.165c.017-.099.083-.561.149-1.04.066-.478.182-1.303.264-1.832.28-1.898.33-2.244.396-2.772.083-.644.066-.627.809-.677.264-.016.561-.05.66-.066.099-.016.545-.05.99-.099.446-.033 1.172-.099 1.618-.132.445-.033.841-.05.858-.016.05.016.016.38-.066.924Zm38.321 1.584c.033.1.1.314.149.512.05.198.198.726.33 1.188.132.462.28.99.33 1.188.05.198.198.677.313 1.073.116.413.232.76.232.792 0 .1-2.096.347-4.027.512-.248.016-.512.05-.578.066-.132.033-.099.099-.479-1.023-.33-.958-1.171-3.697-1.171-3.813 0-.033.264-.082.594-.115 2.063-.231 4.06-.479 4.093-.512.066-.066.165 0 .214.132Zm-5.264 1.37c.132.462.28.957.33 1.122.05.149.115.396.148.528.033.132.083.248.1.248.016 0 .032.066.049.132 0 .082.082.363.165.66.23.76.33 1.221.297 1.32-.017.05-.116.083-.231.083-.116 0-.545.033-.94.082-.413.05-1.37.149-2.13.231-1.386.149-3.103.347-3.647.43-.594.082-.561.132-.776-1.024-.165-.89-.594-3.581-.594-3.763 0-.033.215-.099.512-.132.643-.082 2.063-.247 3.63-.445a62.375 62.375 0 0 0 1.766-.231c.297-.033.66-.083.809-.083h.264l.248.842Zm-7.856.198c.016.066.033.198.066.313.033.215.28 1.7.38 2.377.28 1.683.33 2.063.33 2.063-.017 0-2.179.248-3.549.396l-1.617.182c-1.254.148-1.155.165-1.205-.215a228.32 228.32 0 0 1-.346-3.664c-.034-.412-.034-.775-.017-.792.033-.016.61-.115 1.27-.198.677-.082 1.684-.215 2.229-.28 2.525-.314 2.41-.314 2.459-.182Zm-6.552 1.304c.016.33.05.66.066.759.016.082.033.462.05.842.016.363.065.907.099 1.204.032.28.082.727.099.958l.032.445-.198.033c-.115.017-.445.066-.742.083-.792.082-2.096.214-3.252.363-.56.066-1.138.115-1.287.132-.148.016-.429.033-.61.066l-.347.033-.033-1.915c-.017-1.04-.05-2.129-.05-2.393l-.016-.495.809-.099c.445-.05 1.04-.115 1.303-.165.281-.033.71-.082.958-.115l1.139-.149c1.072-.148 1.468-.198 1.716-.198h.23l.034.61Zm-6.965.808c.017.33.033 1.189.05 1.931 0 .727.033 1.535.05 1.766.016.231.016.446 0 .479-.017.016-.875.132-1.898.247-1.915.215-3.17.364-3.763.43-.347.049-.43.016-.363-.149.05-.116.132-1.667.181-3.037.017-.627.05-1.238.066-1.353.033-.248 0-.231 1.073-.33.33-.033.742-.083.891-.116.165-.033.528-.082.809-.115.841-.1 2.013-.231 2.343-.297.182-.017.363-.05.413-.05.099.017.115.116.148.594Zm-6.387.297c.017.034 0 .281-.016.562-.017.28-.083 1.303-.116 2.277-.033.974-.082 1.799-.115 1.816-.017.016-.61.115-1.32.181-.694.083-1.453.165-1.684.198-.528.083-2.541.297-2.723.297-.132 0-.132-.016-.082-.165.033-.082.099-.545.148-1.023.132-1.188.446-3.416.495-3.466.017-.016.66-.132 1.42-.23.759-.1 1.584-.199 1.799-.232.23-.033.775-.099 1.22-.165 1.007-.132.941-.132.974-.05Zm-6.271.892c-.016.23-.198 1.402-.248 1.683-.131.66-.297 2.344-.28 2.591l.033.264-.479.066c-.264.033-1.04.132-1.716.215-2.113.247-2.756.33-2.79.363-.065.033-.065-.05.182-1.634.132-.825.248-1.6.248-1.733.016-.132.066-.495.099-.792.066-.545.082-.561.215-.561.181 0 .264-.017 1.749-.198.627-.083 1.37-.182 1.65-.215.297-.033.66-.082.809-.115.446-.1.545-.083.528.066ZM58.422 24.58c-.032.033-.066.132-.066.214 0 .215.231.941.347 1.057.149.148.363.115.462-.066.083-.132.083-.182-.05-.561-.082-.232-.18-.48-.247-.562-.116-.165-.33-.198-.446-.082ZM59.264 27.503c-.148.148-.148.165.281 1.7.149.527.396 1.468.561 2.095.347 1.304.726 2.476.858 2.624.05.066.165.1.28.1.166 0 .215-.034.282-.182.098-.231.115-.182-.743-3.037-.083-.247-.264-.875-.413-1.386-.528-1.799-.776-2.245-1.105-1.915Z"/></g></svg>