<svg xmlns="http://www.w3.org/2000/svg" viewBox="0 0 115 110"><g fill="none" fill-rule="evenodd" transform="translate(1.583)"><circle cx="56.167" cy="57.251" r="46.704" fill="#F9DDE9" fill-rule="nonzero"/><g stroke="#231F20"><path stroke-linecap="round" stroke-linejoin="round" stroke-width="1.591" d="M51.946 20.43c-.933 4.997 1.446 8.508 3.388 10.738 3.767 4.325 10.107 3.513 13.38-.928 2.583-3.506 3.582-9.723 3.582-9.723-1.885.308-5.218 2.45-10.678 2.45-5.102 0-9.672-2.537-9.672-2.537Z"/><path fill="#000" fill-rule="nonzero" stroke-width=".398" d="M60.175 46.917c16.702-2.015 16.102 27.418.782 27.2-14.245-.202-14.338-25.564-.782-27.2ZM72.19 62.085c.145-1.43-.106-3.062 0-4.516-.587.093-.515 1.573-.63 1.68-2.289-.55-1.18-2.879-1.48-4.505-.13-.71-1.163-1.572-1.587-2.19-.495.035-.92.444-1.438.393-.395-.04-1.581-1.22-1.283.009.49 2.019 2.341-.204 3.008 1.99-1.372.988-1.602 3.02-3.42 3.251-.461.058-.239-.073-.328-.296-.196-.487-.28-1.098-.514-1.594-.147-.312.033-.521-.515-.418-.117.737.377 3.208 1.18 3.343l.916-.403c-.06.611.124 1.368-.043 1.949-.13.452-1.094 1.202-1.27 1.68-.184.496.235 1.56.012 2.313-.109.369-.727.715-.976 1.123-.882 1.448-.326 2.985-2.983 2.292-.118-.084-.802-2.465-.809-2.762-.012-.464.235-.918.21-1.45-.016-.385-.182-2.034-.259-2.28-.252-.809-1.795.201-2.448-.182-.102-.06-1.234-1.89-1.262-2.005-.353-1.46.99-3.712 1.433-5.09 1.038.661 1.686.238 2.81.193l.44.851c1.127-1.384 2.754.937 2.392-1.653-1.558-.139-.992-.312-1.393-1.227-.446-1.02-.94-.103-1.431-.05-.524.057-.846-.484-1.356-.341-.883.248-1.291 1.263-1.99 1.767l-1.802-1.155c.308-1.251-.186-2.293 1.485-2.27.843-2.002 1.082-.647 2.145-.77.204-.024 1.267-.39 1.413-.501.83-.63.092-1.843 2.32-1.356.34-.26-.004-.38-.31-.42-4.022-.51-7.786 2.004-9.805 5.321-.206.337-1.015 1.881-1.01 2.142.01.497.712.708.758 1.037.046.329-.382 1.11-.355 1.686.028.596.598 1.268.56 1.682-.083.875-2.735 2.418-2.016 3.884l1.468-.42c.083.541.167 1.297.446 1.762.288.479.984.651 1.134.967.222.465-.061 1.338.297 1.591.441.301 1.044-.078 1.39-.033.51.068 1.198 1.625 1.357 2.13-.013.504-.652.464-.804.869-.153.404-.043 1.143-.264 1.609.017.122 1.478.955 1.767.93.351-.032.793-.494 1.308-.572.758-.113 1.282.208 1.86.185.67-.026 1.462-.653 2.164-.777.605-.107 1.225.034 1.798-.092.636-.14 1.107-1.033 1.82-.699.185.088.331.444.575.512.885.244 3.116-2.98 3.532-3.757.72-1.342 1.63-3.866 1.782-5.359l.001.002Zm-6.71-10.39c.64-.176 1.062.555 1.58.625.604.083 1.162-.383 1.459-.351.296.031 1.851 2.053 1.94 2.396.325 1.265-.456 3.008.577 4.04 1.318-1.93.546-3.588-.49-5.387-1.112-1.931-4.135-5.136-6.465-5.314-1.026-.078-.732.508-1.179.696-.522.222-1.36.028-1.6.173-.161.096-.238 1.026-.61 1.226-.596.32-2.392.884-2.89.214-.52.86-.551 1.455-1.784 1.257-.165 1.359-.02 1.663 1.336 1.907.384-.63 1.064-1.431 1.813-1.611.521-.126.76.319 1.175.34.592.03.744-.66 1.503-.278.758.382.48 1.792 1.916 1.768l.035 1.856c1.515-.23.974 1.532 1.79 2.313.788.173 1.842-2.2 2.559-2.615l-.49-.707-1.288.349-.37-.163c-.495-.924-1.03-1.67-.518-2.732v-.002Zm-4.397 15.933c2.234.474 1.699-1.076 2.408-2.272.221-.372.778-.628.89-1.006.215-.717-.319-1.368-.136-2.006.172-.599 1.617-1.577 1.434-2.355l-.206-.22c-1.956.268-1.542-3.38-2.324-3.974-1.051-.798-1.604.153-2.183.106-.518-.042-.745-.74-1.054-.775-.441-.052-1.245.549-1.877.173-1.31 1.704-1.92 4.132-.124 5.745.57.29 2.318-1.223 2.615.699.18 1.17-.061 2.61-.023 3.67.025.692.53 1.49.578 2.212l.002.003ZM51.819 55.89l-.633.139c-.403 1.622-.78 3.208-.624 4.9.424-.242 1.341-1.197 1.432-1.628.123-.59-.568-1.068-.573-1.625-.007-.517.562-1.163.399-1.788l-.001.002Zm1.71 11.941c-.352-.54-.101-1.363-.341-1.864-.153-.318-.791-.453-1.043-.847-.326-.507-.16-1.244-.64-1.666-.166.177-.414.318-.488.569-.382 1.287 2.474 6.603 4.056 7.197.625-.352.036-.902.135-1.327.128-.547 1.869-.674-.156-2.192l-1.523.131v-.001Zm4.802 4.862c.864.907 3.307.744 4.492.604.616-.071 3.839-1.104 3.697-1.759-.198-.909-1.698.403-2.038.479-.632.14-1.33-.019-2.006.094-.649.107-1.322.685-1.775.748-.707.098-1.59-.57-2.37-.166Z"/><path fill="#000" fill-rule="nonzero" stroke-width=".398" d="M64.844 67.65c-.036-.488.399-.817.529-1.255.156-.523.04-1.672.656-1.869 1.458-.466 1.348 2.91.179 3.126-.418.077-.93-.041-1.364-.001v-.002Zm1.677-2.52c-.906-.014-.557 1.27-.838 1.89 1.186.08 1.067-1.05.838-1.89Z"/><path stroke-linecap="round" stroke-width=".663" d="M60.262 44.635v.928M62.177 44.495v1.143M64.19 44.707v1.214M65.818 46.486c.25-.422.451-.874.6-1.344M67.899 47.063c.008-.338.135-.674.352-.932M69.338 48.356c.213-.304.468-.58.754-.817M70.677 50.055l.788-.711M71.54 51.706l.778-.513M72.758 53.372c.248-.036.49-.12.707-.245M73.04 55.201h.856M73.61 57.341h.715M73.681 59.77h.785M73.681 61.912h1M73.397 63.754l.713.077M72.897 65.907c.353-.01.706.155.928.43M72.388 67.426c.271.14.52.326.73.546M71.258 69.33c.322.325.607.688.845 1.079M69.906 70.977c.026.356.15.703.351.999M68.549 72.547c-.077.374.03.78.282 1.066M66.544 73.761v.785M64.617 74.475v1.142M62.546 74.903v.927M60.314 74.975l.08 1.07M58.42 74.62l-.067.785M56.558 73.617c-.012.36-.139.717-.359 1.005M54.645 72.7a3.708 3.708 0 0 1-.461.84M52.535 70.941c-.203.296-.47.548-.777.733M51.125 68.906c-.255.067-.522.09-.784.072M50.125 66.967c-.395.01-.789.118-1.133.311M49.412 64.48h-.715M49.198 61.767h-.857M49.125 59.627h-.928M49.124 56.98a2.808 2.808 0 0 1-1.217-.126M49.84 54.91a1.383 1.383 0 0 1-.872-.554M50.76 52.646a3.252 3.252 0 0 1-.92-.658M52.106 50.735a2.467 2.467 0 0 1-.79-.71M53.476 49.28l-.767-1.155M54.76 48.061a2.203 2.203 0 0 0-.197-1.004M56.479 46.849a1.843 1.843 0 0 0-.23-1.132M58.191 46.064v-1M60.259 45.779c.029-.406.008-.814-.065-1.214"/><path stroke-linecap="round" stroke-width="1.591" d="M31.64 54.92c.255 17.791-3.005 32.214-2.75 50.005 20.85-4.73 43.662 7.175 64.566 2.602.504-.111 1.049-.25 1.339-.597.26-.312.248-.714.224-1.087-.97-15.364-7.24-30.954-3.338-46.021M73.172 27.95a349.18 349.18 0 0 1 2.766-9.126M50.414 28.872c-.962-3.543-1.931-7.21-1.393-10.843"/><path stroke-linecap="round" stroke-width="1.591" d="M10.931 53.378C17.845 43.12 29.084 20.43 45.377 18.924c2.245-.209 4.283-1.684 6.476-1.895 1.17-.112 2.374 1.008 3.506 1.485 4.25 1.792 15.884-1.271 16.939-1.058.381.077 1.814.362 2.242.593 3.82 2.05 13.438 8.385 15.448 9.901 5.144 3.884 7.127 6.132 8.578 8.53 4.544 7.505 16.181 39.766 13.719 48.154-4.174.296-8.327.889-12.417 1.769-3.19-8.213-9.907-32.387-10.955-34.638-1.135-2.436-1.678-4.628-3.306-6.89-1.835-2.546-3.582-5.246-5.478-7.76-1.69-2.24-2.87-3.538-4.35-5.998-.71-1.179-1.638-2.21-2.637-3.143-.57 1.108-.974 2.325-1.628 3.39-2.513 4.099-7.201 6.506-12.026 5.696-4.59-.771-7.012-4.441-9.171-8.173-1.255 1.083-2.524 2.126-3.654 3.343-5.382 5.795-8.256 11.246-12.221 17.909-1.67 2.803-3.41 4.988-5.412 7.522-.243.308-1.248 1.8-1.309 1.898L14.448 80.44 0 70.188l10.931-16.809Z"/></g><path fill="#000" fill-rule="nonzero" d="m.625 33.961-.202 1.275 5.749.91.202-1.276zM11.731 22.794l-1.067-.168-.018-1.104-1.142-.842-1.123-.449-.467 1.197.954.374.505.375.019 1.553 1.497.243.299.543.225 1.029 1.273-.262-.262-1.216zM22.171 13.922l-.109-1.67-1.643-.091-.34-.59-.359-1.048-1.221.44.4 1.135.749 1.298 1.198.086.064 1.103 1.13.894 1.144.485.508-1.207-.99-.409zM34.419 5.773l-.524-1.048-.168-.88.037-1.422-1.422-.917-.711 1.067.805.542-.019.842.262 1.198.412.842-.169 1.235.786 1.104 1.067-.748-.506-.693zM56.64 1.385l.449-.674L56.004 0l-.917 1.422.748 1.067-.617.954.449 1.123-.449.992.299 1.273 1.254-.3-.187-.842.487-1.104-.412-.992.748-1.141zM98.476 18.061l-.46.996-.68.1-1.512.034-.634 1.627 1.22.475.306-.828.696-.018 1.491-.184.579-1.3.549-.33.957-.078-.091-1.279-1.264.079zM107.35 34.141l-1.482.318-.538 1.292-.782-.033-.059 1.3 1.7.057.617-1.496.754-.157 1.225-.191 1.081-.53-.56-1.151-.91.444zM76.206 1.249l-1.148 5.706 1.266.255 1.148-5.706zM88.432 10.834l.09-.709 1.285-.97-.673-1.42.331-.611.645-.878-1.022-.771-.719.936-.685 1.287.504 1.077-.87.65-.192 1.403.153 1.207 1.274-.158z"/></g></svg>