<svg xmlns="http://www.w3.org/2000/svg" viewBox="0 0 74 64"><g fill="none" fill-rule="evenodd" transform="translate(.5)"><circle cx="35" cy="33" r="31" fill="#F0BC00" fill-rule="nonzero"/><path fill="#000" fill-rule="nonzero" d="M52.267 9.448c-.336 0-.673-.117-.907-.394-.395-.454-.38-1.156.044-1.858.424-.716 1.053-1.301 1.8-1.74-.22-.863-.703-1.667-1.405-2.223-1.316-1.024-3.29-1.097-4.68-.16l-.468-.703c1.682-1.126 4.066-1.053 5.66.19.819.63 1.39 1.536 1.667 2.516a6.21 6.21 0 0 1 2.34-.41c1.682.03 3.422.658 5.177 1.887l-.483.687C59.39 6.114 57.81 5.53 56.303 5.5a5.334 5.334 0 0 0-2.164.41c.073.701 0 1.418-.234 2.076-.205.57-.483.965-.863 1.214-.22.175-.482.248-.775.248Zm1.068-3.07c-.498.336-.907.76-1.2 1.257-.175.307-.292.702-.131.877.117.132.395.132.585.015.22-.131.38-.395.526-.79.147-.438.234-.906.22-1.36ZM67.725 49.592c-2.12-2.486-3.32-5.147-3.451-7.677-.132-2.516.892-4.943 2.588-6.42a3.139 3.139 0 0 1-.204-.38c-.41-.922-.351-2.092.175-3.203 1.082-2.326 3.788-3.671 6.289-3.16l-.176.834c-2.091-.438-4.445.746-5.352 2.691-.41.892-.483 1.814-.161 2.516.03.073.073.131.102.204.22-.146.439-.263.673-.365.322-.161.819-.351 1.33-.264.542.103 1.083.6 1.025 1.214-.044.483-.44.892-1.01 1.053-.73.205-1.52 0-2.135-.512-1.52 1.302-2.427 3.481-2.31 5.748.131 2.34 1.243 4.826 3.246 7.18l-.629.541Zm.425-13.995c.35.22.775.336 1.17.22.219-.06.38-.206.394-.322.015-.117-.16-.278-.336-.308-.22-.043-.468.015-.819.19a2.783 2.783 0 0 0-.41.22ZM14.113 11.027c-1.8 0-3.35-.746-4.402-1.433-1.843-1.214-3.32-2.955-4.27-5.06l.774-.351c.878 1.96 2.253 3.583 3.964 4.709 1.155.76 2.954 1.579 4.987 1.199 1.594-.307 3.056-1.404 3.802-2.793-.088-.03-.161-.059-.249-.088-.6-.234-1.023-.63-1.228-1.112-.278-.643-.117-1.433.38-1.886a1.418 1.418 0 0 1 2.179.351c.307.512.337 1.243.117 2.047 1.082-.044 2.252-.614 3.057-1.594 1.067-1.301 1.462-3.217.965-4.753L24.993 0c.57 1.799.132 4.036-1.126 5.557-1.038 1.273-2.603 1.974-4.022 1.901-.833 1.726-2.588 3.1-4.518 3.466a6.92 6.92 0 0 1-1.214.103Zm4.694-6.333a.484.484 0 0 0-.35.147c-.25.234-.293.672-.176.936.117.277.38.497.775.658l.263.087c0-.014 0-.014.015-.029.19-.629.19-1.17 0-1.506a.63.63 0 0 0-.44-.293h-.087ZM.102 52.809 0 51.975a11.349 11.349 0 0 0 6.128-2.822c1.067-.965 1.784-2.018 2.135-3.1.41-1.243.278-2.574-.322-3.54a3.203 3.203 0 0 0-1.375-1.199c-.146.293-.321.57-.54.82-.366.423-.732.687-1.156.774-.585.132-1.2-.117-1.462-.6a1.145 1.145 0 0 1-.015-1.023c.234-.483.775-.892 1.36-1.024a3.464 3.464 0 0 1 1.287-.014 3.466 3.466 0 0 0-.059-1.93c-.365-1.098-1.345-1.96-2.471-2.209l.175-.819c1.404.307 2.618 1.39 3.086 2.764.263.79.278 1.653.059 2.442.716.307 1.36.849 1.784 1.536.73 1.17.892 2.764.41 4.24-.396 1.23-1.2 2.4-2.37 3.467C4.87 51.434 2.53 52.502.102 52.809Zm5.309-11.743c-.16 0-.322.014-.483.043-.321.074-.658.308-.775.556-.058.132-.029.205 0 .264.073.146.307.219.527.175.22-.059.453-.22.702-.497.131-.161.248-.337.35-.512-.102-.03-.204-.03-.321-.03Z"/><path fill="#1C1E29" d="M35.157 4.68c-.687-.132-1.053-.088-1.843.263-.775.35-2.998 1.726-4.021 2.5-.278.22-.614.454-.717.542l-.483.35c-.146.118-.497.38-.76.571a66.553 66.553 0 0 0-1.682 1.302c-.307.263-2.617 2.15-3.188 2.603-1.301 1.038-1.535 1.243-1.784 1.447-.146.132-.249.25-.249.264.015.014-.014.029-.043.014-.059-.014-1.185.907-3.218 2.662-.205.175-.497.424-.673.57-.16.147-.438.38-.614.527-.175.146-.468.41-.658.57a95.886 95.886 0 0 0-2.281 2.106 136.39 136.39 0 0 1-1.726 1.58c-.614.526-1.609 1.491-1.93 1.915-.278.351-.79 1.185-.849 1.375-.131.41.308.731 1.039.76.22 0 .6.015.833.015.249 0 .468.015.498.015.029.014.073.087.087.175.015.088.103.22.205.307.088.073.234.249.307.366.132.19.527.673.804.98.074.073.103.175.088.307-.014.102.015.775.044 1.492.205 4.46.278 7.823.234 11.114-.014 1.068.015 2.12.059 2.223.014.03-.147.643-.337 1.33a51.237 51.237 0 0 0-1.228 5.558c-.044.248-.044.424 0 .512.073.131.073.131-.117.263-.454.336-1.99 2.12-3.144 3.656-.132.176-.366.483-.512.673-.673.848-1.302 1.755-1.346 1.9a.387.387 0 0 0 .337.498c.175.03 1.842.03 3.115 0 .292 0 1.213-.03 2.062-.044.833-.014 2.676-.058 4.095-.087 1.418-.03 3.436-.074 4.49-.103 1.052-.014 2.383-.044 2.939-.058.555-.015 2.062-.059 3.32-.073 4.884-.117 7.56-.176 7.823-.19.147-.015 1.287-.03 2.516-.059 1.228-.03 2.471-.059 2.764-.073.278-.015 1.038-.03 1.681-.044.644-.015 1.2-.044 1.244-.058a.2.2 0 0 1 .131 0c.073.029 5.206-.103 5.514-.132.073-.015.321-.015.54-.015.22 0 .44 0 .483-.029.03-.015.073-.015.059 0 0 .015.263.015.6.015.321-.015 2.193-.059 4.138-.103 1.945-.044 4.022-.102 4.636-.117.6-.014 1.857-.044 2.779-.058 2.427-.044 2.72-.059 3.085-.088.176-.015.454-.044.585-.044.337-.03.614-.146.658-.278.044-.175-.014-.336-.278-.687-.219-.293-.482-.614-1.593-1.93-.19-.22-.527-.63-.761-.907a56.56 56.56 0 0 0-2.238-2.516c-.307-.321-.307-.321-.365-.79-.132-1.008-.366-2.442-.453-2.807-.059-.205-.19-.746-.293-1.2-.292-1.213-.526-2.15-.702-2.72-.146-.468-.16-.643-.19-2.208-.044-1.857-.132-4.05-.16-4.533-.03-.307-.103-2.399-.191-4.973a74.898 74.898 0 0 0-.073-1.696c-.044-.541-.044-.731-.088-1.477l-.03-.746.176-.131c.088-.074.264-.278.38-.454.19-.292.805-1.14.995-1.36.044-.058.146-.088.249-.073.219.015.687-.058.863-.146a.43.43 0 0 0 .204-.19c.044-.073.176-.19.307-.278.176-.117.234-.19.293-.366.073-.248 0-.482-.205-.585-.19-.102-.6-.439-1.228-1.024-.79-.716-1.141-1.023-2.618-2.208-.366-.292-.98-.79-1.36-1.126a134.647 134.647 0 0 0-2.238-1.813c-.117-.088-.263-.176-.307-.176-.044 0-.073-.029-.058-.044.014-.029-.351-.365-.82-.76-.467-.395-.906-.775-.994-.848a6.423 6.423 0 0 0-.585-.454c-.014-.014-.087-.073-.146-.131-.117-.117-1.462-1.17-2.004-1.565-.38-.278-1.11-.834-2.032-1.55a88.708 88.708 0 0 0-2.954-2.12c-.176-.118-.644-.44-1.039-.703a61.12 61.12 0 0 0-2.091-1.36 20.554 20.554 0 0 0-.863-.497c-.35-.19-.848-.483-1.111-.629-.264-.146-.6-.336-.746-.41a67.31 67.31 0 0 1-1.14-.614c-.995-.585-1.36-.745-1.902-.862Zm.907 1.301c.54.278.848.439 1.682.921.087.044.307.176.497.278 1.58.863 3.217 1.93 6.537 4.285a80.142 80.142 0 0 1 2.925 2.194c.234.175.336.263 1.462 1.126 1.01.775 2.34 1.843 2.954 2.37.176.145.556.467.848.701.293.249.615.497.702.585.395.336 1.975 1.58 2.019 1.594.029.015.058.03.058.044.015.044-.073-.03 2.413 1.93 1.243.98 2.428 2.018 2.34 2.062a.752.752 0 0 1-.234.03c-.19 0-1.711.058-3.846.146-.658.03-1.316.058-1.477.058-.161 0-1.083.044-2.048.073-.965.03-2.164.074-2.69.088-.512.015-1.288.044-1.726.059-.424.014-.892.029-1.024.029s-.921.03-1.74.059c-.834.029-1.784.058-2.12.073-1.507.044-3.7.117-4.505.146-.497.014-1.55.058-2.37.088-.818.029-2.193.073-3.056.102-.877.03-2.413.088-3.407.117-1.01.03-2.574.088-3.495.117-.907.03-2.443.088-3.408.117-2.457.073-4.182.132-6.902.249-1.302.058-2.633.102-2.954.117-1.054.043-2.355.117-3.262.175-.482.03-.892.059-.892.03-.03-.06.424-.688.863-1.17.424-.483.834-.878 1.623-1.536.249-.205.702-.614 1.01-.892.307-.278.687-.614.862-.76.161-.147.585-.513.921-.834 1.156-1.068 1.434-1.302 2.852-2.516.278-.234.805-.672 1.156-.965 2.032-1.726 2.69-2.281 4.328-3.598a69.94 69.94 0 0 1 1.419-1.14c.044-.03.307-.249.6-.483l1.594-1.272a.477.477 0 0 1 .117-.088c.014-.014.19-.146.38-.292.497-.395 2.135-1.624 2.588-1.96.22-.16.41-.307.41-.336.014-.03.029-.044.058-.044.015 0 .19-.103.395-.249.878-.643 3.042-1.96 3.525-2.135.658-.263.994-.22 2.018.307Zm22.434 19.626a9.66 9.66 0 0 0-.468.673l-.176.292h-.468c-.263 0-.614 0-.775.015-1.872.102-3.188.102-3.54 0-.204-.059-1.154-1.2-1.038-1.243.03 0 .308-.015.615-.03.307-.014 1.14-.029 1.842-.058.702-.03 1.39-.044 1.521-.044.132 0 .805-.014 1.507-.044.687-.014 1.257-.014 1.257 0 0 .044-.131.234-.277.439Zm-.805 2.091c-.014.264 0 .483.03.497.014.015.029.044 0 .074-.03.014-.03.175-.015.35.014.176.044 1.039.073 1.946.03.906.058 1.886.073 2.179.015.292.015.848.015 1.228s.014 1.024.029 1.419c.058 1.272.131 3.32.175 5.001.03.907.059 1.711.074 1.784 0 .088.014.161.014.161 0 .015-.146-.015-.307-.044-.16-.029-.614-.044-1.01-.029-.394.015-.803.015-.92.015h-.322c-.059.014-.336 0-.614 0a10.889 10.889 0 0 0-.98 0c-.483.029-.57 0-.527-.147.044-.131.073-.92.059-1.345 0-.205-.015-.848-.03-1.419-.014-.57-.014-1.14-.014-1.287v-.702c.044-1.842-.176-8.774-.307-10.032-.015-.102.014-.102.833-.044.249.015.82 0 1.287-.014 1.404-.088 2.296-.117 2.34-.088.03.015.044.234.044.497Zm-6.274-2.091c.117.132.278.336.366.453.088.117.322.424.526.688.322.394.38.482.351.643 0 .088.015.731.044 1.404.03.673.073 1.594.073 2.033.015.439.044 1.243.059 1.77.058 1.564.131 4.504.117 5.323 0 .424-.015 1.053 0 1.404v1.17c-.03.79 0 1.696.058 1.813.03.073.015.19-.073.424-.22.541-.658 2.37-1.243 5.133-.044.19-.102.57-.146.834a9.669 9.669 0 0 1-.205.936l-.117.453-.292.015c-.161 0-.307 0-.307-.03-.015-.029-.044-.263-.074-.54a7.247 7.247 0 0 0-.073-.586c-.014-.044-.043-.278-.073-.512a28.957 28.957 0 0 0-.54-2.617c-.089-.38-.235-.95-.308-1.258a31.124 31.124 0 0 0-.351-1.316c-.234-.79-.234-.775-.292-3.188-.015-.497-.044-1.229-.059-1.609-.015-.38-.044-1.111-.059-1.609-.117-2.954-.16-4.387-.204-5.557a39.888 39.888 0 0 0-.088-1.945 49.235 49.235 0 0 1-.102-1.799c0-.248 0-.263.16-.395.088-.073.264-.277.38-.453.41-.614.864-1.228.937-1.258.044-.014.22-.029.395-.029.19 0 .438 0 .57-.014.292-.059.336-.044.57.219Zm-2.866.366c-.205.277-.38.555-.395.614-.015.058-.058.102-.088.102-.35 0-1.228.03-2.106.073-1.17.059-2.471.059-2.676 0-.146-.044-.994-1.038-.921-1.082.03-.014.76-.044 1.623-.073 1.638-.044 4.168-.132 4.65-.146.147-.015.279 0 .279 0s-.161.234-.366.512Zm-.629 1.696c0 .205 0 .424-.014.497 0 .088.014.146.043.161.03.015.03.03 0 .059-.029.014-.029.394-.014.833.058 1.419.117 3.13.131 4.446.015.702.059 2.077.088 3.027.044.965.088 2.37.117 3.144.03.76.059 1.682.073 2.019.015.336.015.628.015.643 0 .015-.117.015-.263-.015-.132-.014-.63-.029-1.097-.014-.468.014-1.2.014-1.638.014-.439 0-.98 0-1.2.015-.482.03-.497.03-.453-.088.044-.16.073-.804.059-1.316-.015-.278-.015-.687-.015-.907 0-.219 0-.848-.014-1.389-.015-.541-.015-1.39-.015-1.887 0-.497 0-1.228-.015-1.623-.014-.395-.029-1.287-.044-1.974-.014-.687-.029-1.419-.044-1.609-.014-.19-.014-.555-.029-.804 0-.41-.131-2.588-.175-3.203-.015-.146 0-.263.029-.263.03-.015.293 0 .6.03.585.029 1.301.014 2.208-.06.556-.043 1.55-.102 1.609-.087.044-.015.058.146.058.351Zm-6.157-1.74c.117.131.249.292.293.365.044.073.248.351.453.6.336.424.366.483.366.702-.015.131.014.629.029 1.097.015.468.058 1.345.073 1.93.015.585.044 1.419.073 1.828.088 1.653.146 5.104.117 7.108-.014 1.9 0 2.793.044 2.954.015.044-.132.629-.322 1.316-.19.673-.424 1.594-.511 2.018-.088.424-.25 1.214-.366 1.755a22.35 22.35 0 0 0-.263 1.404c-.03.248-.088.556-.132.702-.044.146-.117.365-.146.468l-.059.204-.731.015c-.41 0-.746-.015-.76-.03a4.58 4.58 0 0 1-.088-.628c-.161-1.272-.22-1.565-.834-4.036-.35-1.419-.497-1.96-.614-2.296-.03-.088-.088-1.112-.117-2.296-.03-1.185-.073-2.267-.073-2.413-.015-.146-.044-.834-.073-1.507-.03-.687-.059-1.842-.103-2.574-.029-.745-.073-1.93-.087-2.661-.03-.731-.059-1.682-.088-2.135-.03-.454-.059-.936-.073-1.082-.015-.147-.015-.395-.015-.541 0-.278 0-.278.176-.425a2.07 2.07 0 0 0 .38-.453c.307-.468 1.038-1.492 1.097-1.52.058-.03 1.96-.118 2.076-.089.044-.014.161.088.278.22Zm-3.729.54c-.249.352-.483.703-.512.761-.044.088-.102.117-.395.103-.321 0-.687.029-2.325.131-.643.044-2.003.044-2.15 0-.146-.044-.95-1.009-1.096-1.301l-.074-.161h.41c.234 0 1.243-.044 2.237-.073 3.379-.117 4.344-.147 4.358-.117 0 0-.19.307-.453.658Zm-.731 1.887c0 .76 0 1.053.058 2.852.044 1.01.088 2.413.103 3.115.029 1.214.058 2.325.204 6.142.074 1.974.088 2.691.074 2.735-.015.03-.074.03-.147 0-.146-.044-.614-.044-1.52-.015-.293.015-.746.015-1.01.015-.263 0-.804 0-1.199.015-.395.014-.731 0-.746-.03-.014-.029 0-.248.015-.482.03-.249.03-.644.03-.892-.015-.688-.045-2.428-.03-2.881v-1.302c-.015-.497-.015-1.228-.015-1.623-.014-1.01-.088-4.051-.131-4.987-.03-.439-.044-.878-.044-.995 0-.116-.015-.35-.03-.511-.014-.161-.029-.351-.029-.44 0-.072-.014-.262-.029-.438-.044-.556-.088-.526.556-.497.307.015 1.023 0 1.565-.044 1.228-.088 2.237-.146 2.281-.146.03.015.044.205.044.41Zm-6.45-2.208c-.029.073.117.307.41.643.702.863 1.024 1.287 1.01 1.36-.016.044-.016.278 0 .527.145 2.764.32 8.98.306 10.193V41.357c-.014.878 0 1.77.044 1.872.03.073-.058.439-.322 1.419-.468 1.667-1.053 4.372-1.199 5.498-.03.205-.058.395-.088.41-.058.044-.745.059-.804.015-.03-.015-.102-.44-.175-.922a20.534 20.534 0 0 0-.205-1.287c-.044-.219-.146-.614-.19-.877-.263-1.17-.892-3.598-.995-3.817-.029-.059-.058-.41-.073-.79 0-.38-.015-.76-.015-.848 0-.088-.029-.804-.043-1.58-.03-.79-.044-1.491-.059-1.579-.014-.088-.03-.702-.044-1.345-.014-.644-.044-1.229-.044-1.287a3.835 3.835 0 0 1-.029-.541c-.014-.234-.03-.805-.044-1.258-.014-.453-.044-1.52-.073-2.354-.03-.834-.058-1.682-.088-1.858-.029-.336-.058-.687-.087-1.535l-.015-.439.175-.146c.103-.073.264-.278.38-.454.381-.6 1.04-1.491 1.112-1.535.088-.044.936-.088 1.112-.044.014-.015.044.03.044.073Zm-2.135 0c-.014.03-.16.234-.336.468-.175.234-.395.57-.497.731l-.176.307h-.292c-.161 0-.76.044-1.331.088-1.346.117-2.72.146-3.056.088-.235-.044-.278-.073-.527-.366a6.16 6.16 0 0 1-.673-.877l-.131-.22.175-.014c.088-.015.57-.03 1.068-.044 2.266-.073 4.445-.16 5.045-.176.731-.029.746-.029.731.015Zm-1.184 2.632v.512c.014.03.014.088 0 .146-.015.088.058 2.34.117 3.379.014.336.029 1.097.044 1.681.014.98.087 3.189.131 4.125.059 1.126.147 3.758.147 4.036 0 .175.014.439.014.6.015.16 0 .292-.014.307-.03.014-.117 0-.22-.03-.175-.058-.658-.058-1.857-.014-.307.014-.79.014-1.068 0-.278-.015-.716 0-.98.029-.263.03-.482.03-.497.015-.014-.015 0-.234.015-.483.03-.453.03-1.082 0-3.056 0-.483-.015-1.112 0-1.39.03-1.96-.176-8.818-.307-10.032-.015-.102.058-.117.79-.073.248.014 1.023-.03 1.725-.088 1.623-.131 1.872-.146 1.916-.117.03 0 .044.205.044.453Zm-6.435-2.208c.015.117.102.263.293.468.146.161.277.307.292.337.015.043.483.628.76.95.059.073.088.16.074.205-.015.058-.015.482.014.95.03.468.059 1.536.103 2.384.029.848.058 1.74.073 1.99.087 1.827.131 5.352.087 7.384-.014 1.039.015 2.252.044 2.355.015.03-.131.629-.336 1.33-.19.703-.439 1.668-.541 2.165-.468 2.223-.556 2.676-.6 3.056-.073.673-.029.63-.702.644-.321.015-.614 0-.643-.03-.03-.014-.088-.292-.117-.584-.176-1.492-.804-4.3-1.346-6.099-.16-.526-.19-.701-.204-1.491-.03-1.097-.205-5.894-.234-6.406-.015-.248-.073-1.813-.088-2.632-.03-1.14-.088-2.398-.175-3.905-.059-1.199-.059-1.433.014-1.404.059.015.424-.395.585-.672.073-.117.263-.41.453-.673l.337-.468.863-.03c.482-.014.892-.029.921-.014.03.015.058.102.073.19Zm-2.866.088c-.073.102-.234.336-.366.512a2.68 2.68 0 0 0-.278.453c-.029.117-.073.132-.204.117-.088 0-.498.015-.907.059-.41.029-.907.073-1.097.087-.19.015-.497.044-.658.059-.41.044-1.843.044-2.018 0-.249-.073-1.229-1.273-1.082-1.316.029-.015.497-.03 1.038-.044 1.799-.03 2.091-.044 3.831-.103.966-.029 1.77-.044 1.8-.044.043.044.029.088-.06.22Zm-.892 2.135c0 .41.014 1.01.102 4.227.03 1.052.073 2.442.088 3.114.014.659.044 1.477.058 1.828.015.337.044 1.01.059 1.478.014.468.058 1.535.087 2.369.03.833.059 1.565.044 1.638-.014.131-.014.146-.219.087-.19-.058-1.097-.073-1.652-.014-.132.014-.498.014-.805.014-1.126-.014-1.301 0-1.594.03-.16.014-.307.029-.336.029-.03-.015-.03-.234-.015-.497.03-.41.03-1.141 0-3.569 0-.234 0-1.009-.014-1.725 0-2.72-.161-7.678-.278-8.848-.015-.132 0-.263.014-.278.03-.015.278-.015.57 0 .293.015.966-.03 1.478-.073 1.447-.132 2.266-.205 2.325-.19.073-.015.088.16.088.38Zm41.05 14.332c0 .073.263 1.214.336 1.535.015.044.117.63.25 1.302.116.658.262 1.39.306 1.609.19.95.395 2.223.366 2.252-.03.014-.278.03-.57.044-.585.029-6.932.219-7.137.219-.117 0-.117 0-.044-.146.322-.57.716-2.18 1.038-4.227.059-.424.147-.906.176-1.096.058-.351.102-.732.19-1.36l.044-.366.131-.015c.073 0 .278 0 .454.03 1.023.117 3.041.117 3.349.014.058-.03.73-.03.906-.014.103 0 .19.087.205.219Zm-9.725.468c.058.263.146.629.175.819.03.19.088.38.117.424.03.044.044.117.03.16-.015.045.014.25.073.483.044.22.16.82.263 1.36.102.527.22 1.156.263 1.39.146.643.351 1.916.307 1.916-.16.029-7.575.204-7.59.175-.044-.073.074-.658.205-1.082.234-.746.468-2.018.775-4.037.073-.467.146-1.009.19-1.213.03-.205.059-.483.073-.614.015-.293.073-.322.556-.264.922.117 2.12.132 3.159.015.526-.044 1.038-.059 1.243 0 .015-.015.088.205.16.468Zm-10.544 1.067c.088.454.19.863.22.922.028.058.043.146.043.175 0 .03.088.556.205 1.17.482 2.442.643 3.451.585 3.495a.35.35 0 0 1-.132.03c-.044 0-1.184.014-2.56.044-2.324.043-4.006.087-4.518.087-.249 0-.293-.044-.19-.22.117-.19.482-1.827.643-2.924.03-.205.147-.95.264-1.667.117-.731.219-1.448.219-1.594l.014-.278.176-.015c.102-.014.41 0 .687.03.936.073 1.99.058 2.852-.03.512-.058 1.01-.058 1.229 0 .073-.044.16.234.263.775ZM60.56 51.2c.204.248.57.701.804.994.234.292.482.6.54.687.074.088.132.161.118.176-.015.014-.556.029-1.228.044-.673.014-2.253.058-3.525.087-1.258.03-2.822.059-3.451.088-1.229.03-7.722.176-9.799.234-.687.015-1.652.03-2.135.044-.482 0-1.053.015-1.258.03-.204 0-1.345.028-2.544.058a87.52 87.52 0 0 0-2.545.058c-.204.015-.41.015-.453.015H34.6c-.219.014-1.082.014-1.93.044-.834.014-1.799.029-2.135.044-.337.014-1.258.029-2.062.044-1.609.029-3.1.058-7.122.16-1.507.044-3.452.088-4.33.103-.877.014-2.003.044-2.485.044-.483.014-1.302.029-1.814.043-1.652.03-2.866.074-2.895.088-.059.044-.307-.029-.293-.073.015-.044.6-.819.936-1.243.117-.146.424-.497.688-.79l.482-.526.278.044c.16.029.395.044.526.044.278-.015 1.507-.015 2.004-.015.175 0 .41-.015.512-.044.102-.03.22-.03.248-.015.03.015.585.015 1.244 0 .658-.014 1.564-.029 2.003-.029.439 0 .95-.014 1.155-.029.19 0 1.36-.044 2.604-.073 1.243-.03 2.28-.059 2.34-.073.043-.015 1.242-.044 2.661-.088s4.431-.117 6.698-.19c7.43-.22 7.883-.234 16.057-.424.849-.015 1.99-.044 2.574-.059.57-.014 1.945-.044 3.057-.058 1.097-.03 2.252-.044 2.545-.044.292 0 .628 0 .76-.015.117 0 .263 0 .292.015.03.014.22 0 .425-.03.394-.058.336-.087.935.63Zm2.178 2.676c.088.146 1.448 1.74 1.492 1.755.03.014.03.044.03.073-.015.044-.293.073-.644.073-1.126.014-13.761.38-13.864.41-.058.014-.132.014-.16.014-.06-.015-6.655.146-14.8.366-2.472.073-4.52.146-4.534.16-.015.015-.044.03-.073 0-.015-.014-1.155-.014-2.516.03-1.374.044-2.617.073-2.764.073-.146 0-.424 0-.614.014-.175.015-.775.03-1.316.044-1.082.03-9.418.278-12.387.366-1.023.03-2.208.073-2.647.088-.438.014-.804.014-.819 0 0-.015.19-.293.454-.63.263-.32.687-.877.95-1.213.263-.35.512-.629.556-.629.044-.014.336-.014.658 0 .585.015 5.28-.088 5.777-.117.146-.014.877-.029 1.637-.044.746-.014 1.536-.029 1.74-.044.206 0 1.2-.029 2.224-.043 1.009-.015 2.047-.044 2.296-.044.248-.015 1.316-.03 2.383-.044 2.413-.044 5.63-.117 8.102-.176 1.039-.029 2.486-.058 3.188-.073.702-.014 1.302-.044 1.317-.058a.044.044 0 0 1 .058 0c.015.014.76.014 1.638 0 .877-.015 2.282-.059 3.13-.059.833-.014 1.58-.029 1.638-.044.058 0 .643-.014 1.286-.029 2.37-.044 3.92-.073 4.944-.088.57-.014 1.55-.029 2.164-.029.614-.014 1.316-.03 1.55-.03.468-.014 3.29-.072 3.802-.072.176 0 .556 0 .834-.015.278 0 1.053-.03 1.74-.044.673-.014 1.273-.029 1.316-.044.074-.044.161 0 .235.103Zm-34.352-8.877c.102.468.234 1.14.307 1.491.059.351.205 1.024.293 1.521.204 1.039.468 2.56.468 2.603 0 .015-.76.044-1.682.059-.922.015-1.99.044-2.37.044-.38 0-1.199.03-1.813.03-.614.014-1.214.014-1.33.028-.22.015-.308-.029-.235-.131.073-.088.454-1.726.556-2.413.059-.322.132-.746.161-.95.132-.79.424-2.706.453-2.999l.015-.16.41.029c.233.014.555.043.745.058.57.03 1.93 0 2.56-.073.555-.059 1.009-.073 1.199-.03.044.015.146.322.263.893Zm-10.208-.044c.19.834.19.892.249 1.126.044.205.439 2.281.54 2.793.25 1.273.337 1.93.264 1.945-.088.03-.54.044-1.609.073-.424.015-.819.03-.848.044-.044.015-.073.015-.073 0 0-.014-.453-.014-1.024.015-.57.014-1.447.044-1.945.058-.497.015-1.082.044-1.287.059-.204.015-.438.03-.497.015-.073 0-.16.029-.205.058-.117.102-.219.015-.102-.102.102-.103.614-1.93.717-2.56.029-.219.102-.585.131-.804.088-.483.498-3.188.527-3.407.014-.19-.015-.19.76-.103.746.073 2.282.059 3.027-.044.556-.073.893-.073 1.127-.014.029.014.131.321.248.848Z"/><path fill="#1C1E29" d="M43.932 12.05c-.029.014-.058.073-.073.131-.044.161.102.307 1.316 1.36a81.884 81.884 0 0 0 4.812 3.788c.76.556 1.053.629 1.14.336.073-.248-.044-.365-1.36-1.374-.204-.161-.643-.498-.95-.732-.307-.234-.907-.701-1.316-1.009a103.7 103.7 0 0 1-1.507-1.155c-1.491-1.126-1.93-1.418-2.062-1.345ZM35.742 11.48c-1.067-.16-2.061-.014-2.968.469-1.77.936-2.72 2.808-2.413 4.782.19 1.199.994 2.413 2.033 3.056.687.424 1.798.732 2.647.732.453 0 1.155-.132 1.579-.278.644-.249 1.433-.776 1.813-1.2.498-.54.892-1.316 1.068-2.062.468-1.945-.453-4.036-2.164-4.972-.308-.175-1.2-.468-1.595-.526Zm1.448 1.098c.615.438 1.01.877 1.317 1.506.482.965.555 2.106.19 3.07-.644 1.697-2.048 2.692-3.861 2.75-.483.015-1.39-.248-1.828-.526a4.164 4.164 0 0 1-1.916-2.837c-.175-.995.088-2.12.702-2.97.775-1.081 2.12-1.74 3.495-1.695.176 0 .468.073.863.204.556.176.673.234 1.038.498Z"/><path fill="#1C1E29" d="M35.026 13.22c-.541-.015-1.184.204-1.71.599-.425.307-.688.643-.878 1.185-.293.79-.249 1.447.146 2.193.497.922 1.316 1.433 2.369 1.492.497.015.79-.044 1.272-.278.688-.336 1.082-.775 1.36-1.52.19-.527.22-.85.117-1.478-.087-.482-.424-1.111-.745-1.404-.483-.424-1.317-.76-1.93-.79ZM52.107 18.484c-.117.058-.132.19-.044.336.088.16.585.57.731.614.103.03.293-.029.322-.102.03-.117-.088-.307-.35-.527-.322-.292-.527-.395-.659-.321ZM54.403 20.429c-.22.117-.146.278.307.717.732.687 2.253 1.828 2.56 1.93a.31.31 0 0 0 .365-.453c-.073-.117-.54-.483-1.14-.878-.863-.57-1.375-.936-1.492-1.038-.249-.22-.497-.337-.6-.278ZM56.904 28.05c-.117.043-.147.072-.176.277-.117.717-.014 3.408.146 3.715.088.175.337.248.41.131.03-.044.073-.087.102-.073.088.03.088-.175.059-1.228-.059-1.36-.117-2.296-.176-2.53-.058-.249-.19-.351-.365-.293ZM56.933 33.388c-.117.117-.146.25-.102.644.03.263.058.38.131.439.132.102.117.102.234.029.059-.03.117-.132.147-.22.073-.233.029-.745-.059-.848-.117-.117-.263-.131-.35-.044ZM57.065 35.653c-.103.03-.205.351-.22.717-.014.38.074 3.071.103 3.217a.427.427 0 0 0 .131.161c.132.073.293.03.395-.146.073-.117.088-.775.059-1.448-.03-.526-.22-2.31-.264-2.398-.029-.103-.102-.132-.204-.103ZM47.076 28.093c-.146.073-.161.248-.161 1.418 0 1.14.117 2.545.205 2.75.117.263.395.248.468-.03.102-.336-.117-3.758-.249-4.021-.073-.161-.117-.19-.263-.117ZM47.237 33.27c-.146.058-.205.219-.248.599-.044.483-.03.643.117.717.204.117.292.043.394-.322.117-.424.117-.688-.014-.863-.117-.16-.132-.176-.249-.132ZM47.252 35.887c-.117.058-.19.41-.205.892 0 .57.073 1.857.132 2.033.058.19.204.263.365.19.176-.088.19-.263.132-1.258-.088-1.682-.161-2.003-.424-1.857ZM36.605 28.737c-.117.088-.234.629-.219 1.126.03 1.404.175 3.305.263 3.408.161.219.454.131.541-.147.044-.146-.029-1.608-.146-3.012-.044-.468-.088-.95-.088-1.097-.014-.19-.044-.263-.131-.293-.073-.014-.176-.014-.22.015ZM36.766 34.265c-.132.073-.161.205-.146.688.014.482.058.6.278.643.146.03.16.015.233-.175.088-.249.088-.849 0-1.024-.087-.146-.233-.19-.365-.132ZM36.752 36.766c-.03.03-.059.088-.088.132-.132.204-.146 2.924 0 3.13.102.16.278.204.38.101.102-.102.205-.453.16-.511-.028-.03-.028-.059 0-.088.089-.088-.014-2.413-.116-2.647-.073-.146-.278-.205-.336-.117ZM26.763 29.512a.268.268 0 0 0-.103.146c-.073.22.161 3.773.264 4.124.073.22.336.234.395.015.014-.044 0-.512-.03-1.024-.029-.512-.073-1.17-.088-1.477-.029-.687-.146-1.667-.204-1.755-.088-.058-.146-.073-.234-.03ZM26.88 34.937c-.117.103-.117.132-.146.644-.03.628.029.819.219.877.132.044.146.03.205-.131.102-.25.175-1.156.102-1.302-.058-.16-.234-.205-.38-.088ZM26.982 37.717c-.117.059-.146.234-.16.717-.015.672.043 1.199.131 1.316.117.16.249.175.351.044.073-.088.088-.176.088-.57-.015-.746-.059-1.302-.117-1.404-.059-.117-.19-.161-.293-.103ZM16.335 29.409c-.131.073-.146.117-.131.585.014.22.029.687.029 1.038.03 1.448.117 2.896.205 3.057.117.233.35.219.424-.03.088-.278.03-2.954-.102-3.802a8.653 8.653 0 0 0-.118-.775c-.043-.102-.19-.132-.307-.073ZM16.686 35.2c-.175.058-.233.263-.204.746.029.424.102.555.292.526.161-.03.234-.19.234-.541.015-.6-.087-.804-.322-.731ZM16.818 37.802c-.175.088-.204.351-.19 1.858.015.643.073.819.307.819.278 0 .308-.264.264-1.711-.03-.907-.103-1.127-.38-.966ZM57.709 43.74c-.088.074-.117.132-.132.322-.059.82.234 3.086.541 4.183.03.102.205.292.307.322.059.014.278-.176.307-.264.015-.058-.088-.862-.234-1.77-.146-.92-.307-1.9-.336-2.178-.102-.629-.234-.804-.453-.614ZM47.822 44.15c-.117.131-.103.482.102 1.74.16 1.024.248 1.345.526 2.164.22.644.395.775.673.541.176-.146.161-.35-.073-1.213-.102-.41-.234-.907-.263-1.112-.088-.54-.41-1.77-.512-1.96-.117-.233-.337-.307-.453-.16ZM37.22 44.912c-.073.073-.088.146-.088.307.015.292.54 3.349.643 3.67.103.337.307.454.527.308a.608.608 0 0 0 .19-.205c.088-.307-.556-3.334-.82-3.92-.101-.204-.32-.292-.452-.16ZM57.46 51.038c-1.975.073-2.34.117-2.428.263-.103.161-.044.293.16.366.22.088.425.102 1.273.088.643 0 2.398-.103 2.662-.147.277-.043.41-.35.204-.511-.131-.103-.365-.117-1.872-.059ZM52.912 51.2c-.22 0-.892-.015-1.492 0-.6.014-1.302.014-1.55.014-.249 0-.731 0-1.068.015-.336.015-1.097.044-1.696.073-3.422.117-3.817.147-3.832.234 0 .044-.029.073-.073.073-.03.015-.058.059-.044.088.03.088.351.146 1.185.19.57.03 2.427.073 2.837.073.088 0 .716 0 1.39-.014.672 0 1.36-.015 1.52-.015.161 0 .337 0 .366.015.131.044 2.852-.044 3.042-.088.336-.088.336-.497-.03-.585a3.207 3.207 0 0 0-.555-.073ZM60.765 54.256c-.366 0-.892.014-1.185.044-.278.029-1.462.073-2.603.102-1.155.03-2.281.073-2.53.088-.234.014-.921.044-1.506.058-.6.03-1.17.059-1.287.059-.117.014-.644.044-1.185.073-1.243.059-2.5.146-2.94.19-.38.044-.526.117-.438.263.102.161 1.872.176 6.07.03 1.228-.044 2.558-.074 2.983-.088 1.696-.015 5.074-.161 5.396-.22.336-.058.366-.453.044-.54-.088-.03-.454-.06-.82-.06ZM27.377 45.35c-.044.03-.087.103-.087.19-.015.279.365 2.72.497 3.189.117.41.438.497.54.16.045-.16-.087-1.038-.38-2.383-.233-1.082-.35-1.316-.57-1.155ZM17.448 45.146c-.132.073-.146.263-.044.833.059.307.132.892.19 1.287.176 1.39.307 2.135.38 2.223a.516.516 0 0 0 .19.117c.132.044.337-.132.337-.278 0-.292-.629-3.86-.717-4.007-.102-.19-.219-.248-.336-.175Z"/></g></svg>