<svg xmlns="http://www.w3.org/2000/svg" width="103" height="80" fill="none"><g clip-path="url(#a)"><circle cx="43.333" cy="42" r="31" fill="#EE8019"/><path fill="#000" d="M91.685 55.888c.035-.944.108-1.879.144-2.82a1.251 1.251 0 0 0-.122-.64 252.472 252.472 0 0 0-2.487-4.271c-.534-.897-1.11-1.772-1.64-2.676-1.144-1.942-2.27-3.895-3.407-5.841-.317-.535-.646-1.06-1.014-1.664l-5.634 3.11c-.476-1.515-.918-2.954-1.666-4.284-.855-1.518-1.928-2.81-3.473-3.673-.913-.54-2-.709-3.036-.472-.296.068-.592.145-.892.199-1.364.25-2.397 1.015-3.28 2.034-.592.687-.95 1.492-1.281 2.314-.565 1.386-.847 2.809-.515 4.296.107.483.316.944.475 1.416a24.246 24.246 0 0 0 1.743 4.045c.703 1.347 1.267 2.73 1.412 4.264a6.5 6.5 0 0 1 .033 1.325l-4.346-4.052.424-36.749-6.873-4.89-50.322 2.26.124.087-.057-.01-2.345 16.73-.398 33.9 21.199 16.937.317-.066 51.405-5.12.346-.035 4.484-5.98L67.775 53.24a6.375 6.375 0 0 0 .317-2.027c.043-1.705-.605-3.22-1.36-4.696-.456-.896-.988-1.753-1.433-2.655-.317-.647-.693-1.317-.793-2.011-.383-2.597.287-4.888 2.265-6.721.515-.473 1.144-.746 1.782-1.01 1.057-.438 2.095-.498 3.17-.015 1.148.52 1.994 1.34 2.682 2.375.803 1.207 1.294 2.546 1.77 3.893.144.414.212.855.317 1.32-.546.315-1.072.605-1.594.905-.805.463-1.609.927-2.41 1.393a.79.79 0 0 0-.419.795c.03.966 0 1.932.026 2.898.017.278.1.548.242.787a213.43 213.43 0 0 0 2.042 3.43c1.103 1.825 2.212 3.648 3.328 5.47.863 1.408 1.759 2.797 2.61 4.212.283.472.348.545.961.222.894-.472 1.799-.927 2.694-1.4 2.432-1.288 4.858-2.586 7.288-3.869a.697.697 0 0 0 .425-.648ZM66.27 53.986l.633.585 11.25 10.493L30.08 70.38 15.98 52.585l45.633-2.946 4.661 4.346h-.004ZM51.03 11.869l-3.845-3.037 4.026-.183 3.846 3.039-4.026.181Zm-2.403.107-3.687.157-3.844-3.027 3.687-.158 3.844 3.028Zm-6.09.274-4.119.184-3.84-3.034 4.12-.186 3.84 3.036Zm-6.52.293-3.902.174-3.84-3.026 3.902-.176 3.84 3.027Zm-6.304.283-3.903.17-3.837-3.028 3.9-.176 3.84 3.034Zm-6.303.283-3.903.175-3.839-3.031 3.95-.178-.019.025 3.81 3.01Zm38.113-.14-.403 35.12-4.812.294-41.198 2.538.415-35.88 45.998-2.072Zm-1.512-1.504-2.55.114-3.848-3.037 2.16-.097 4.238 3.02ZM13.27 10.363l3.838 3.03-2.128.097-4.335-3.012 2.625-.115Zm-5.934.672 1.827.33 4.79 3.326L13.531 51l-4.342.098-4.318 5.72.355-30.727 2.11-15.057ZM5.25 59.405l4.886-6.472 4.028-.093L28.73 71.222l-2.785 3.627-1.085.225L5.25 59.405Zm70.416 10.643L27.973 74.8l2.185-2.848 48.075-5.314-2.567 3.41Zm7.18-29.417c.104-.527.24-1.046.39-1.679l7.617 13.154-.074.11a14.819 14.819 0 0 1-1.512-.404 1.194 1.194 0 0 1-.55-.517c-1.62-2.855-3.23-5.716-4.832-8.582a77.006 77.006 0 0 1-.935-1.69.66.66 0 0 1-.103-.392Zm-.018-1.942-1.508 2.243a1.237 1.237 0 0 1-.72-.219c-.201-.129-.428-.217-.802-.403l3.03-1.62Zm-8.702 4.814a.392.392 0 0 1 .287 0c.364.157.72.326 1.142.52l-1.098.802-1.54-.653c.37-.332.811-.47 1.215-.669h-.006Zm6.802 13.965c-.055.368 0 .752-.103 1.144l-8-13.848.1-.095c.634.315 1.33.472 1.743 1.215.847 1.53 1.792 3.009 2.693 4.507.99 1.635 1.943 3.29 2.982 4.891.463.691.718 1.361.591 2.186h-.006Zm-6.241-12.383 1.036-.672c.51.813 1.003 1.594 1.488 2.38.537.87.54.884 1.445.369 1.3-.738 2.589-1.495 3.88-2.247.122-.071.228-.166.384-.279-.258-1.18-1.005-2.168-1.414-3.345l.926-.491 6.05 11.081c-2.376 1.409-4.911 2.581-7.215 4.163-2.191-3.66-4.37-7.291-6.574-10.96h-.006Zm6.621 13.433c.037-.812.068-1.522.095-2.152 2.385-1.33 4.698-2.612 7-3.913.452-.255.87-.362 1.365-.128.379.178.792.302 1.21.461l-9.67 5.732Z"/><path fill="#000" d="M19.343 46.83a2.468 2.468 0 0 0 1.742.741h.027l34.163-1.905c.653 0 1.28-.256 1.744-.712a2.455 2.455 0 0 0 .736-1.723l.287-24.55a2.455 2.455 0 0 0-.706-1.749 2.49 2.49 0 0 0-1.745-.742h-.026l-34.151 1.732a2.493 2.493 0 0 0-1.743.712 2.46 2.46 0 0 0-.737 1.722l-.295 24.718a2.43 2.43 0 0 0 .704 1.756Zm1.169-26.45c.003-.235.1-.46.268-.625a.905.905 0 0 1 .632-.258h.035l34.145-1.731a.901.901 0 0 1 .62.275.89.89 0 0 1 .249.628l-.287 24.55a.897.897 0 0 1-.272.627.91.91 0 0 1-.638.257h-.027l-34.153 1.891a.904.904 0 0 1-.618-.277.892.892 0 0 1-.249-.626l.295-24.711ZM25.259 56.288l5.788 6.675 2.535-.176 1.236 2.372 6.813-.756 1.13 2.741 21.845-2.374-1.616-3.147 5.465-.507-6.86-7.491-36.336 2.663Zm35.266 3.986 1.633 3.183-18.372 1.997-1.13-2.741-6.932.766-1.223-2.329-2.77.194-3.222-3.719 32.445-2.376 4.207 4.598-4.636.427ZM51.424.754l-1.547.34 1.055 4.742 1.547-.34L51.424.754ZM57.1.88l-.96 4.308 1.547.34.96-4.309L57.1.88ZM63.473 2.265l-3.031 4.458 1.313.88 3.03-4.457-1.312-.88ZM68.285 7.918l-4.242 1.63.57 1.464 4.242-1.63-.57-1.464ZM69.69 14.842l-4.33.478.174 1.564 4.331-.477-.175-1.565ZM65.248 21.407l-.115 1.57 4.945.358.115-1.57-4.945-.358ZM44.94 1.462l-1.424.69 2.09 4.26 1.425-.688-2.09-4.262ZM84.921 61.866l-.943 5.434 1.562.267.943-5.434-1.562-.267ZM89.224 61.054l-1.472.582 1.758 4.391 1.472-.581-1.758-4.392ZM90.153 58.341l-.644 1.438 2.948 1.304.645-1.438-2.949-1.304Z"/><path fill="#000" d="m29.057 27.288 2.846 11.3-1.835-.014-.029 3.56 7.205.06.03-3.561-1.14-.01 2.637-3.962 2.875 4.225-1.262.2.564 3.517 7.03-1.114-.567-3.517-1.601.253 2.269-11.998 2.444.358.523-3.522-8.744-1.281-.523 3.523 2.749.403-1.635 8.65-3.138-4.612-2.017.01-3.166 4.755-2.023-8.035 2.307-.537-.818-3.466-8.166 1.897.816 3.467 2.369-.549Z"/><path fill="#000" d="m53.414 28.45-4.068 1.172.44 1.511 4.069-1.17-.441-1.512ZM50.015 32.748l-.055 1.573 3.413.117.054-1.572-3.412-.117ZM49.786 35.703l-.908 1.29 3.062 2.125.908-1.29-3.062-2.125ZM23.818 30.175l-.622 1.447 3.892 1.649.621-1.448-3.891-1.648ZM26.832 34.328l-3.61.234.102 1.57 3.612-.234-.104-1.57ZM27.57 37.332l-3.89 2.383.831 1.34 3.891-2.384-.831-1.34Z"/></g><defs><clipPath id="a"><path fill="#fff" d="M0 0h102.166v80H0z"/></clipPath></defs></svg>