<svg xmlns="http://www.w3.org/2000/svg" width="80" height="80" fill="none"><circle cx="36.5" cy="45" r="31" fill="#E679A6"/><path fill="#000" d="M34.88 43.142c-.586-.19-1.096.13-1.497.53a1.601 1.601 0 0 0-2.704 1.242c0 .772.47 1.417.98 1.951.26.265.538.51.809.763l.459.425c.156.171.335.32.53.443a.574.574 0 0 0 .181.053.467.467 0 0 0 .47-.184c.437-.572.808-1.207 1.201-1.808.393-.602.72-1.212.661-1.93-.056-.635-.471-1.285-1.09-1.485Zm.028 1.6a1.01 1.01 0 0 0-.017.115c-.114.463-.437.862-.706 1.26-.217.326-.447.65-.661.98-.075-.065-.157-.13-.221-.194l-.718-.664a6.078 6.078 0 0 1-.269-.26 3.759 3.759 0 0 1-.133-.137l-.078-.089a2.829 2.829 0 0 1-.207-.286l-.055-.093a2.61 2.61 0 0 1-.066-.158l-.014-.044a.12.12 0 0 0 0-.019c0-.015 0-.093-.01-.123-.012-.03 0-.074.009-.093.009-.018.034-.11.04-.127a.127.127 0 0 0 .011-.035.903.903 0 0 1 .276-.263c.04-.019.083-.034.125-.052a.124.124 0 0 0 .038-.019.112.112 0 0 0 .039 0h.149s.092.014.105.02c.012.004.087.03.102.032.036.018.072.038.106.06 0 0 .085.073.099.087.02.027.04.055.056.085a.52.52 0 0 0 .54.253.517.517 0 0 0 .195-.078l.03-.03a.517.517 0 0 0 .352-.188c.117-.135.255-.25.407-.343a.423.423 0 0 1 .241-.054h.03c-.04-.037.036.026.061.038-.094-.049.013.016.038.036l.01.008v.008c0 .008.026.043.038.063a.68.68 0 0 0 .041.093v.016c.003.036.008.073.014.109a.34.34 0 0 1 .003.086Z"/><path fill="#000" d="m34.713 44.288-.013-.01h-.036l.049.01Z"/><path fill="#000" d="M34.196 40.675a4.894 4.894 0 0 0-3.748.75 5.106 5.106 0 0 0-2.137 3.215 5.129 5.129 0 0 0 .718 3.799 4.924 4.924 0 0 0 5.108 2.172 4.924 4.924 0 0 0 1.799-.755 5.106 5.106 0 0 0 2.137-3.217 5.128 5.128 0 0 0-.721-3.801 4.904 4.904 0 0 0-3.156-2.163Zm2.802 5.742a3.96 3.96 0 0 1-1.673 2.52 3.836 3.836 0 0 1-2.92.583 3.836 3.836 0 0 1-2.459-1.686 4.023 4.023 0 0 1-.56-2.976 4.005 4.005 0 0 1 1.672-2.52 3.832 3.832 0 0 1 5.38 1.102c.57.878.772 1.949.56 2.977ZM25.806 33.652a.28.28 0 0 1-.052.014c.05-.008.095-.02.052-.014ZM25.684 33.676ZM51.838 10.976a.1.1 0 0 0 .066.015.155.155 0 0 1-.066-.015ZM52.75 11.634c.031.07.045.085.044.074a.372.372 0 0 1-.042-.072l-.002-.002Z"/><path fill="#000" d="M59.567 72.331c-.23-1.28-.517-2.55-.829-3.811a113.224 113.224 0 0 0-1.829-6.458c-.194-.62-.396-1.24-.584-1.862a.786.786 0 0 0-.035-.158c-.55-1.658-1.05-3.336-1.514-5.02a137.54 137.54 0 0 1-.69-2.598c-.224-.88-.41-1.63-.615-2.484-.818-3.399-1.55-6.819-2.323-10.228a245.776 245.776 0 0 0-1.331-5.594.474.474 0 0 0-.074-.157c.056-.521.06-1.054.103-1.575a35.07 35.07 0 0 1 .724-4.711 34.884 34.884 0 0 1 2.036-6.21 33.008 33.008 0 0 1 1.637-3.263.648.648 0 0 0 .044-.094c.313-.448.459-1.029.558-1.558a7.425 7.425 0 0 0 .089-1.835c-.08-1.214-.432-2.48-1.126-3.489-.694-1.01-1.739-1.693-2.976-1.633-1.654.08-3.086 1.3-4.168 2.447-.829.881-1.618 1.807-2.397 2.73a26.205 26.205 0 0 0-1.477 1.901V8.712a4.29 4.29 0 0 0-1.245-3.02 4.242 4.242 0 0 0-3.004-1.254l-21.11-.05a4.082 4.082 0 0 0-2.927 1.292 4.35 4.35 0 0 0-1.29 3.132l.05 6.615-.395-.02c-1.698-.092-3.396-.17-5.092-.254a.446.446 0 0 0-.456.049c-.278.195-.564.378-.855.553l-.218.127-.101.058-.02.01H6.12l-.435.24c-.602.327-1.21.642-1.8.99-1.122.663-2.11 1.495-2.693 2.689-.766 1.575-.626 3.477-.297 5.147.131.662.299 1.318.488 1.966.157.513.278 1.044.657 1.442.06.063.127.12.197.17-1.142 1.451-.879 3.713-.429 5.398.246.933.604 1.832 1.065 2.678.16.3.356.577.584.827.145.154.312.286.495.39-.17.231-.323.475-.457.73a7.254 7.254 0 0 0-.688 2.096 6.56 6.56 0 0 0 .713 4.265 1.556 1.556 0 0 0 1.03.827c.194.043.391.065.59.065a6.663 6.663 0 0 0-.201 1.733c0 .578-.05 1.156-.05 1.732.003.743.091 1.483.265 2.205.152.686.362 1.357.626 2.007.178.452.445.863.783 1.21.05.15.15.28.282.365a23.708 23.708 0 0 0 3.407 1.733c1.057.453 2.13.875 3.21 1.277.17.063.342.123.515.183.734.847 1.906 1.5 3.62 1.5h.491a.568.568 0 0 0 .07.05c2.96 1.686 5.938 3.347 8.908 5.016.412.23.82.462 1.231.693.314.177.627.364.94.517a96.33 96.33 0 0 1 1.108 3.78c.332 1.237.603 2.383.873 3.665.079.372.155.744.23 1.115l.104.55c.035.183.099.44.113.596.028.33.346.65.686.58.374-.076.438-.472.35-.787 0 .022.015.024 0-.023-.013-.048-.013-.1-.023-.15l-.04-.222a71.41 71.41 0 0 0-.301-1.523 63.368 63.368 0 0 0-.43-1.898 82.552 82.552 0 0 0-1.033-3.864c-.217-.735-.443-1.47-.678-2.205a.705.705 0 0 0-.035-.079.61.61 0 0 0-.202-.386 7.744 7.744 0 0 0-1.117-.702l-1.096-.62-2.232-1.25c-1.506-.835-3.01-1.67-4.514-2.507l-.627-.353 17.867-.05a4.553 4.553 0 0 0 3.224-1.345 4.605 4.605 0 0 0 1.337-3.242V18.88c.99-1.89 2.566-3.55 3.985-5.162a12.924 12.924 0 0 1 2.1-2.008c.157-.112.314-.218.47-.315l.066-.04.075-.042a4.43 4.43 0 0 1 1.075-.419l.156-.03c.063-.01.127-.016.191-.02a3.439 3.439 0 0 1 .43 0h.036a3.014 3.014 0 0 1 .338.077c.023 0 .072.031.116.049-.013-.012-.008-.02.039 0l.023.009.05.024.157.078c.055.029.097.057.146.088l.069.048c.086.07.174.141.254.219.042.04.083.083.123.126.041.042.036.04.055.06.019.019.032.043.04.069.053.072.125.145.17.21-2.063 1.869-3.446 4.387-4.419 6.972a30.96 30.96 0 0 0-1.013 3.311.742.742 0 0 0 .313.849.532.532 0 0 0 .287.061.42.42 0 0 0 .194.082c.486.067.967.159 1.443.276.247.06.496.134.75.197a35.545 35.545 0 0 0-1.557 6.425c-.09.63-.164 1.26-.22 1.89-.079.66-.112 1.325-.1 1.99.011.144.07.28.168.385.813 3.308 1.526 6.642 2.267 9.967.783 3.492 1.574 6.98 2.506 10.435.515 1.91 1.071 3.81 1.691 5.689.014.038.03.075.05.11.436 1.456.909 2.9 1.333 4.36.332 1.144.649 2.292.94 3.446.017.073.036.147.055.22 0 .025.027.106.034.14.035.138.068.277.1.417a56.16 56.16 0 0 1 .601 2.785c.242 1.28.38 2.564.53 3.857a.652.652 0 0 0 .54.58.485.485 0 0 0 .524-.473c-.005-1.181-.205-2.374-.415-3.54ZM25.477 6.427c.215-.01.432-.01.648 0 .925 0 1.851.025 2.775.04l1.214.018h.382c.064 0 .128.004.192.013.076.01-.027 0-.05 0 .443 0 .576.817.101.81h.008c.061 0 .141 0 0 0h-.185l-.47-.01-2.781-.043c-.578-.01-1.161 0-1.738-.05a.41.41 0 0 1-.385-.37.341.341 0 0 1 .157-.363.335.335 0 0 1 .131-.045ZM2.131 25.684v-.035c0-.022-.015-.064-.019-.074l-.053-.236a14.62 14.62 0 0 1-.268-1.542 11.43 11.43 0 0 1-.06-.695c0-.099 0-.197-.009-.296v-.228c.008-.37.047-.74.118-1.103 0-.031.01-.063.019-.094.007-.032 0-.022.01-.037.021-.083.043-.167.068-.248.047-.158.102-.303.157-.45a8.074 8.074 0 0 1 .101-.23l.046-.08a4.485 4.485 0 0 1 .485-.708c.044-.054.091-.104.137-.158l.075-.077c.415-.404.874-.76 1.369-1.06.127-.08.257-.158.387-.235l.19-.11.026-.014.09-.05c.268-.15.54-.297.809-.445a24.794 24.794 0 0 0 1.748-1.019c.103-.068.205-.14.313-.21l.205.015c.138.01.276.025.414.04l.232.02h.036c.09.01.181.017.274.023.974.07 1.948.139 2.924.2 2.232.137 4.466.25 6.696.408 0 .013-.008.026-.011.038-.157.788-.305 1.575-.451 2.363-.097.526.136 1.008.66 1.165.272.08.552.14.826.213 1.283.345 2.555.73 3.833 1.088l.08.024c-.172.046-.346.087-.52.124-.11.024-.031 0-.008 0l-.1.02-.277.051-.647.12c-.836.156-1.67.31-2.506.463-3.336.608-6.682 1.172-10.053 1.555-.41.047-.819.091-1.23.132a.527.527 0 0 0-.433.334.953.953 0 0 0-.055.058c-.053.065-.102.136-.157.202-.055.066-.108.13-.156.195-.029.032-.058.063-.086.096l-.04.041a9.764 9.764 0 0 1-.905.822c-.343.279-.702.537-1.076.772-.09.057-.18.11-.271.165l-.034.02h-.013l-.157.084c-.175.093-.354.18-.537.259-.175.075-.353.14-.536.193-.078.024-.156.04-.234.062h-.026l-.133.019c-.075.008-.15.013-.225.014h-.107a1.694 1.694 0 0 1-.174-.038l-.012-.01-.049-.015c-.026 0-.026-.013-.015-.014H2.8s-.019 0-.044-.029a.057.057 0 0 0-.022-.01h.014l-.036-.035c-.012-.02-.026-.05-.042-.071a5.555 5.555 0 0 1-.12-.354 25.12 25.12 0 0 1-.283-.955 2.89 2.89 0 0 1-.136-.433Zm17.558-8.652c1.4.11 2.81.27 4.132.769a5.163 5.163 0 0 1 1.069.552l.092.065.025.022c.124.1.244.203.357.315.049.049.096.1.143.15l.097.122c.045.062.087.125.128.19l.057.096.014.023a.166.166 0 0 1 .01.024c.024.06.05.118.071.18.011.034.02.069.033.103.011.071.025.14.031.212v.144c0 .074-.02.147-.03.22.016-.124-.012.045-.026.086l-.067.178s0 .016-.011.023c-.011.008-.027.05-.043.073a2.23 2.23 0 0 1-.217.294l-.07.065a1.673 1.673 0 0 1-.114.098c-1.04-.289-2.086-.558-3.124-.85-.592-.157-1.184-.331-1.78-.49a43.957 43.957 0 0 0-.83-.22l-.313-.078c.055-.285.088-.581.14-.862l.234-1.277a.571.571 0 0 0-.008-.226v-.001Zm7.204 2.104c-.037-.1-.08-.2-.128-.296l.112.014h.022c.044.172.09.345.14.515.09.345.2.684.33 1.016.008.038.018.076.028.114l.049.178c.05.157.102.324.156.485.157.472.314.935.47 1.405a2497.308 2497.308 0 0 0 1.101 3.224c.083.316.182.628.298.934.166.424.725.557.927.091l.12-.272c.042-.09.1-.195.139-.298l.047-.091.11-.213c.408-.787.784-1.594 1.179-2.39.806-1.645 1.62-3.288 2.4-4.947.115-.242.237-.482.334-.73l.015-.037c.93.03 1.86.058 2.788.084-1.811 3.78-3.457 7.655-5.182 11.484-.45 1-.908 1.998-1.372 2.992l-.086.011c-.218.027-.437.04-.655.05-.412.021-.83.01-1.24.043-.38-1.159-.72-2.328-1.046-3.503a3.632 3.632 0 0 0 .06-2.047 2.99 2.99 0 0 0-1.265-1.653 6.716 6.716 0 0 0-1.814-.787 13.005 13.005 0 0 0-1.93-.424c-1.1-.15-2.209-.217-3.318-.198l1.712-.315c.79-.147 1.588-.274 2.371-.459a6.4 6.4 0 0 0 1.94-.74.51.51 0 0 0 .413-.315 2.642 2.642 0 0 0 .77-2.925h.005Zm2.266 3.437-.567-1.605a14.873 14.873 0 0 0-.219-.575c.259-.504.514-1.01.766-1.52h1.753c-.339.72-.675 1.443-1.014 2.163l-.719 1.537Zm.569 1.429c-.02.086-.01.023 0 0Zm4.107-6.882.026-.053c-.014.017-.022.036-.031.053h.005Zm-2.874 15.32a.522.522 0 0 0-.088.099.426.426 0 0 1 .084-.104l.004.006Zm-9.043-4.079a43.096 43.096 0 0 0-2.246-.335c-.322-.041-.647-.074-.97-.107l.057-.257.54-2.485c2.02-.062 4.034.05 5.952.727.495.175 1.034.418 1.396.788l.05.052.019.023c.04.057.081.114.119.174.01.014.019.03.027.045l.012.02a.102.102 0 0 0-.008-.012l.014.024v-.011l.01.02c.03.074.058.148.084.224l.01.028a2.345 2.345 0 0 1 .046.302v.14c0 .07 0 .141-.013.212-.025.28-.096.553-.209.81a3.225 3.225 0 0 1-.385.699.621.621 0 0 0-.157-.07 42.844 42.844 0 0 0-4.348-1.01Zm3.79 3.52-.258.607h-.797c.349-.168.685-.36 1.007-.575l.047-.033ZM3.787 36.13c-.04-.064-.075-.13-.113-.198l-.061-.114-.03-.06c-.04-.078-.017-.015 0 .023a1.421 1.421 0 0 1-.11-.238 12.751 12.751 0 0 1-.7-1.917 7.039 7.039 0 0 1-.045-.175l-.014-.05v-.032c-.057-.244-.107-.49-.146-.737a8.049 8.049 0 0 1-.103-1.076v-.263c.007-.255.033-.51.078-.76 0-.03.028-.125.027-.128.014-.05.026-.1.04-.158a3.66 3.66 0 0 1 .12-.341 2.47 2.47 0 0 1 .083-.178l.026-.05a3.139 3.139 0 0 1 .317-.456l.036-.04.025-.023a3.19 3.19 0 0 1 .294-.252.278.278 0 0 0 .022-.02c.219-.022.435-.063.647-.123.86-.243 1.666-.728 2.389-1.246a9.618 9.618 0 0 0 1.926-1.785c.046-.059.09-.12.129-.184l.744-.08c.052.034.11.058.172.069.664.096 1.336.13 2.006.1a42.1 42.1 0 0 0 1.994-.086c1.35-.085 2.697-.213 4.047-.3l.57-.032-.46 2.047c-.09.397-.294.9-.125 1.297a.874.874 0 0 0 .567.508c.188.042.38.067.573.076a44.63 44.63 0 0 1 6.79 1.298c-.044.038-.086.077-.132.112-.203.161-.416.31-.637.447l-.157.096-.015.01-.094.052c-.12.064-.243.125-.365.185-.507.237-1.03.435-1.567.593a15.794 15.794 0 0 1-1.212.313l-.196.043-.097.02-.042.008a35.86 35.86 0 0 1-1.68.283c-3.024.445-6.053.854-9.074 1.314l-.995.158a.514.514 0 0 0-.53.177c-.405.466-.85.894-1.33 1.281a7.206 7.206 0 0 1-.713.493l-.13.077a7.347 7.347 0 0 1-.61.302c-.304.136-.615.254-.93.36a1.404 1.404 0 0 1-.425.094.55.55 0 0 1-.144-.016.86.86 0 0 0-.137-.078c-.087-.068-.157-.158-.235-.226L4.02 36.5a4.149 4.149 0 0 1-.233-.369ZM24.56 31.11c-.069.04-.02.011 0 0Zm-1.837 3.78c.19.089.376.189.554.3.082.048.157.102.238.157l.035.022.025.02.09.07c.158.128.307.268.447.417 0 .01.058.068.07.08.013.013.037.046.054.068.053.073.105.147.156.222l.07.115.048.09a2.654 2.654 0 0 1 .13.34c.01.033.025.107.025.104.013.068.024.134.031.203 0 .037 0 .073.01.11v.064a3.169 3.169 0 0 1-.035.364c0 .03-.01.058-.017.088l-.031.113a3.09 3.09 0 0 1-.104.285v.017a.501.501 0 0 0-.136-.045c-1.47-.271-2.941-.545-4.412-.813l-2.234-.414-1.113-.203-.052-.01c0-.063 0-.126.01-.189.044-.7.158-1.396.34-2.074a28.656 28.656 0 0 1 2.41-.112 9.302 9.302 0 0 1 2.948.424c.081.026.164.056.244.09l.069.03.13.067ZM3.938 43.184c-.025-.092 0-.028 0 0Zm1.947 1.361c-.111.02-.222.038-.334.052-.2.028-.402.04-.604.038h-.132a2.07 2.07 0 0 1-.219-.042l-.024-.01c.016.013.013.017-.037-.01h-.016c0 .015.008.01 0 0v-.009l-.01-.017h-.012l-.031-.017.028.014c-.022-.033-.014-.02 0 0h.011c-.031-.049-.064-.096-.094-.145a2.961 2.961 0 0 1-.088-.158c-.028-.053-.043-.094-.064-.141a6.324 6.324 0 0 1-.305-.9v-.01c0-.037-.017-.075-.025-.111a7.342 7.342 0 0 1-.124-.76 5.925 5.925 0 0 1-.027-.409v-.134c0-.075.008-.157.018-.23a9.926 9.926 0 0 1 .134-.852l.024-.111v-.018c0 .003 0-.016.008-.033.082-.344.192-.68.33-1.006.056-.139.122-.272.197-.4a5.827 5.827 0 0 1 .868-1.146c.17-.053.34-.118.5-.177a8.472 8.472 0 0 0 2.01-1.06 9.734 9.734 0 0 0 1.636-1.54c1.358-.176 2.715-.357 4.073-.543.737-.052 1.473-.112 2.211-.17-.11.478-.189.964-.236 1.452-.018.186-.03.372-.038.558-.033.252-.017.507.047.753.19.51.644.564 1.11.652 1.61.305 3.221.61 4.833.912l2.266.423a8.103 8.103 0 0 1-.329.316 7.773 7.773 0 0 1-2.378 1.447c-.922.36-1.879.51-2.861.62-1.227.14-2.455.272-3.683.407l-1.87.192-.924.1c-.117.014-.254.034-.385.047a.402.402 0 0 0-.39-.05l-.08.045a.477.477 0 0 0-.442.287 6.292 6.292 0 0 1-.36.245c-.08.05-.157.098-.241.145l-.027.014-.037.022.034-.018-.023.012-.157.084c-.211.113-.428.22-.645.315-.874.418-1.788.748-2.727.984a.41.41 0 0 0-.232.055l-.077.017c.146-.022-.012.011-.05.02Zm15.557 3.015c.094-.194.17-.397.228-.605.238.23.477.459.716.685.111.106.224.213.338.315a.512.512 0 0 0 .774-.044.715.715 0 0 0-.122-.89c-.421-.389-.836-.787-1.253-1.18l.763-.788.335-.349c.036-.036.07-.077.11-.111a.268.268 0 0 0 .062-.046.689.689 0 0 0 .082-.882c-.157-.216-.55-.436-.784-.188a.9.9 0 0 0-.101.128l-.011.011.01-.027a.112.112 0 0 0-.013.03l-.018.02c-.095.098-.19.198-.283.298l-.728.764a4.241 4.241 0 0 0-.344-.705 4.514 4.514 0 0 0-1.273-1.336 8.886 8.886 0 0 0 2.647-.958 3.95 3.95 0 0 1 2.143 1.686 3.988 3.988 0 0 1-.756 5.08 3.935 3.935 0 0 1-2.54.98 3.79 3.79 0 0 1-1.215-.2c.5-.49.917-1.06 1.233-1.688Zm-1.535.21c-.195-.11-.4-.2-.605-.292a20.84 20.84 0 0 0-2.656-.968c-.597-.169-1.178-.3-1.777-.407-.128-.023-.258-.042-.386-.066l-.13-.032c.007-.146.017-.293.026-.439l.14-2.256 3.264-.355.224-.026c.411.14.806.325 1.176.553.197.118.382.256.551.411a3.096 3.096 0 0 1 .722.92 3.338 3.338 0 0 1 .17.44l.032.115c.014.07.029.143.04.214.01.07.014.124.018.187v.125a2.83 2.83 0 0 1-.023.28c-.041.26-.124.513-.246.747-.148.302-.33.587-.54.849ZM6.85 53.348c.015.029.03.067 0 0Zm5.569 3.177-.81-.315-.116-.045h-.016l-.217-.088-.47-.194a50.229 50.229 0 0 1-1.81-.8l-.037-.018a7.926 7.926 0 0 0 1.497-1.008c.494-.398.968-.819 1.455-1.224.192-.157.383-.315.585-.46l.185-.12.336-.053-.048 3.632v.02c.01.322.063.64.156.946-.227-.098-.46-.183-.69-.273Zm-.408-5.475a.557.557 0 0 0-.47.429l-.01.008c-.381.297-.746.617-1.116.93-.413.352-.828.701-1.265 1.023-.437.321-.906.64-1.429.63a.87.87 0 0 1-.156-.02c-.02 0-.105-.034-.107-.032a1.12 1.12 0 0 1-.136-.073l-.05-.031-.017-.016c-.046-.042-.093-.083-.135-.129l-.033-.035c-.069-.108-.147-.21-.211-.324l-.037-.066v-.008a7.354 7.354 0 0 1-.215-.523c-.109-.315-.21-.62-.301-.936a9.606 9.606 0 0 1-.35-1.87c-.042-.53.013-1.067.013-1.623-.02-.57 0-1.14.063-1.708.007-.061.02-.122.03-.184v-.044l.018-.07c.033-.122.075-.243.125-.36l.029-.058a.227.227 0 0 0 .009-.02c.036-.054.069-.112.108-.166l.047-.06a13.758 13.758 0 0 0 2.526-.828c.56-.237 1.104-.509 1.63-.815.196-.113.384-.238.565-.375.025-.018.047-.037.07-.058.445.046.928-.063 1.357-.109l.855-.093-.117 1.71c-.024.35-.095.743-.029 1.091a1.2 1.2 0 0 0 .74.917c.278.093.565.159.856.197a18.624 18.624 0 0 1 2.857.789c.334.12.643.24.96.378.1.044.2.093.303.143a9.252 9.252 0 0 1-.447.339 9.751 9.751 0 0 1-2.753 1.283c-1.223.372-2.498.57-3.777.767Zm26.97 1.043-22.69.07-.015-.692c1.02-.303 1.99-.76 2.875-1.353l.103-.076a4.894 4.894 0 0 0 2.168.506 5.028 5.028 0 0 0 3.088-1.113 5.077 5.077 0 0 0 1.755-2.788c.26-1.1.146-2.256-.322-3.284a5.061 5.061 0 0 0-2.261-2.39c.04-.03.08-.058.119-.09.77-.61 1.47-1.384 1.81-2.325.047-.135.086-.274.117-.415a.677.677 0 0 0 .081.01 236.293 236.293 0 0 0 13.332.037l-.16 13.903Zm.173-15.141-1.267.03c-.987.02-1.973.035-2.959.047-1.971.022-3.944.022-5.918 0-1.077-.01-2.155-.017-3.232-.031a3.598 3.598 0 0 0-.456-1.338c-.545-.945-1.41-1.565-2.383-1.968.765.006 1.53.006 2.295 0h.324a.763.763 0 0 0 .088-.015h.037l.121-.023a.47.47 0 0 0 .238-.2.585.585 0 0 0 .146-.188c.348-.688.666-1.386.956-2.1.08-.198.156-.395.234-.595.21.802.446 1.597.711 2.383a.545.545 0 0 0 .076.147v.028a.632.632 0 0 0 .415.509c.128.034.26.054.391.058.215.02.433.011.647.01.488.008.976-.012 1.462-.059.313-.036.593-.093.736-.415a.535.535 0 0 0 .04-.194c1.944-3.897 3.615-7.926 5.42-11.887.498-1.092 1.004-2.18 1.527-3.26a.475.475 0 0 0 .045-.221.623.623 0 0 0 .06-.369.672.672 0 0 0-.627-.601 483.607 483.607 0 0 0-3.48-.073l-.503-.01a.484.484 0 0 0-.448.445.47.47 0 0 0-.048.098l-.014.028-.028.063-.096.203-.313.682c-.342.728-.684 1.454-1.028 2.18-.76 1.603-1.524 3.205-2.291 4.806l-.028-.103c0-.017-.033-.127-.037-.143-.003-.016-.017-.066-.024-.1-.047-.201-.096-.404-.138-.609-.014-.07-.029-.142-.041-.213v-.039c.064-.118.113-.249.17-.367.602-1.28 1.204-2.56 1.807-3.838.183-.388.366-.774.546-1.163.18-.389-.166-.885-.57-.88-.993.01-1.985.024-2.976.042a.469.469 0 0 0-.404.315c-.144.304-.287.609-.428.915l-.101-.327-.062-.194c0-.016-.009-.033-.015-.049a.3.3 0 0 0 0-.03.616.616 0 0 0-.07-.143.648.648 0 0 0-.13-.134.49.49 0 0 0-.145-.194.68.68 0 0 0-.286-.157 1.531 1.531 0 0 0-.209-.022l-.203-.02-.406-.034-.523-.047-.19-.158c-1.282-.965-2.929-1.318-4.49-1.502-1.794-.213-3.603-.315-5.404-.399v-2.816l23.756.37-.277 23.869Zm11.33-14.576c-.21-.049-.418-.102-.626-.157a9.812 9.812 0 0 0-1.106-.19c.421-1.572.984-3.1 1.68-4.569l.121-.245.06-.119.031-.06a19.072 19.072 0 0 1 .818-1.419 16.18 16.18 0 0 1 1.394-1.868l.147-.157c.024-.027.144-.158.108-.117.135-.138.271-.275.41-.41.021.06.044.12.063.18.02.06.038.128.055.193l.027.097c.06.274.11.547.144.824.019.158.033.315.04.473 0 .077.008.157.01.233V15.169a6.471 6.471 0 0 1-.074.904c-.01.072-.023.145-.036.217l-.018.091a5.905 5.905 0 0 1-.113.396c-.064.194-.146.38-.229.567a.103.103 0 0 0-.019.025 35.766 35.766 0 0 0-2.423 5.092c-.16-.027-.315-.052-.463-.085Z"/><path fill="#000" d="M2.736 27.541v.008l.046.031c.015-.006-.005-.03-.046-.039ZM2.87 27.62a.09.09 0 0 0-.071-.032c.024.009.047.02.07.031ZM4.527 44.56h.009l.038.012a.114.114 0 0 0-.058-.024l.01.013ZM4.506 44.558h.015s-.013-.003-.015 0Z"/></svg>