<svg xmlns="http://www.w3.org/2000/svg" width="81" height="80" fill="none"><circle cx="31.667" cy="43" r="31" fill="#049DFF"/><g fill="#000" clip-path="url(#a)"><path d="M57.147 9.476c4.398 3.923 8.438 8.321 11.204 13.552 2.743 5.15 3.888 10.995 3.46 16.828-.428 5.729-2.373 11.284-5.694 15.96-3.102 4.363-7.28 7.962-12.037 10.45-4.941 2.558-10.416 3.924-15.96 3.89-5.913-.035-11.781-1.552-17.012-4.248-2.42-1.262-4.792-2.743-6.77-4.653-1.841-1.724-3.357-3.784-4.688-5.914a38.378 38.378 0 0 1-3.032-5.948 25.613 25.613 0 0 1-1.586-5.533c-1.11-6.238-.787-12.719 1.586-18.633 2.048-5.08 5.474-9.617 9.617-13.228a40.072 40.072 0 0 1 3.137-2.454c.358-.254-.07-.972-.463-.683-4.618 3.24-8.541 7.465-11.284 12.396a30.975 30.975 0 0 0-3.056 7.788c-.798 3.276-1.041 6.632-.833 9.977.139 2.708.544 5.474 1.33 8.113.58 1.944 1.401 3.819 2.304 5.624 1.123 2.234 2.454 4.364 4.004 6.308 1.655 2.049 3.53 3.854 5.73 5.335 5.01 3.357 10.774 5.556 16.758 6.308 5.763.717 11.642.035 17.047-2.049a35.342 35.342 0 0 0 13.437-9.258 32.504 32.504 0 0 0 7.639-15.208c1.192-5.764.833-11.897-1.158-17.441-2.048-5.694-5.763-10.636-10.022-14.849a72.363 72.363 0 0 0-3.206-3.032c-.417-.336-.81.312-.452.602Z"/><path d="M44.89 12.578a29.639 29.639 0 0 0 1.945 3.24c.104.185.324.255.51.104.185-.15.185-.393.034-.578a49.988 49.988 0 0 1-1.944-3.24c-.104-.186-.359-.255-.51-.105-.138.185-.104.44-.034.579Z"/><path d="M47.345 16.142c.648-.255 1.296-.463 1.944-.718.648-.22 1.296-.428 1.944-.682.429-.14.14-.903-.289-.753-1.33.394-2.627.903-3.889 1.447-.393.139-.104.856.29.706Z"/><path d="M51.163 14.672c.22.394.463.799.683 1.192l.324.579c.14.255.29.613.579.613.104 0 .22-.104.255-.185.104-.29-.14-.613-.29-.833l-.324-.579c-.22-.393-.463-.798-.683-1.192-.104-.139-.358-.254-.509-.104-.139.104-.104.324-.035.51Z"/><path d="M52.644 16.651c-.463.22-.937.463-1.4.718l-.718.393c-.22.139-.463.255-.682.428-.14.104-.14.36-.07.51.07.15.29.289.428.22.463-.255.903-.545 1.331-.8.463-.254.903-.508 1.366-.717.185-.104.255-.289.185-.509-.046-.173-.266-.347-.44-.243Z"/><path d="M49.717 18.92c.463.717.937 1.447 1.365 2.164.22.359.394.718.614 1.076.22.394.393.788.613 1.158.22.393.752.07.614-.324a23.451 23.451 0 0 0-.614-1.192c-.22-.394-.428-.753-.648-1.158a29.37 29.37 0 0 0-1.4-2.199c-.105-.139-.325-.254-.463-.104-.186.15-.186.405-.081.579Z"/><path d="M52.564 23.213c0 .035 0 .035 0 0 .035-.07.07-.139.104-.254h-.034c.034 0 .07-.035.139-.035h-.035c.035 0 .07.035.139.035h-.035c.035.07.104.104.139.185v-.035c0 .104-.035.185-.035.29 0 0 0-.035.035-.035l-.104.104c.22-.104.509-.185.717-.29.255-.104.51-.22.752-.323.51-.22 1.042-.429 1.551-.614.544-.185 1.042-.393 1.586-.578.255-.07.51-.186.752-.255.29-.104.579-.139.834-.324.289-.185.034-.718-.255-.683-.324.035-.683.185-.972.29-.324.104-.648.22-.972.323a40.23 40.23 0 0 0-1.84.718l-1.806.752c-.255.104-.718.255-.752.579-.035.255.254.613.509.393.104-.104.104-.22.07-.324v-.034c-.082-.29-.522-.209-.487.115Z"/><path d="M58.767 20.795c.359 1.006.833 2.013 1.331 2.95.07.14.29.22.428.186a56.082 56.082 0 0 1 3.31-1.447c.429-.185.14-.937-.289-.752a34.918 34.918 0 0 0-3.31 1.447c.139.07.29.104.428.185-.463-.903-.902-1.806-1.261-2.743-.07-.185-.255-.324-.428-.255-.209.035-.278.243-.209.429Z"/><path d="M64.172 21.836c-.139-.51-.324-1.007-.463-1.516-.07-.255-.139-.463-.22-.718-.07-.22-.22-.463-.22-.683 0 .07 0 .14-.034.186.034-.035.07-.035.139-.07.104-.035.185-.104.289-.139a4.5 4.5 0 0 1 .579-.29c.393-.219.798-.393 1.157-.613.324-.22 0-.867-.359-.682-.463.22-.903.463-1.366.683-.22.104-.462.254-.682.358-.255.14-.463.29-.429.614 0 .254.14.509.22.752.07.255.185.544.255.799.185.544.359 1.041.544 1.585.07.185.254.324.428.255.162-.116.197-.336.162-.521ZM52.17 23.317c.29.938.903 1.725 1.227 2.709.07-.186.104-.325.185-.51-1.076.429-2.199.683-3.24 1.158-.429.185-.14.937.289.752 1.042-.428 2.199-.718 3.24-1.157.22-.07.255-.324.186-.51-.29-.937-.938-1.724-1.227-2.662-.07-.185-.255-.324-.463-.254-.231.046-.266.29-.197.474Z"/><path d="M50.122 27.206c.462 1.262.972 2.523 1.446 3.785.185.51.428 1.296 1.158 1.192.324-.035.613-.139.937-.255.324-.104.648-.185.972-.289.718-.22 1.482-.393 2.2-.613.427-.104.138-.903-.29-.799-.752.22-1.516.428-2.269.648-.393.104-.798.22-1.157.324-.185.035-.324.104-.51.14-.103.034-.138 0-.184-.105-.14-.29-.255-.648-.36-.938-.138-.358-.288-.752-.427-1.122-.29-.718-.579-1.482-.868-2.199-.07-.185-.255-.324-.428-.255-.22.093-.301.348-.22.486Z"/><path d="M56.43 30.886c.429.753.868 1.516 1.262 2.269.428.752.833 1.55 1.261 2.303.105.185.36.254.51.104.185-.139.139-.394.034-.579-.393-.798-.833-1.516-1.261-2.303-.428-.752-.868-1.516-1.296-2.268-.105-.185-.325-.255-.463-.104-.162.185-.162.428-.047.578Z"/><path d="M59.74 35.574a87.275 87.275 0 0 1 2.951-1.98c.51-.323.972-.647 1.482-.937.254-.138.509-.324.752-.463.104-.069.255-.139.359-.22.139-.069.29-.138.393-.289.14-.254 0-.613-.324-.613-.185 0-.29.104-.428.185-.139.07-.29.185-.394.255-.254.139-.509.324-.752.462-.509.325-1.007.649-1.516.973a55.93 55.93 0 0 0-2.951 2.048c-.324.14.07.822.428.579Z"/><path d="M65.144 31.35c.29.578.544 1.157.833 1.724.29.579.544 1.157.833 1.724.14.255.36.429.648.429.29 0 .58-.186.869-.324.578-.255 1.157-.51 1.69-.8.393-.219.138-.971-.29-.786-.51.22-1.007.463-1.516.683-.255.104-.51.22-.718.324-.034 0-.07.035-.07.035s.035.034.035 0c0-.07-.104-.22-.138-.29-.51-1.007-.972-2.014-1.482-3.032-.07-.185-.254-.324-.463-.255-.231.174-.3.429-.231.567Z"/><path d="M70.514 33.548a75.684 75.684 0 0 0-.614-2.708c-.034-.22-.104-.428-.138-.648 0-.035-.035-.104-.035-.139.035-.035.139-.104.185-.139.394-.29.752-.578 1.157-.833.36-.255-.069-.972-.463-.683-.393.324-.833.579-1.226.903-.185.139-.324.29-.359.51-.035.254.035.543.104.786.255 1.007.463 2.014.718 2.986.034.185.185.359.393.359.174-.035.313-.209.278-.394ZM58.941 35.389c.255 1.041.544 2.048.903 3.067.185.509.393 1.006.613 1.481.185.394.359 1.157.938 1.076.254-.034.462-.185.682-.289.29-.139.544-.255.834-.393.509-.255 1.007-.464 1.481-.718.255-.104.463-.22.718-.324.034 0 .289-.104.324-.139-.035 0-.07-.035-.105-.035l.105.255.324.683c.07.104.104.254.185.358 0 0 .07.22.035.07 0-.07 0-.07-.035-.035s-.07.035-.104.07a17.807 17.807 0 0 1-2.917 1.805.417.417 0 0 0-.185.51c.07.184.29.358.463.254.972-.51 1.91-1.042 2.812-1.69.186-.139.429-.29.579-.509.185-.29.07-.613-.07-.868-.104-.255-.22-.51-.323-.718-.105-.254-.22-.578-.429-.787-.22-.22-.463-.22-.717-.138-.29.104-.544.254-.799.393-.509.255-1.041.51-1.55.752-.255.104-.51.255-.753.36-.139.069-.29.138-.393.184-.035.035-.186.07-.22.104-.07 0-.07.035 0 .07-.035 0-.29-.648-.324-.718-.105-.254-.22-.544-.324-.798a26.016 26.016 0 0 1-1.123-3.53c-.081-.347-.73-.232-.625.197Z"/><path d="M62.623 42.888a331.48 331.48 0 0 0 1.48 6.528c.036.185.186.393.394.393.209 0 .36-.22.29-.428a440.065 440.065 0 0 1-1.482-6.528c-.034-.185-.185-.393-.393-.358-.185-.012-.324.173-.29.393Z"/><path d="M64.89 49.913c.753-.463 1.517-.972 2.269-1.447a40.947 40.947 0 0 0 2.234-1.446c.358-.255-.035-.903-.429-.683-.752.428-1.516.972-2.233 1.446-.753.463-1.482.973-2.234 1.447-.394.255 0 .938.394.683Z"/><path d="M69.067 46.812c.22.682.394 1.365.649 2.013.069.186.289.324.462.255.22-.07.255-.324.186-.51l-.648-2.013c-.07-.185-.255-.324-.463-.255-.22.116-.255.336-.186.51ZM64.462 49.404c-.394.972-.834 1.91-1.227 2.882-.185.393-.324.868-.544 1.227-.185.358-.428.613-.833.717-.429.104-.903.07-1.331.104-.255.035-.463.07-.683.104-.255.035-.51.07-.718.14-.463.22-.463.833-.578 1.296-.035.254-.105.509-.14.752-.034.255-.138.51-.138.752-.035.29.104.614.393.718.255.104.544.07.799.07l1.77.103c.22 0 .325-.254.325-.428-.035-.22-.185-.393-.394-.393-.463-.035-.972-.035-1.446-.07-.255 0-.463-.035-.718-.035h-.139c-.07.035.07.324.139.22.035-.104.035-.254.07-.358.104-.463.22-.938.289-1.4.035-.105.035-.36.104-.394.035-.035.185-.035.22-.035.104-.035.255-.035.359-.07.463-.069.937-.104 1.4-.138.428-.035.868-.07 1.227-.324.648-.429.937-1.331 1.227-2.014.428-1.007.868-2.014 1.296-3.032.058-.429-.556-.822-.73-.394Z"/><path d="M60.78 57.945c-.358.868-.682 1.724-1.04 2.593-.186.428-.325.833-.51 1.261-.185.428-.393.903-.51 1.331-.138.428.43.833.649.359.22-.428.359-.868.51-1.296.184-.429.323-.868.508-1.297.325-.868.683-1.724 1.007-2.592.186-.428-.428-.822-.613-.359ZM44.856 11.895c-.718.22-1.447.509-2.13.798-.683.29-1.4.579-2.095.972-.324.22 0 .903.36.718.682-.29 1.33-.648 2.013-.938.683-.289 1.4-.544 2.095-.798.474-.14.185-.891-.243-.752Z"/><path d="M41.175 13.874a21.756 21.756 0 0 0-.752-1.91c-.139-.29-.255-.648-.428-.903-.22-.324-.544-.29-.868-.22-.683.14-1.366.29-2.049.463-.324.07-.648.104-.972.22-.324.104-.463.428-.428.752.035.36.104.753.139 1.123.035.185.035.359.07.544.034.139.069.393.069.51.034-.07.034-.105.07-.186.034-.035.069-.035.103-.07.07 0 .105.035.186.035h-.035c.07.07.139.14.22.255v-.035c-.07-.185-.255-.358-.463-.254-.185.07-.255.324-.185.509.139.324.544.51.798.139.185-.255.035-.683 0-.972-.035-.325-.07-.649-.104-1.007-.035-.14-.035-.324-.07-.463 0-.035 0-.14-.034-.14-.035.036.035 0 .035 0 .139 0 .289-.069.428-.103.185-.035.324-.07.51-.104.323-.07.647-.14.971-.22.324-.07.648-.14.972-.22.035 0 .186 0 .186-.035l-.07-.07s.185.429.22.463c.324.683.613 1.366.868 2.095.07.185.255.324.463.255.15-.012.197-.266.15-.451Z"/><path d="M35.852 14.383a31.33 31.33 0 0 1-3.75.648c-.22.034-.323.22-.289.428.185 1.296.324 2.627.544 3.923.035.185.185.394.394.394.22 0 .324-.22.289-.428-.139-1.331-.359-2.628-.544-3.924-.104.139-.22.29-.29.428a28.178 28.178 0 0 0 3.924-.717c.405-.14.15-.868-.278-.752Z"/><path d="M32.855 19.857c1.261-.463 2.523-.937 3.784-1.4-.139-.07-.324-.185-.463-.255.14.544.324 1.076.463 1.655.035.139.07.29.104.428.035.07.035.29.104.36.035.069 0-.036.035-.036 0 0-.07.035-.104.035-.139.035-.255.07-.393.104-1.042.29-2.13.428-3.172.718-.139.035-.254.255-.22.393.29 1.84.58 3.634.868 5.475.035.22.186.393.394.393.208 0 .324-.22.324-.428-.29-1.84-.579-3.634-.868-5.474-.07.139-.139.289-.22.393.579-.185 1.192-.29 1.77-.393.614-.104 1.228-.22 1.806-.429.29-.104.463-.324.51-.648 0-.324-.14-.648-.22-.972-.185-.613-.36-1.227-.544-1.875-.035-.185-.29-.324-.463-.254-1.262.463-2.523.972-3.785 1.481-.393.15-.104.88.29.73Z"/><path d="M34.694 27.82c1.157-.29 2.303-.544 3.46-.834 1.158-.29 2.304-.544 3.461-.833.22-.07.255-.324.185-.51-.07-.22-.254-.323-.463-.254-1.157.255-2.303.579-3.46.833-1.158.29-2.303.579-3.426.868-.185.035-.22.324-.185.463.035.232.208.336.428.266Z"/><path d="M42.044 25.656c-.14-1.158-.325-2.303-.463-3.495-.07.138-.14.254-.22.393 1.076-.324 2.199-.648 3.275-.937.07-.035.139-.035.255-.035 0 0 0-.07.034.035 0 .034.035.069.035.069.104.255.185.544.29.787.184.544.358 1.076.543 1.62.07.186.29.324.463.255.22-.07.255-.324.185-.51a38.105 38.105 0 0 1-.613-1.84c-.185-.543-.324-1.296-1.042-1.261-.289 0-.578.139-.833.22-.324.104-.613.185-.937.29-.614.184-1.262.358-1.875.543-.14.035-.22.255-.22.394.139 1.157.324 2.303.463 3.495.035.185.185.393.393.359.197.023.301-.197.267-.382Z"/><path d="M46.476 24.394c1.944-.428 3.889-.833 5.88-1.157.22-.035.323-.22.288-.428-.034-.186-.185-.429-.393-.394a70.05 70.05 0 0 0-6.053 1.227c-.185.035-.22.324-.185.463.07.254.243.37.463.289ZM34.01 27.646c.036 1.366.14 2.778.36 4.143.07-.138.139-.254.22-.393-.683.22-1.331.393-1.98.613-.648.22-1.33.36-1.944.614a1.376 1.376 0 0 0-.613.463c-.185.324-.104.683-.07 1.007.104.682.22 1.33.36 1.979.138.752.323 1.516.508 2.268.035.185.186.428.394.393 1.446-.289 2.847-.543 4.294-.786.22-.035.324-.22.324-.429-.035-.185-.22-.428-.429-.393-1.446.254-2.881.509-4.293.798.139.105.254.185.393.29a54.655 54.655 0 0 1-.752-3.634c-.035-.29-.139-.614-.139-.903 0-.185.22-.255.359-.29.579-.22 1.192-.358 1.805-.578.683-.22 1.4-.428 2.095-.648.139-.035.255-.255.22-.394-.185-1.365-.324-2.743-.359-4.143 0-.185-.22-.393-.393-.393-.29.011-.36.231-.36.416Z"/><path d="M35.158 37.622a56.258 56.258 0 0 0 1.655 5.37c.069.185.289.359.462.255.22-.07.255-.324.186-.51a53.344 53.344 0 0 1-1.655-5.37c-.035-.185-.29-.323-.463-.254-.22.08-.22.336-.185.51Z"/><path d="M37.472 43.351a44.001 44.001 0 0 0 7.465-1.516c.683-.22 1.366-.428 2.049-.648.428-.139.139-.937-.29-.787-2.337.787-4.756 1.447-7.21 1.84-.717.104-1.4.22-2.13.29-.462.104-.323.89.116.821Z"/><path d="M47.448 40.54c-.185-1.401-.51-2.813-.972-4.179-.07.185-.105.324-.185.51 1.77-.429 3.53-.903 5.265-1.366-.139-.07-.324-.186-.462-.255.393 1.007.682 2.049.867 3.136.035.22.186.394.394.394.208 0 .359-.22.324-.428a21.718 21.718 0 0 0-.903-3.356c-.07-.186-.254-.325-.463-.255-1.724.51-3.495.937-5.266 1.365-.22.035-.254.36-.185.51.428 1.296.752 2.592.938 3.97.034.185.185.393.393.358.185 0 .29-.22.255-.405Z"/><path d="M52.6 38.78a70.67 70.67 0 0 0 7.06-3.067c.185-.105.255-.324.185-.51-.07-.185-.29-.358-.463-.254-2.303 1.157-4.652 2.164-7.025 3.102-.474.115-.185.867.243.729ZM36.79 43.062c.105.972.255 1.944.429 2.882.185.972.393 1.944.717 2.881.07.186.29.325.463.255.22-.07.255-.324.185-.51-.22-.902-.509-1.805-.683-2.742a39.329 39.329 0 0 1-.428-2.812c-.035-.186-.185-.394-.393-.394a.37.37 0 0 0-.29.44Z"/><path d="M38.444 48.906c.649-.104 1.331-.254 1.98-.393.648-.139 1.296-.255 1.944-.394.648-.139 1.296-.289 1.944-.393.104 0 .104 0 .035-.104-.139-.14-.035-.07-.07-.035 0 .035.035.139.035.139.035.185.035.324.07.51.034.323.104.682.139 1.006.104.752.22 1.516.324 2.268l.324-.428a76.893 76.893 0 0 0-4.074.868c-.324.07-.683.185-1.007.255-.324.07-.648.139-.752.509-.07.324.034.683.104 1.007.07.324.139.683.22 1.007.185.752.359 1.516.613 2.268.07.185.29.359.463.255.22-.07.255-.324.185-.51a30.797 30.797 0 0 1-.868-3.53c0-.034 0-.184-.034-.22-.035-.034.034-.069-.035.035-.07.105-.035.035 0 .035.139-.035.29-.07.428-.104.324-.07.613-.139.937-.22.614-.139 1.227-.29 1.84-.393.683-.14 1.366-.29 2.095-.394.22-.035.324-.22.324-.428-.104-.718-.22-1.447-.324-2.199-.034-.359-.104-.718-.139-1.076-.034-.324-.034-.753-.22-1.042-.254-.359-.613-.29-.972-.185-.358.07-.717.139-1.076.22-.717.139-1.447.29-2.13.428-.798.185-1.62.324-2.418.544-.428.046-.243.73.115.694Z"/><path d="M40.817 57.077c.394.14.799.07 1.192.07.394-.035.799-.035 1.193-.07.798-.07 1.585-.139 2.337-.254 1.586-.22 3.137-.51 4.688-.868.138-.035.254-.255.22-.394a33.685 33.685 0 0 1-.58-3.75c-.069.14-.138.29-.22.394 1.772-.544 3.566-1.077 5.336-1.655-.139-.07-.324-.185-.463-.255.394.903.683 1.806.868 2.778.035.22.186.393.394.393.208 0 .324-.22.324-.428-.185-1.042-.463-2.048-.903-2.986-.07-.185-.255-.324-.463-.255-1.77.544-3.564 1.077-5.335 1.656-.185.034-.22.254-.22.393.139 1.262.324 2.523.579 3.75.069-.14.139-.29.22-.394a51.29 51.29 0 0 1-4.572.868c-.752.105-1.516.185-2.268.255l-1.192.104c-.394.035-.8 0-1.158.185-.3.035-.185.394.023.463Z"/><path d="M56.059 53.732c2.882-1.365 5.763-2.777 8.61-4.143a.416.416 0 0 0 .186-.51c-.07-.184-.29-.358-.463-.254-2.882 1.4-5.73 2.778-8.611 4.178-.185.105-.255.29-.185.51.07.115.29.289.463.22ZM40.319 57.008c.393 1.191.683 2.418.972 3.633.104-.138.22-.289.29-.428-.753.105-1.517.22-2.269.324a7.227 7.227 0 0 0-1.042.185c-.289.07-.578.14-.752.394-.22.29-.185.648-.139.972.07.359.104.718.185 1.076.14.718.36 1.447.579 2.13.07.185.29.324.463.255.22-.07.255-.324.185-.51a12.129 12.129 0 0 1-.51-1.84c-.069-.29-.138-.613-.184-.937-.035-.14-.14-.51 0-.614.139-.139.393-.139.578-.185.325-.035.649-.104.973-.139.682-.104 1.365-.22 2.013-.324.185-.034.36-.22.29-.428a48.475 48.475 0 0 0-1.042-3.854c-.07-.185-.255-.324-.428-.255-.162.116-.197.37-.162.544Z"/><path d="M38.619 65.618c.752-.034 1.55-.104 2.303-.185.752-.104 1.55-.185 2.303-.359.393-.104.185-.867-.185-.798-.752.104-1.482.255-2.234.359-.752.104-1.516.139-2.268.185-.486.012-.347.799.08.799Z"/><path d="M42.657 64.832c.254 1.62.254 3.275.034 4.895-.069.463.648.718.718.185.255-1.69.22-3.425-.035-5.08-.035-.186-.185-.394-.393-.394a.334.334 0 0 0-.324.394ZM14.545 31.106c2.164-.22 4.328-.393 6.527-.613-.139-.139-.289-.255-.393-.393.139.752.254 1.55.393 2.303.07.358.07.717.22 1.041.14.359.463.544.833.579.36.035.753-.035 1.123-.035.394-.035.799-.035 1.157-.07.799-.034 1.586-.069 2.373-.138.185 0 .29-.139.324-.324.035-1.262.104-2.523.139-3.785-.07.105-.139.22-.22.29 2.454-.648 4.86-1.366 7.28-2.095.428-.139.139-.938-.29-.787a174.286 174.286 0 0 1-7.28 2.095c-.103.034-.22.185-.22.289-.034 1.261-.103 2.523-.138 3.785l.324-.325c-1.4.07-2.847.14-4.247.255-.14 0-.29.035-.429 0-.07-.035-.07-.035-.104-.104-.07-.255-.104-.613-.139-.903-.104-.717-.254-1.4-.358-2.13-.035-.184-.186-.393-.394-.393-2.164.22-4.328.428-6.481.648-.533.081-.428.845 0 .81Z"/><path d="M14.117 30.597c-.14 1.586-.22 3.171-.185 4.757.104-.14.22-.29.289-.428a15.91 15.91 0 0 0-3.24.254c-.186.035-.29.139-.325.324-.034.648-.07 1.296-.07 1.945 0 .324 0 .648.036 1.006 0 .29 0 .58.07.868.069.29.184.58.462.718.255.139.613.139.903.185.648.07 1.261.104 1.91.07-.14-.14-.29-.255-.429-.394.07 1.84.104 3.68.185 5.51 0 .219.22.393.428.393.22 0 .325-.22.325-.429-.07-1.84-.105-3.68-.186-5.509 0-.22-.22-.393-.428-.393-.544.035-1.076 0-1.62-.035-.255-.035-.51-.035-.752-.104-.104-.035-.07 0-.104-.07-.035-.069 0-.185-.035-.289a25.752 25.752 0 0 1 0-3.275l-.324.324c1.076-.185 2.164-.29 3.24-.255.22 0 .324-.254.29-.428-.035-1.516 0-3.032.138-4.537.035-.185-.104-.428-.289-.463-.104-.069-.29.07-.29.255Z"/><path d="M14.153 46.094c2.708-.29 5.405-.544 8.113-.648-.14-.139-.29-.255-.394-.394.035 1.227.104 2.42.14 3.635 0 .22.22.358.393.393 1.33.139 2.662.185 4.004.07.324-.035.648-.035.972-.07.29-.035.614-.035.834-.255.22-.185.324-.509.358-.787.035-.324.035-.613.07-.937.034-.752.104-1.516.139-2.268l-.324.324a95.946 95.946 0 0 0 9.085-1.725c.22-.035.254-.359.185-.51-.07-.219-.255-.323-.463-.254a106.652 106.652 0 0 1-8.9 1.69c-.185.035-.29.139-.324.324-.035.787-.104 1.586-.139 2.419 0 .22-.035.393-.035.613 0 .14 0 .29-.07.428-.034.105-.103.105-.219.14-.185.034-.359.034-.51.069a27.22 27.22 0 0 1-4.756 0c.139.139.29.255.394.393-.035-1.226-.105-2.419-.14-3.634 0-.22-.22-.393-.393-.393a87.27 87.27 0 0 0-8.113.717c-.44-.023-.3.695.093.66Z"/><path d="M13.827 46.129c.683 1.805 1.331 3.6 2.014 5.37.07.185.29.324.463.254.972-.289 1.98-.462 2.986-.428-.139-.104-.255-.185-.394-.29a71.595 71.595 0 0 0 1.297 3.635c.07-.185.139-.359.185-.51-.613.186-1.262.325-1.875.51-.324.07-.613.185-.938.255-.254.069-.648.104-.833.324-.254.289-.104.648 0 .972.104.324.22.613.324.937.22.614.428 1.262.648 1.875.07.185.29.359.463.29.22-.07.255-.325.185-.51-.185-.544-.358-1.076-.544-1.62-.069-.255-.185-.544-.254-.799a1.774 1.774 0 0 0-.139-.393c-.035-.104-.104-.255-.104-.359 0 .07 0 .139-.035.22-.07 0 0 .035 0 0 .07 0 .139-.035.22-.07.139-.034.29-.069.428-.104.29-.069.614-.139.903-.254.613-.14 1.227-.324 1.805-.463.22-.07.255-.359.186-.51a67.838 67.838 0 0 1-1.297-3.633c-.034-.186-.22-.29-.393-.29a10.45 10.45 0 0 0-3.171.51c.139.069.324.185.463.254-.683-1.805-1.366-3.565-2.014-5.37-.07-.185-.255-.324-.463-.255-.15.058-.185.267-.116.452Z"/><path d="M18.377 59.172h7.06c-.14-.104-.255-.185-.394-.29.185.614.393 1.193.613 1.806.105.29.22.579.36.868.103.29.22.579.393.834.393.544 1.076.428 1.69.393.682-.035 1.33-.035 2.013-.07.753-.034 1.482-.034 2.234-.069.22 0 .359-.254.324-.428-.22-1.007-.394-2.014-.614-3.032-.069.139-.138.29-.22.393a207.598 207.598 0 0 0 9.26-2.268c.428-.104.138-.903-.29-.799a196.167 196.167 0 0 1-9.259 2.269c-.139.034-.254.254-.22.393.22 1.007.394 2.014.614 3.033.104-.14.22-.29.324-.429-1.551.035-3.137.104-4.687.14-.22 0-.51.069-.648-.14-.186-.324-.29-.717-.429-1.041a18.52 18.52 0 0 1-.752-2.13c-.035-.139-.22-.29-.393-.29-2.338 0-4.723 0-7.06.035-.463.07-.36.822.08.822Z"/><path d="M17.613 59.033c.358.718.717 1.4 1.076 2.13.185.359.359.717.544 1.076.104.185.185.359.29.544.069.104.219.324.219.428 0-.07 0-.139.035-.22-.035.07-.185.185-.255.255-.104.104-.255.185-.359.255-.254.138-.544.22-.833.289-.393.104-.185.868.185.787.544-.104 1.042-.359 1.482-.683.254-.185.509-.428.428-.752-.035-.185-.139-.324-.22-.51-.07-.138-.139-.289-.22-.428-.613-1.157-1.192-2.338-1.805-3.495-.209-.405-.787-.08-.567.324ZM22.763 67.17c.324-.186.613-.36.937-.544.07-.035.139-.105.22-.14l.07-.034c-.035 0-.07-.035-.14-.035l.035.035c.104.139.255.29.36.428a64.73 64.73 0 0 0 1.4 1.586c.323.324.752-.185.509-.51-.544-.648-1.123-1.261-1.69-1.874-.139-.14-.255-.36-.463-.394-.22-.07-.393.07-.579.185-.358.22-.752.428-1.122.683-.185.104-.14.394-.035.544.139.15.324.185.498.07ZM4.5 42.738c.867.463 1.724.972 2.592 1.4.22.104.463.139.613-.07.14-.185.14-.462.185-.682.105-.51.22-.972.324-1.482-.138.104-.254.22-.393.324.718.105 1.481.186 2.199.29-.104-.185-.22-.324-.324-.51 0 .614 0 1.227.07 1.84.034.255.034.58.138.8.104.289.324.462.614.543.254.07.544.104.798.185.29.07.579.14.903.186.613.139 1.227.254 1.84.393.51.104.544-.718.07-.833-1.042-.22-2.13-.428-3.172-.683-.104-.035-.358-.035-.393-.104-.035-.035-.035-.14-.035-.22 0-.104-.034-.255-.034-.359-.035-.544-.07-1.041-.07-1.585 0-.186-.104-.463-.324-.51-.718-.104-1.481-.185-2.199-.289-.22-.035-.359.104-.393.324-.07.324-.14.648-.22 1.007-.035.139-.07.324-.105.463-.034.139-.034.29-.104.428.035-.035.07-.104.104-.139h.186c-.07-.035-.186-.104-.255-.139-.104-.07-.22-.104-.324-.185-.22-.104-.463-.254-.683-.359-.463-.254-.903-.462-1.366-.717-.462-.22-.636.51-.243.683ZM4.789 30.562c.717.104 1.481.22 2.199.324.358.035.717.105.972-.22.185-.254.29-.578.359-.867.104-.325.254-.683.358-1.007a10.7 10.7 0 0 1 .22-.544c.035-.105.07-.105.186-.105.752-.034 1.516-.069 2.268-.069-.139-.185-.29-.324-.428-.51a10.53 10.53 0 0 0-.255 2.813c0 .185.139.359.324.394.938.22 1.91.358 2.847.393.22 0 .324-.255.324-.428-.034-.22-.185-.394-.428-.394a13.553 13.553 0 0 1-2.662-.393c.104.139.22.254.324.393a8.973 8.973 0 0 1 .255-2.592c.035-.255-.185-.51-.428-.51-.718.035-1.447.07-2.2.07-.393 0-.647.139-.798.51-.139.323-.255.648-.359.972-.104.324-.254.682-.358 1.006-.035.07-.07.255-.14.29-.069.034-.254 0-.323-.035-.718-.104-1.447-.185-2.2-.29-.497-.034-.497.765-.057.8ZM9.753 19.429c.29.104.613.185.903.29.254.069.578.254.868.219.324 0 .463-.255.613-.51.104-.22.255-.462.428-.647.14-.22.324-.429.51-.614.138-.139.254-.359.509-.324.29.035.579.104.868.14.139.034.324.069.463.069.104.034.29.034.393.069l-.139-.139c-.104-.139 0-.185-.034-.07-.035.07-.035.14-.035.22-.035.14-.07.255-.104.394-.07.29-.14.579-.22.833-.07.255.07.614.393.614.834 0 1.655 0 2.523-.035.51 0 .36-.833-.104-.833-.833 0-1.655 0-2.523.034.14.22.255.394.394.614.07-.324.139-.648.22-.938.069-.289.22-.648.185-.937 0-.139-.07-.324-.185-.394-.14-.104-.29-.139-.463-.185-.324-.07-.648-.104-.938-.185-.29-.035-.613-.139-.902-.104-.325.035-.544.255-.718.463a7.702 7.702 0 0 0-1.007 1.366c-.035.069-.07.138-.104.185 0 .034-.035.034-.035.07-.07.069.035 0 0 0-.139 0-.359-.105-.51-.14a24.92 24.92 0 0 1-1.099-.324c-.185-.07-.358.104-.393.29-.116.22.035.44.243.509Z"/><path d="M19.302 9.476c1.123.324 2.199.613 3.31.902-.07-.22-.185-.463-.254-.682a88.033 88.033 0 0 0-3.82 7.418c-.324.718-.648 1.447-.972 2.2-.185.427.463.867.683.393a89.969 89.969 0 0 1 3.53-7.384c.359-.683.752-1.366 1.157-2.049.139-.254.035-.613-.255-.683-1.122-.289-2.198-.613-3.31-.902-.462-.104-.462.683-.069.787ZM45.4 12.404c1.585-.463 3.17-.903 4.756-1.366.185-.035.359-.104.544-.139.185-.035.393-.139.579-.185.104 0 .185.104.254.185.14.139.29.29.428.463.29.29.544.579.834.868.254.29.509.579.937.579.22 0 .428-.07.614-.14.22-.069.428-.103.648-.184.428-.105.868-.255 1.33-.36.29-.069.255-.427.14-.613-.36-.648-.753-1.296-1.123-1.91-.035.22-.104.394-.139.614.613-.22 1.262-.393 1.875-.613.428-.14.139-.938-.29-.799-.613.22-1.26.394-1.874.614-.255.07-.255.428-.14.613.36.648.718 1.296 1.123 1.91.035-.22.105-.394.14-.614-.394.104-.753.22-1.158.324-.394.104-.752.255-1.157.324-.14.035-.185 0-.255-.07l-.428-.427c-.29-.29-.579-.579-.868-.903-.255-.255-.463-.579-.868-.613-.185-.035-.394.034-.579.104-.22.07-.393.104-.613.185-.799.22-1.586.463-2.373.683-.903.254-1.77.509-2.662.798-.358.058-.07.81.324.672Z"/><path d="M17.543 19.463c-.185.429-.29.903-.324 1.366-.035.22.139.51.394.51.428-.035.868-.035 1.296-.035h.324c.035 0 .255.034.29 0h.034l-.104-.105c-.035 0 .035-.034 0 0-.035.07-.035.22-.035.29-.139.868-.255 1.724-.393 2.627l.324-.324c-.648.07-1.262.185-1.91.255-.29.034-.648.034-.938.138-.324.105-.393.36-.509.649-.428 1.192-.833 2.337-1.192 3.564-.22.683-.393 1.4-.578 2.095-.035.22 0 .428.22.579.185.104.428.034.462-.186a48.342 48.342 0 0 1 1.297-4.363c.104-.358.254-.683.358-1.041.035-.14.07-.36.186-.463-.035.034-.035.034 0 0h.069c.104-.035.22-.035.29-.035.752-.104 1.55-.22 2.303-.324.185-.035.289-.139.323-.324.07-.544.14-1.042.22-1.586.035-.254.07-.544.105-.787.034-.254.104-.509.069-.752 0-.255-.104-.51-.324-.613-.22-.14-.51-.104-.752-.104-.544 0-1.077.034-1.62.069.138.185.254.324.393.51.035-.394.104-.8.255-1.193.254-.451-.36-.891-.533-.417Z"/><path d="M19.741 24.614c3.785-.544 7.535-1.262 11.238-1.98 1.077-.219 2.164-.358 3.206-.647.393-.104.185-.833-.185-.799-.938.14-1.875.359-2.813.544-.902.185-1.84.359-2.742.51-1.875.358-3.75.682-5.625 1.006-1.042.185-2.13.36-3.171.579-.186.035-.29.185-.29.393.023.22.162.429.382.394ZM24.348 54.67c2.014-1.98 4.791-3.6 7.742-3.102a5.84 5.84 0 0 1 2.2.868c.185.104.393 0 .462-.185.07-.22-.034-.428-.22-.544-1.261-.833-2.847-1.157-4.363-1.007-1.55.14-2.986.752-4.293 1.62a13.058 13.058 0 0 0-1.98 1.69c-.138.14-.185.359-.034.544.092.15.347.255.486.116Z"/><path d="M28.249 51.279c-.36.393-.463.972-.394 1.516.104.51.359 1.007.799 1.261.463.29 1.122.29 1.585.105.579-.22.938-.683 1.077-1.262a1.764 1.764 0 0 0-.579-1.724c-.139-.104-.393-.14-.51.034a.507.507 0 0 0 .07.58l.104.103c-.034-.035.07.07 0 0 0 .035.035.035.035.07.035.034.07.07.07.104 0-.07-.035-.07 0-.035 0 .035.034.07.034.104 0 .035 0 .035.035.07.035.07 0-.035 0-.035.035.035.035.104.035.139v.07c0 .034.034.069 0 0v.254s-.035.104 0 .035v.034c0 .035 0 .035-.035.07a.263.263 0 0 1-.07.139c-.034.034-.034.07-.069.07-.035.034-.07.069-.07.103-.034.035.07-.07 0 0l-.034.035-.104.104c-.035 0-.035.035-.07.035.07-.035 0 0-.034 0-.07.035-.186.07-.29.104-.035 0-.035 0-.07.035-.069 0-.103 0-.184.035H29.337a.71.71 0 0 1-.29-.07c.07.035-.035-.035-.07-.035 0 0-.034 0-.034-.034l-.07-.07-.034-.035c-.07-.069.035.07 0 0-.035-.034-.035-.069-.07-.104 0-.034-.034-.034-.034-.07-.035 0-.104-.219-.104-.254v-.035.035-.07c0-.069 0-.103-.035-.184v-.325c0-.069-.035.07 0-.034 0-.035.035-.104.07-.139 0 0 .034-.104 0-.035 0-.035.034-.035.034-.07.035-.034.07-.103.104-.138.14-.139.07-.428-.07-.544-.161-.116-.346-.081-.485.058ZM22.81 37.483c-.938-.937-2.813-1.296-3.6.035-.393.648-.359 1.447.07 2.014.428.567 1.122.868 1.69 1.296.648.509 1.296 1.076 1.978 1.516.186.104.394 0 .463-.185.07-.22-.034-.428-.22-.544-.509-.324-.972-.718-1.446-1.077a6.691 6.691 0 0 0-.799-.578c-.254-.185-.509-.324-.752-.463-.393-.29-.718-.683-.579-1.192a1.246 1.246 0 0 1 1.077-.868c.578-.035 1.261.22 1.655.613.138.14.358.14.463-.034a.336.336 0 0 0 0-.533Z"/><path d="M22.878 37.981c.325-.428.648-.903 1.192-1.123.394-.185.938-.185 1.193.255.22.359.104.868-.07 1.227-.255.544-.648.972-1.007 1.447a29.739 29.739 0 0 0-1.296 1.84c-.255.358.29.937.579.544.428-.648.868-1.297 1.33-1.91.429-.544.903-1.076 1.123-1.724.22-.58.185-1.262-.139-1.806-.358-.578-1.041-.798-1.69-.648-.752.185-1.26.833-1.69 1.447-.254.312.22.81.475.451ZM50.332 45.295c-.429.105-.868-.22-.718-.648.139-.463.752-.509 1.042-.185.139.185.463.104.544-.104.104-.463.289-1.007.752-1.261.29-.186.752-.186.903.104.139.22.509.254.613-.035.139-.359.29-.833.648-1.042.104-.07.29-.104.428-.07.07 0 .105.036.186.036.069.034.069.034.104.104.104.185.428.254.578.034.105-.185.29-.462.51-.509.185-.034.289.185.289.324.07.463-.29.938-.718 1.123-.22.07-.254.324-.185.51.14.427-.22.832-.578.971-.22.07-.463.105-.718.07-.324-.035-.613-.035-.799.254-.139.22-.254.429-.428.614-.173.185-.359.29-.578.359-.325.104-.834 0-.973-.325-.07-.185-.254-.324-.463-.254-.185.07-.254.324-.185.51.22.462.614.786 1.123.902.51.104 1.007-.07 1.4-.394.185-.139.359-.358.51-.544.069-.104.104-.254.185-.324 0 0 0-.034.034 0 .07 0 .105 0 .185.035.544.07 1.123-.035 1.551-.428a1.565 1.565 0 0 0 .429-1.69c-.07.185-.105.324-.186.51.868-.325 1.331-1.297 1.077-2.165-.14-.428-.51-.833-1.007-.833-.463.035-.799.428-1.007.798.185 0 .359.035.579.035-.29-.51-.973-.648-1.482-.428-.578.255-.868.903-1.076 1.447.22 0 .393-.035.613-.035-.358-.544-1.122-.718-1.69-.428-.648.289-.972 1.007-1.157 1.69l.544-.105c-.29-.324-.798-.509-1.227-.393a1.198 1.198 0 0 0-.902.903c-.255.972.648 1.91 1.62 1.585.243-.174-.012-.822-.37-.718Z"/><path d="M55.168 41.013c-.359-.578-.752-1.157-1.447-1.365-.544-.186-1.226-.035-1.55.463-.07.104-.105.254-.22.324-.105.07-.29.034-.394 0a2.834 2.834 0 0 0-.937.034c-.614.186-1.077.614-1.366 1.158.104-.07.185-.14.29-.22-.684.07-1.482.324-1.876.972-.393.613-.358 1.447.14 1.98.034-.22.034-.43.069-.684-.868.463-1.192 1.62-.718 2.489.475.867 1.62 1.122 2.454.648-.14-.22-.29-.429-.428-.683-.325.324-.22.833.069 1.157.255.255.613.359.937.324.683 0 1.297-.509 1.447-1.192.07-.359-.544-.717-.683-.255a.898.898 0 0 1-.683.614.894.894 0 0 1-.428 0c-.07-.035-.104-.035-.185-.07l-.035-.034c.035 0-.185.254-.035.139.325-.324-.034-.903-.428-.683-.463.254-1.157.07-1.446-.359-.035-.104-.07-.22-.105-.324 0-.104 0-.255.035-.359.07-.254.255-.509.463-.648.255-.139.255-.463.07-.683-.14-.139-.14-.358-.105-.578.07-.29.255-.463.463-.648.255-.186.544-.255.834-.325.22-.034.393-.034.509-.254.07-.104.139-.22.22-.324.185-.22.428-.359.717-.428.29-.07.544-.035.834 0 .393.034.717-.035.937-.394.139-.22.22-.428.51-.463.717-.139 1.191.544 1.48 1.042.105.139.325.254.464.104.231-.046.196-.301.127-.475ZM53.652 45.226c-.718.394-.972 1.296-.752 2.049.069-.14.104-.325.185-.463-.544.289-1.042.752-1.007 1.446.07.683.717 1.042 1.366.972 1.122-.138 1.944-1.226 1.805-2.337-.104.139-.185.254-.29.393.464.035.938-.22 1.262-.578.14-.186.255-.429.29-.683 0-.07 0-.22.034-.22.07-.07.22-.104.29-.185.428-.29.613-.834.578-1.331-.034-.58-.358-1.077-.717-1.482-.14-.139-.36-.139-.51.035-.138.185-.069.393.07.579.255.254.463.613.428.972 0 .139-.07.29-.139.428-.104.139-.254.185-.393.29a.585.585 0 0 0-.324.543c-.035.185-.035.324-.14.463-.184.29-.508.428-.867.394-.22 0-.324.254-.29.393.105.648-.393 1.296-1.041 1.482-.185.07-.718.139-.799-.105-.104-.358.428-.648.648-.786.14-.07.14-.29.105-.429-.14-.463.138-.972.543-1.227.14-.104.14-.358.035-.462-.046-.22-.231-.255-.37-.15ZM47.24 65.48c.36-3.241 2.454-6.158 5.44-7.5a9.418 9.418 0 0 1 2.628-.718c.462-.07.324-.868-.105-.798-1.724.22-3.39.868-4.756 1.944a10.024 10.024 0 0 0-3.137 4.074c-.393.903-.613 1.91-.717 2.882 0 .185.104.393.29.428.173.011.358-.127.358-.313Z"/><path d="M47.241 66.093a8.401 8.401 0 0 0 5.3-1.551c1.517-1.076 2.593-2.743 3.068-4.537.254-1.041.393-2.164.22-3.24-.035-.22-.186-.394-.394-.394-.208 0-.324.22-.29.428.07.903.07 1.771-.138 2.627a7.156 7.156 0 0 1-.972 2.338 7.713 7.713 0 0 1-4.005 3.172 7.222 7.222 0 0 1-2.882.393c-.22 0-.324.22-.289.393.012.186.197.336.382.37Z"/><path d="M47.413 65.549a113.571 113.571 0 0 0 6.377-6.123c.58-.613 1.193-1.226 1.725-1.84.139-.139.07-.393-.035-.544-.104-.104-.324-.22-.463-.069-1.007 1.042-2.014 2.13-3.032 3.171a159.028 159.028 0 0 1-3.171 3.067 59.438 59.438 0 0 1-1.84 1.655c-.14.139-.185.359-.035.544.116.174.336.29.474.139Z"/><path d="M51.673 58.13c-.07.394-.139.752-.185 1.158-.035.185-.035.393-.035.578 0 .255-.07.544.104.752.104.105.29.255.429.105a.47.47 0 0 0 .138-.36v-.288c0-.186.035-.394.035-.58.035-.393.104-.798.185-1.156.035-.186-.104-.429-.289-.463-.243-.07-.347.07-.382.254ZM49.034 60.503c-.07.394-.104.834-.104 1.227v.648c0 .22 0 .428.07.614.034.185.184.393.393.358.22 0 .289-.22.289-.393 0-.22-.035-.394-.035-.614 0-.185-.035-.358-.035-.544 0-.393.035-.798.07-1.192a.384.384 0 0 0-.29-.428c-.173 0-.323.15-.358.324Z"/><path d="M49.647 63.79c.463.139.972.254 1.481.324a6.2 6.2 0 0 0 .799.07c.255 0 .544.034.798-.035.36-.105.22-.683-.104-.753-.254-.034-.544 0-.798 0-.22 0-.428 0-.648-.034a6.544 6.544 0 0 1-1.447-.29c-.185-.07-.359.104-.359.29a.346.346 0 0 0 .278.428ZM52.136 61.186c.325.104.649.254 1.007.324.324.104.683.185 1.007.22.185.035.394-.104.394-.29 0-.185-.104-.428-.324-.462a18.89 18.89 0 0 1-1.007-.22c-.324-.07-.683-.186-1.007-.29-.185-.07-.359.104-.359.29-.035.22.104.358.29.428ZM6.513 49.196c.393-.36.902-.753 1.446-.648.104.034.22.069.29.104l.069.07c.035.034.07.103.07.103.069.185.104.36.138.614.07.463.14 1.007.544 1.33.255.22.579.29.903.29.255 0 .51-.035.752.104.185.104.29.29.324.428.07.255-.07.463-.139.718-.104.29-.185.613-.104.903.07.289.29.544.544.682.22.105.463.14.683.255.185.07.22.22.22.394 0 .289-.104.544-.185.798-.104.324-.185.683-.14 1.042.07.359.255.717.394 1.041.07.105.14.255.186.394 0 .035.034.07.034.104-.034-.104 0 .07 0 .07v.278c0 .069.035-.07 0 .034 0 .035-.034.139-.034.104-.105.22-.29.29-.544.359-.429.139-.14.903.289.798a1.332 1.332 0 0 0 1.007-1.122c.07-.544-.139-1.042-.394-1.516-.139-.255-.289-.51-.254-.799.034-.359.185-.683.254-1.041.14-.614.035-1.366-.578-1.725-.22-.104-.51-.139-.718-.255-.07-.034-.104-.034-.104-.069-.035-.104.035-.255.07-.359.104-.324.254-.613.22-.972 0-.324-.14-.613-.325-.868-.22-.255-.463-.463-.752-.544-.324-.104-.648-.035-.972-.07a.423.423 0 0 1-.29-.103c-.034-.035-.034-.035 0 0 0-.035-.034-.035-.034-.07-.035-.07-.035-.035 0 0 0-.035-.035-.07-.035-.104-.07-.185-.07-.428-.104-.648-.104-.683-.394-1.331-1.123-1.516-.752-.185-1.446.254-1.979.798a.342.342 0 0 0-.035.463c.081.15.267.255.406.15ZM30.622 69.079a6.05 6.05 0 0 1-.938-1.227 4.24 4.24 0 0 1-.359-.683c-.07-.104-.104-.254-.139-.358-.034-.105-.104-.22-.104-.36 0-.069 0-.103.07-.138-.035 0-.035 0 0 0 .034.035.104.07.139.104.185.139.358.324.509.51.324.393.613.832.798 1.295.22-.104.394-.22.614-.324a7.526 7.526 0 0 1-.868-1.655c-.104-.254-.22-.543-.255-.752 0-.104-.035-.185 0-.29 0 .036.035-.069.035-.069-.035.035.035-.034 0 0 .22-.104.463.255.579.36.22.219.393.427.578.647.359.463.648.972.903 1.516.22-.07.428-.139.648-.254A30.583 30.583 0 0 1 32 65.526c-.104-.22-.324-.544-.29-.787 0-.104.105-.255.22-.185.186.139.36.358.51.544.185.22.324.428.509.683.324.462.578.972.752 1.516.22-.07.428-.14.648-.255a7.98 7.98 0 0 1-.717-2.049c-.07-.324-.14-.682-.14-1.006 0-.14 0-.36.186-.255.255.104.393.428.544.648.185.29.359.614.51.903.358.648.647 1.33.937 1.979.139.324.648.393.682-.035.035-.22.07-.717.429-.683.393.07.428.614.463.903a5.602 5.602 0 0 0 1.076 2.778c.104.139.324.254.51.104.184-.139.184-.394.034-.579-.359-.463-.614-.937-.752-1.516-.186-.579-.105-1.192-.36-1.724-.22-.51-.798-.973-1.4-.799-.544.185-.682.799-.717 1.262.22 0 .463-.035.683-.035-.255-.648-.579-1.262-.868-1.875-.185-.324-.324-.614-.51-.938a3.817 3.817 0 0 0-.544-.833c-.358-.428-1.076-.833-1.48-.22-.186.255-.186.579-.14.868.035.36.104.683.185 1.007.186.752.429 1.482.753 2.2.07.184.254.323.463.254.22-.07.254-.324.185-.51a8.98 8.98 0 0 0-1.725-2.847c-.185-.22-.358-.393-.648-.462a.679.679 0 0 0-.717.254c-.394.463-.14 1.123.07 1.586.288.648.613 1.33.902 1.979.07.185.254.324.463.254.185-.07.254-.324.185-.509-.255-.544-.544-1.076-.903-1.55-.324-.464-.717-.973-1.192-1.332-.255-.185-.544-.324-.868-.22-.22.07-.393.29-.463.51-.139.544.07 1.076.255 1.585.254.648.578 1.297 1.007 1.875.254.359.752.07.613-.324a6.944 6.944 0 0 0-1.122-1.77c-.22-.22-.429-.51-.718-.649-.324-.185-.718-.034-.903.29-.22.358-.104.752.07 1.122.139.324.289.614.428.903a8.18 8.18 0 0 0 1.296 1.655c.139.104.324.104.428-.035-.011.197-.08-.011-.197-.127ZM71.962 35.134c-.798-.07-1.585.29-1.979 1.007-.22.393-.255.787-.22 1.227.035.428.185.833.255 1.261.07.359.035.718-.255.972-.29.324-.683.544-.972.834-.324.289-.752.682-.903 1.076a.695.695 0 0 0 .753.937c.254-.034.509-.139.717-.22.255-.104.51-.185.752-.289.544-.22 1.123-.428 1.586-.752.324-.22 0-.787-.359-.683-.393.139-.798.359-1.192.544-.393.185-.833.324-1.227.51-.104.034-.22.069-.289.103-.035 0-.104.035-.139.035.139-.07-.07 0-.07 0 .07-.035.035.255.105.185.07-.07.104-.185.139-.22.254-.289.544-.578.833-.833.29-.255.648-.463.868-.799.22-.324.324-.682.29-1.076 0-.359-.105-.717-.186-1.041-.07-.325-.139-.683-.07-1.007.14-.648.869-1.123 1.517-1.042.44 0 .405-.694.046-.729ZM65.33 57.332c.069-.972.22-1.944.462-2.882.07-.22.139-.463.22-.683.035-.07.035-.104.07-.185 0-.035.104-.139 0-.07-.07.07 0 .035.069.07.07.035.104.035.185.07.463.138.972.358 1.481.428.394.07.51-.579.14-.718-.545-.22-1.158-.359-1.69-.544-.255-.07-.544-.104-.718.14-.139.219-.185.543-.255.786a15.408 15.408 0 0 0-.578 3.391c0 .185.104.394.29.428.138.093.323-.046.323-.231ZM14.266 13.804c.428.579.903 1.157 1.447 1.62.255.22.544.429.868.463.324.035.648-.07.833-.359.428-.613.07-1.33-.254-1.944-.36-.683-.718-1.33-1.077-2.014-.104-.185-.324-.254-.509-.104-.185.14-.139.359-.035.544.29.544.58 1.076.868 1.62.14.255.29.51.394.753.07.185.139.359.07.578-.36.718-1.876-1.296-2.095-1.585-.105-.139-.29-.22-.463-.104a.396.396 0 0 0-.047.532Z"/><path d="M16.35 12.404c.613.139 1.192.254 1.806.324.463.034 1.122.185 1.446-.255a.698.698 0 0 0 .07-.798c-.105-.255-.36-.463-.614-.614a18.44 18.44 0 0 1-.833-.428c-.139-.07-.29-.139-.428-.22-.14-.07-.29-.185-.463-.22-.394-.07-.51.463-.255.648.22.186.463.29.718.394.22.104.463.254.683.359.104.069.22.104.358.185.07.034.105.07.186.104v-.07.035c0-.035 0-.035 0 0 .034-.035.034-.035 0 0 .034 0 .034 0 0 0-.14.07-.255.07-.429.07-.22 0-.463-.035-.682-.07-.51-.07-1.007-.139-1.517-.254-.44-.058-.44.729-.046.81ZM40.135 16.397c.069.428.254.972.034 1.4-.104.22-.324.324-.509.463-.22.22-.324.428-.324.752.035.614.51 1.042 1.076 1.123a3.377 3.377 0 0 0 1.69-.255 4.994 4.994 0 0 0 1.481-.902c.429-.36.799-.868.683-1.447a1.112 1.112 0 0 0-.393-.718 1.492 1.492 0 0 0-.359-.185c-.139-.035-.29-.035-.428-.07-.185-.069-.255-.22-.359-.393-.104-.185-.185-.393-.324-.579-.359-.509-1.007-.867-1.62-.613-.614.22-.903.903-.683 1.481.139.394.752.325.648-.138-.07-.324.139-.579.463-.614.393-.034.648.255.833.544.185.324.324.683.648.938.185.139.394.185.614.22.185.034.289.034.324.185.07.324-.324.648-.579.833-.359.29-.752.544-1.157.683-.394.185-.868.29-1.297.255-.22 0-.798-.22-.509-.51.14-.185.359-.29.51-.428.138-.185.254-.393.289-.613.104-.463-.035-.973-.14-1.447-.034-.139-.138-.324-.323-.324-.22.035-.324.22-.29.359ZM62.726 28.398c.035.36.104.718.139 1.123.034.255.139.463.358.613.186.104.36.104.544.07.36-.07.718-.185 1.077-.29.185-.034.359-.069.509-.185.22-.104.29-.358.255-.613a3.89 3.89 0 0 0-.14-.613c-.034-.255-.103-.463-.138-.718-.035-.185-.255-.324-.428-.29a.33.33 0 0 0-.255.394c.07.394.185.787.255 1.157v.07c0-.035 0-.07.034-.104.035-.035.07-.035.035-.035-.07.035-.185.035-.255.07-.185.034-.393.104-.578.138-.185.035-.359.105-.579.14-.104.034.07 0-.035 0h-.07c.036 0 .036 0 0 0l.105.103c0-.034 0-.034 0 0-.07-.393-.104-.752-.139-1.157-.035-.185-.185-.393-.393-.393-.22.127-.336.335-.301.52Z"/><path d="M62.875 27.68c-.833.105-1.62.325-2.372.614.139.07.289.185.463.255-.36-1.077.185-2.269 1.076-2.917.51-.324 1.076-.544 1.655-.579.613-.069 1.296 0 1.84.325.544.324.833 1.006 1.076 1.55.07-.185.105-.324.186-.509l-1.91.648c-.428.14-.139.903.29.753l1.909-.649c.185-.069.255-.324.185-.509-.29-.648-.613-1.365-1.192-1.84-.613-.51-1.447-.648-2.199-.613-1.447.034-2.847.833-3.46 2.199a3.38 3.38 0 0 0-.104 2.384c.069.185.254.324.462.254a15.858 15.858 0 0 1 2.2-.613c.184-.035.289-.185.289-.393-.035-.151-.22-.36-.394-.36ZM24.243 54.844c2.743 1.006 5.88.613 8.356-.869a8.405 8.405 0 0 0 1.91-1.516.438.438 0 0 0 .034-.578c-.104-.14-.358-.29-.509-.104-1.944 1.979-4.757 2.986-7.5 2.777-.752-.07-1.55-.22-2.268-.463-.185-.07-.359.104-.359.29.012.22.116.393.336.463ZM57.436 12.647a15.643 15.643 0 0 0-1.77 2.234c-.14.22-.035.463.138.578.29.185.544.359.834.51-.035-.22-.105-.394-.14-.614a19.444 19.444 0 0 0-1.515 2.593c.185-.035.359-.07.509-.105a6.14 6.14 0 0 0-1.481-.868c-.255-.07-.394.186-.36.394.105.868.186 1.724.22 2.592 0 .22.22.36.394.36 1.192.069 2.373 0 3.495-.29.324-.07.22-.51.07-.648l-.868-.973c.034.186.034.36.07.544l.034-.034.104-.104a161.33 161.33 0 0 1 .579-.58c.324-.323.648-.613.972-.902.393-.359.799-.717 1.192-1.076.22-.185.139-.544-.104-.683-.463-.29-.938-.579-1.4-.868.034.22.104.428.138.613.29-.463.648-.937.903-1.446.104-.186.185-.36.255-.579.07-.255-.035-.463-.22-.648-.324-.324-.648-.579-1.007-.868-.139-.139-.359-.139-.51.035-.289.324-.543.648-.798.972-.255.324.255.902.544.544.29-.324.544-.648.833-.972-.185 0-.324.034-.509.034.324.255.614.51.938.799.034.035.069.07.104.07.034.034.034.069 0 0 .07.069.034 0-.07-.255 0-.07.035-.07 0-.035 0 .035-.035.07-.035.07-.069.185-.138.323-.254.462-.255.394-.51.799-.799 1.227a.46.46 0 0 0 .14.614c.462.289.937.578 1.4.868-.035-.22-.07-.463-.105-.683-1.006.937-2.048 1.84-2.986 2.847-.138.139-.034.428.07.544l.868.972c.035-.22.035-.428.07-.648a11.353 11.353 0 0 1-3.31.29c.138.103.254.254.393.358a27.973 27.973 0 0 0-.22-2.593c-.104.14-.255.255-.359.394.428.139.834.393 1.158.648.185.139.393.104.509-.104.393-.833.903-1.655 1.447-2.419.138-.22.034-.463-.14-.613-.289-.185-.543-.324-.833-.51.035.186.105.394.14.58a20.547 20.547 0 0 1 1.689-2.2c.231-.139-.162-.671-.417-.428ZM38.768 29.764c1.366 1.944 2.743 3.889 4.074 5.833.104.139.324.255.51.104a.358.358 0 0 0 .034-.544c-1.33-1.979-2.662-3.923-4.074-5.833-.104-.139-.324-.254-.463-.104a.406.406 0 0 0-.08.544Z"/><path d="M43.34 35.898c.29-.07.613-.14.903-.22.104-.035.22-.035.289-.139.139-.185.035-.51-.139-.613-.07-.035-.139-.07-.22-.035-.07 0-.104.035-.185.035-.07.034-.185.034-.255.069-.185.035-.358.07-.544.139-.034 0-.069.035-.104.035a.474.474 0 0 0-.185.185.414.414 0 0 0 0 .29.357.357 0 0 0 .185.219c.035 0 .07.035.07.035.046.034.115.034.185 0Z"/><path d="M44.636 35.389c.104-.394.185-.799.255-1.227.07-.393.139-.833.104-1.227 0-.139-.14-.289-.255-.324-.139-.034-.29.035-.324.186-.104.393-.139.798-.22 1.192-.07.393-.139.787-.22 1.157-.034.139.07.359.255.393.162.07.336.035.405-.15Z"/><path d="M44.428 33.085c.29.683.648 1.331 1.007 1.945.104.139.324.254.463.104.139-.139.139-.359.034-.544-.358-.613-.682-1.227-1.041-1.84-.07-.14-.255-.22-.394-.104-.104.08-.15.254-.069.44Z"/><path d="M45.863 35.215c.254-.035.509-.07.752-.139.104-.035.22-.07.324-.07.035 0 .104-.034.139-.034.035 0 .07-.035.104-.035a.275.275 0 0 0 .185-.254.49.49 0 0 0-.22-.51c-.07-.034-.185-.034-.254-.034-.035 0-.07.034-.105.034-.104.035-.22.07-.323.105-.22.069-.429.104-.683.185h.07c-.036 0-.105.034-.14.034-.104 0-.185.035-.22.14a.71.71 0 0 0-.07.289c0 .104.07.22.14.289.127-.046.197.035.3 0Z"/><path d="M47.379 34.637c.648-2.558 1.261-5.15 1.875-7.708.034-.22 0-.428-.22-.544-.14-.07-.428-.035-.463.185-.614 2.592-1.262 5.22-1.84 7.858-.105.313.509.637.648.209ZM39.058 29.845c.324-.139.613-.324.938-.463.185-.07.323-.139.509-.254a1.91 1.91 0 0 0 .509-.255c.139-.104.139-.29.104-.428-.07-.14-.185-.29-.359-.255a1.776 1.776 0 0 0-.509.185c-.185.07-.324.14-.51.255-.323.139-.613.324-.937.51-.185.103-.254.288-.185.462.081.127.255.313.44.243Z"/><path d="M46.95 26.998c.36-.07.718-.07 1.077-.07s.718 0 1.076-.034c.22-.035.324-.22.29-.394-.035-.185-.186-.393-.394-.393-.359.035-.718.035-1.076.07-.359 0-.718.034-1.077.104-.185.034-.324.22-.289.393.035.104.174.359.394.324ZM40.714 28.792c.683 1.041 1.4 2.13 2.13 3.17.069.14.185.256.289.36l.034.034c.035.035.105.105.07.035.07.035.104.07.185.07a3.9 3.9 0 0 0-.22-.105c.22.29.579-.034.394-.289 0 .104.034.185.034.29.035-.07 0-.14 0-.255.035.104 0 .035 0-.035v-.035a1.326 1.326 0 0 0-.185-.358c-.185-.29-.358-.58-.578-.868-.429-.649-.868-1.297-1.297-1.98-.104-.138-.22-.289-.289-.462-.104-.14-.324-.22-.463-.105a.376.376 0 0 0-.104.533Z"/><path d="M43.629 32.287c.034-.139.034-.324.069-.463.035-.185.035-.359.035-.544 0-.139-.14-.29-.29-.29-.07 0-.104 0-.185.035-.08.035-.07.105-.104.186v.034-.034c0 .034-.035.07-.035.104v.104c0 .07-.035.139-.035.22 0 .07 0 .139-.034.22v.254c0 .07 0 .185.07.255.034.07.103.104.184.139.186.035.29-.07.325-.22Z"/><path d="M43.56 31.026c-.22-.429-.463-.869-.752-1.297-.255-.428-.51-.868-.833-1.226-.105-.14-.325-.255-.463-.105-.185.14-.14.36-.035.544.255.428.544.834.833 1.227.255.428.544.833.799 1.262.07.139.29.22.428.104a.418.418 0 0 0 .023-.51Z"/><path d="M42.043 28.872c.429-.185.868-.358 1.297-.578.138-.07.289-.139.358-.29.105-.254-.104-.578-.393-.543-.07 0-.139.034-.185.034-.255.104-.51.22-.753.36-.185.103-.393.184-.578.288-.185.07-.255.29-.185.463.046.185.231.336.44.266Z"/><path d="M43.304 28.144c.035.035.035.035.035.07 0-.035-.035-.07-.035-.07.104.139.22.29.29.463 0-.035-.035-.07-.035-.104.035.069.07.138.104.22 0-.035-.035-.07-.035-.105.035.07.07.14.105.255.034.07.069.139.139.185-.035-.035-.07-.07-.07-.139.07.104.185.22.324.22.139-.035.185-.185.185-.29v.14c.035-.07.035-.14.035-.255v.07c0-.14-.035-.29-.07-.394-.034-.104-.104-.22-.138-.324-.105-.185-.255-.324-.394-.463-.104-.104-.359-.139-.428.035-.185.162-.15.347-.012.486Z"/><path d="M44.278 28.873c.104-.36.185-.718.289-1.077-.07.07-.104.14-.185.186H44.486c-.104.034.035 0 0 0 .035 0 .07 0 .104-.035.22-.035.463-.104.683-.14.29-.069.613-.138.902-.219-.138-.185-.323-.393-.462-.579-.22.834-.394 1.655-.614 2.523-.104.394-.29.868-.185 1.262.035.185.185.324.255.51.07.184.139.323.254.508.07.104.22.185.359.14a.364.364 0 0 0 .255-.29c0-.035.034-.104.034-.139-.034.104 0-.035 0 0 0-.035 0-.035.035-.07.035-.069.035-.138.07-.22.104-.428.22-.833.289-1.26.22-.904.463-1.841.648-2.744.035-.139.07-.29.104-.428v-.174c0-.185.035.255 0-.069 0-.104-.07-.22-.139-.29-.07-.069-.254-.138-.359-.069-.069.035-.104.035-.138.104-.29.36.254.938.578.544-.035.035-.104.07-.139.104a1.1 1.1 0 0 0-.358-.069c-.035-.104-.105-.185-.14-.29 0-.069 0-.104.035-.184 0 .034 0 .069-.034.104 0 .07.034-.105 0-.07 0 .07-.035.14-.035.22-.035.104-.035.255-.07.359-.069.393-.185.799-.289 1.192 0 .035-.035.104-.035.139 0 .07.035-.07 0 .035v.069c-.034.139-.069.255-.069.393-.07.255-.104.463-.185.718-.104.393-.185.833-.29 1.227-.034.104-.034.22-.069.324 0 .035 0 .07-.035.104 0 .035-.034.104 0 .035 0-.07 0 .07-.034.07v.034c.185 0 .358-.035.578-.035-.07-.104-.104-.254-.139-.359a3.867 3.867 0 0 1-.104-.22c-.034-.034-.07-.069-.07-.104 0-.07.036-.185.036-.22.034-.104.034-.185.069-.289.035-.185.07-.359.104-.51.185-.717.359-1.48.544-2.198.07-.324-.139-.648-.463-.579-.613.14-1.227.29-1.84.428-.139.035-.185.186-.22.29-.07.359-.185.717-.254 1.122-.058.29.52.58.625.186Z"/></g><defs><clipPath id="a"><path fill="#fff" d="M3.666 8.677h69.001v62.3H3.666z"/></clipPath></defs></svg>