<svg xmlns="http://www.w3.org/2000/svg" width="80" height="80" fill="none"><circle cx="32" cy="41" r="31" fill="#F0BC00"/><path fill="#000" d="m42.032 43.415-.012-.01h-.034l.046.01ZM33.642 33.398a.255.255 0 0 1-.048.013c.047-.007.09-.019.048-.013ZM33.527 33.42ZM58.158 12.043c.018.012.04.017.062.014a.146.146 0 0 1-.062-.014ZM59.02 12.663c.029.065.042.08.04.07a.36.36 0 0 1-.039-.069l-.002-.001ZM50.265 50.305l-.59 3.736-1.724 3.084h5.052l1.568-3.605-1.072-3.79-3.234.575Zm1.89 5.525H50.16l.757-1.358.485-3.053 1.172-.208.626 2.215-1.044 2.404Z"/><path fill="#000" d="m67.918 30.927-.017-.072c-.043-.177-1.089-4.403-4.599-9.133-2.633-3.544-7.113-7.918-14.263-10.464a30.69 30.69 0 0 0-5.258-1.414l-.093-.018-.394-.074v.01a31.067 31.067 0 0 0-4.909-.388c-12.541 0-23.366 7.488-28.242 18.226l-.025-.013-.274.674c-.013.033-.06.147-.133.34a30.828 30.828 0 0 0-2.306 12.756c.012.752.055 1.51.134 2.271l.148 1.412.044-.047c.13.852.292 1.692.488 2.519l-.024.013.148.504c0 .01.013.044.03.095a31.02 31.02 0 0 0 8.711 14.739 23.697 23.697 0 0 0 3.942 3.188l.37.235a31.006 31.006 0 0 0 4.828 2.599l-.058.025 1.476.55c.03.01.185.067.454.154a30.987 30.987 0 0 0 21.84-.477c1.6-.622 3.139-1.392 4.596-2.299l.793-.494-.017-.014a30.985 30.985 0 0 0 12.61-35.403Zm-16.75-3.498 4.313-.796 1.383 1.557-3.525 2.697-.738 2.12-3.18 1.23-2.267-5.655h-2.32V24.09l-3.457-.673-.65-2.995-3.08-.667-1.974 1.27-3.236-1.295-3.502 1.9-2.11 2.453-3.67-1.787.58-2.906h3.011l1.425-2.968 1.837 1.181 6.42-1.57 1.72-3.04h4.316l1.375-1.82c1.48.29 2.939.68 4.367 1.165A29.84 29.84 0 0 1 66.59 31.039l-1.46 5.464-1.65-1.13-.459-8.477-4.99-5.759-4.072 1.22-4.293-2.29-1.345 3.052 2.847 4.31ZM47.19 47.906l-.27 2.051-2.334 1.694c-.192.138-.22.16-2.27 5.136l-4.181.233-1.818-5.428.803-3.454-1.352-2.82.784-1.936-1.997-2.596-5.463 1.018-3.568-4.317.839-1.142-.428-2.29 3.276-5.907 1.106.925 4.718-.835.462 1.403 1.9.886 2.316-1.568 3.822.799v.12h.148l1.79 6.916 3.1 2.695 1.579-.784-.068 2.286-4.068 4.462 1.173 2.453ZM13.002 37.459l-4.268 4.567c-.01-.2-.019-.4-.025-.601-.09-5.264 1.462-10.223 2.087-11.992l1.565.855-1.27 3.808 1.91 3.363Zm9.442 26.479-1.067.763a29.947 29.947 0 0 1-3.408-2.784c-5.087-5.077-7.595-11.874-8.22-13.751l2.237-1.192 1.282 3.95 3.074 1.55.696 4.71 5.078-.536 2.448 3.366-2.935 1.346.815 2.578Zm27.053 3.974c-4.843 1.893-9.578 2.126-13.028 1.907a35.323 35.323 0 0 1-6.756-1.09l2.193-.99 4.93.886 5.02-1.694h5.127l4.396-1.986 1.643 1.261a29.437 29.437 0 0 1-3.525 1.709v-.003Zm4.726-2.425-2.658-2.045-4.863 2.194h-5.06l-4.906 1.656-4.997-.897-3.877 1.749a29.627 29.627 0 0 1-5.331-2.67l1.432-1.025-.753-2.385 3.334-1.522-3.812-5.259-4.587.485-.611-4.147-3.2-1.608-1.592-4.907-3.334 1.772a29.3 29.3 0 0 1-.524-3.116l5.716-6.108-2.096-3.692 1.43-4.283-2.646-1.445C15.94 17.887 26.339 10.67 38.385 10.67c1.339 0 2.676.091 4.002.27l-.573.76h-4.43l-1.804 3.213-5.334 1.304-2.606-1.68L25.93 18.1h-3.257l-.987 4.935 5.476 2.658 2.597-3.032 2.763-1.496 3.293 1.317 2.083-1.34 1.743.376.654 3.014 3.249.632v3.275l-4.095-.856-2.16 1.468-.725-.339-.64-1.937-5.227.926-1.846-1.545-4.274 7.68.411 2.193-1.105 1.502 4.698 5.687 5.43-1.013 1.061 1.377-.72 1.78 1.402 2.923-.784 3.367 2.255 6.715 5.982-.336.148-.376c.706-1.712 1.84-4.442 2.119-5.053l2.427-1.763.23-.161.393-2.983-.96-2.011 3.803-4.173.148-4.927-2.742 1.365-2.148-1.865-1.603-6.202h1.25l2.42 6.028 4.931-1.905.811-2.32 4.328-3.314-2.795-3.145-4.19.772-1.984-3.003.496-1.127 3.53 1.886 3.78-1.131 4.152 4.784.47 8.672 3.691 2.527 1.372-5.136a29.69 29.69 0 0 1-13.057 32.02l-.004-.003ZM14.272 12.605l-.946 1.086 2.89 2.518.946-1.085-2.89-2.519ZM18.494 9.586l-1.144.873 2.304 3.02 1.144-.874-2.304-3.019ZM23.05 7.118l-1.26.696 1.773 3.215 1.26-.695-1.773-3.216ZM29.003 5.47l-1.366.455 1.125 3.376 1.366-.455-1.125-3.376ZM34.873 4.401l-1.418.248.59 3.376 1.418-.247-.59-3.377ZM39.973 4l-1.438.07.161 3.349 1.438-.07L39.974 4ZM44.931 4.572l-.788 3.376 1.402.328.788-3.376-1.402-.328ZM50.804 6.144l-1.23 2.92 1.327.56 1.23-2.922-1.327-.558ZM56.588 7.847l-1.983 3.314 1.236.74 1.982-3.314-1.235-.74ZM61.493 11.05l-2.358 2.635 1.073.96 2.358-2.635-1.073-.96ZM65.287 14.84 62.5 17.037l.891 1.13 2.787-2.197-.891-1.13ZM68.146 19.017l-2.787 1.661.738 1.237 2.786-1.661-.737-1.237ZM71.092 23.339l-3.162 1.254.53 1.338 3.163-1.254-.53-1.338ZM72.747 28.403l-3.081.482.223 1.423 3.08-.483-.222-1.422ZM74.412 33.706h-3.644v1.44h3.644v-1.44ZM74.626 38.758h-3.31v1.44h3.31v-1.44ZM71.365 43.675l-.107 1.436 3.577.268.107-1.436-3.577-.268ZM71.01 47.632l-.48 1.356 3.323 1.18.481-1.357-3.323-1.18ZM69.748 52.271l-.642 1.289 3.543 1.768.643-1.288-3.544-1.769ZM68.113 56.17l-.904 1.12 3.323 2.68.904-1.12-3.323-2.68ZM64.962 60.4l-.933 1.097 3.216 2.733.932-1.097-3.215-2.733ZM61.995 63.8l-1.212.778 2.037 3.172 1.211-.778-2.036-3.172ZM58.07 66.972l-1.193.806 2.143 3.173 1.193-.806-2.143-3.173ZM52.947 70.172l-1.236.74 1.863 3.116 1.236-.739-1.863-3.117ZM47.979 71.861l-1.364.462 1.073 3.167 1.363-.462-1.072-3.167ZM42.81 72.765l-1.437.073.16 3.162 1.439-.073-.161-3.162ZM35.37 72.412l-.054 3.537 1.44.022.054-3.538-1.44-.021ZM29.982 71.926l-.804 3.166 1.395.354.804-3.166-1.395-.354ZM25.445 70.182l-1.822 3.141 1.245.723 1.823-3.141-1.246-.723ZM20.555 67.323 17.5 70.647l1.06.974 3.055-3.324-1.06-.974ZM10.119 15.895l-.793 1.203 3.377 2.224.792-1.204-3.376-2.223ZM6.655 20.279l-.833 1.174 3.323 2.357.833-1.174-3.323-2.357ZM4.413 25.259l-.636 1.292 3.27 1.608.635-1.292-3.27-1.608ZM2.577 31.511l-.179 1.43 3.86.482.179-1.43-3.86-.482ZM5.617 37.304 2 37.894l.232 1.42 3.617-.59-.232-1.42ZM5.704 42.874l-3.056.94.424 1.377 3.056-.941-.424-1.376ZM6.62 48.693l-3.643 1.09.413 1.38 3.644-1.091-.413-1.38ZM8.2 53.76l-3.108 1.356.576 1.32 3.108-1.356-.575-1.32ZM10.872 59.124 8.139 61l.814 1.187 2.734-1.876-.815-1.187ZM14.72 63.7l-3.001 3.174 1.046.989 3.001-3.173-1.046-.99Z"/></svg>